<svg width="12" height="20" viewBox="0 0 12 20" fill="none" xmlns="http://www.w3.org/2000/svg">
<path d="M5.87994 -1.52588e-05C3.03217 -1.52588e-05 0.723663 2.32041 0.723663 5.18271C0.723663 8.04508 3.03217 10.3656 5.87994 10.3656C8.7277 10.3656 11.0362 8.04508 11.0362 5.18271C11.0362 2.32041 8.7277 -1.52588e-05 5.87994 -1.52588e-05ZM5.87994 7.32527C4.70277 7.32527 3.74845 6.36598 3.74845 5.18278C3.74845 3.99958 4.70277 3.04036 5.87994 3.04036C7.0571 3.04036 8.01143 3.99958 8.01143 5.18278C8.01143 6.36598 7.0571 7.32527 5.87994 7.32527Z" fill="white"/>
<path d="M7.70033 14.4895C9.7646 14.0668 11.0016 13.0843 11.0671 13.0315C11.6711 12.5446 11.7681 11.6577 11.2837 11.0505C10.7993 10.4433 9.91704 10.3458 9.31285 10.8327C9.30009 10.843 7.98073 11.8603 5.80991 11.8618C3.63917 11.8603 2.29191 10.843 2.27915 10.8327C1.67496 10.3458 0.792656 10.4433 0.308301 11.0505C-0.176129 11.6577 -0.0790949 12.5446 0.524947 13.0315C0.591284 13.085 1.87936 14.0932 4.00147 14.5059L1.04391 17.6127C0.506427 18.1729 0.522586 19.065 1.07999 19.6053C1.35206 19.8689 1.7027 20 2.05306 20C2.42038 20 2.78734 19.8557 3.06243 19.5689L5.80999 16.627L8.83507 19.588C9.38318 20.138 10.2707 20.1371 10.8178 19.5864C11.3649 19.0357 11.3642 18.1434 10.8162 17.5935L7.70033 14.4895Z" fill="white"/>
<path d="M5.81003 11.8618C5.80615 11.8618 5.81383 11.8619 5.81003 11.862C5.80623 11.8619 5.81391 11.8618 5.81003 11.8618Z" fill="white"/>
</svg>
