<svg width="34" height="34" viewBox="0 0 34 34" fill="none" xmlns="http://www.w3.org/2000/svg">
<path d="M22.7216 25.1021L23.2236 25.967L24.9533 24.963L24.4513 24.0981L22.7216 25.1021ZM9.54827 24.0981L9.04627 24.963L10.776 25.967L11.278 25.1021L9.54827 24.0981ZM31.2 17C31.2 24.8425 24.8425 31.2 17 31.2V33.2C25.9471 33.2 33.2 25.9471 33.2 17H31.2ZM17 31.2C9.15761 31.2 2.80005 24.8425 2.80005 17H0.800049C0.800049 25.9471 8.05304 33.2 17 33.2V31.2ZM2.80005 17C2.80005 9.15761 9.15761 2.80005 17 2.80005V0.800049C8.05304 0.800049 0.800049 8.05304 0.800049 17H2.80005ZM17 2.80005C24.8425 2.80005 31.2 9.15761 31.2 17H33.2C33.2 8.05304 25.9471 0.800049 17 0.800049V2.80005ZM12.2 13.8334C12.2 14.3304 11.7971 14.7334 11.3 14.7334V16.7334C12.9017 16.7334 14.2 15.435 14.2 13.8334H12.2ZM11.3 14.7334C10.803 14.7334 10.4 14.3304 10.4 13.8334H8.40005C8.40005 15.435 9.69842 16.7334 11.3 16.7334V14.7334ZM10.4 13.8334C10.4 13.3363 10.803 12.9334 11.3 12.9334V10.9334C9.69842 10.9334 8.40005 12.2318 8.40005 13.8334H10.4ZM11.3 12.9334C11.7971 12.9334 12.2 13.3363 12.2 13.8334H14.2C14.2 12.2318 12.9017 10.9334 11.3 10.9334V12.9334ZM23.6 13.8334C23.6 14.3304 23.1971 14.7334 22.7 14.7334V16.7334C24.3017 16.7334 25.6 15.435 25.6 13.8334H23.6ZM22.7 14.7334C22.203 14.7334 21.8 14.3304 21.8 13.8334H19.8C19.8 15.435 21.0984 16.7334 22.7 16.7334V14.7334ZM21.8 13.8334C21.8 13.3363 22.203 12.9334 22.7 12.9334V10.9334C21.0984 10.9334 19.8 12.2318 19.8 13.8334H21.8ZM22.7 12.9334C23.1971 12.9334 23.6 13.3363 23.6 13.8334H25.6C25.6 12.2318 24.3017 10.9334 22.7 10.9334V12.9334ZM24.4513 24.0981C23.6938 22.793 22.6068 21.7098 21.2991 20.9568L20.3011 22.69C21.3052 23.2682 22.1399 24.1 22.7216 25.1021L24.4513 24.0981ZM21.2991 20.9568C19.9914 20.2038 18.5088 19.8075 16.9998 19.8075V21.8075C18.1585 21.8075 19.2969 22.1118 20.3011 22.69L21.2991 20.9568ZM16.9998 19.8075C15.4908 19.8075 14.0082 20.2038 12.7005 20.9568L13.6985 22.69C14.7027 22.1118 15.8411 21.8075 16.9998 21.8075V19.8075ZM12.7005 20.9568C11.3928 21.7098 10.3058 22.793 9.54827 24.0981L11.278 25.1021C11.8597 24.1 12.6944 23.2682 13.6985 22.69L12.7005 20.9568Z" fill="white"/>
</svg>
