<svg width="366" height="168" viewBox="0 0 366 168" fill="none" xmlns="http://www.w3.org/2000/svg">
<path fill-rule="evenodd" clip-rule="evenodd" d="M5.99902 84.0569C5.99902 57.535 27.786 36 54.7589 36C81.7338 36 103.867 57.4213 103.867 83.9431C103.867 110.465 81.9636 132 54.9908 132C42.0795 132 30.2073 127.013 21.4452 118.852L42.0795 100.718C45.6534 103.438 50.1481 105.025 54.9908 105.025C66.7471 105.025 76.3162 95.6174 76.3162 84.0569C76.3162 72.4956 66.7471 63.0886 54.9908 63.0886C43.2322 63.0886 33.6652 72.4956 33.6652 84.0569C33.6652 88.0236 34.702 91.6505 36.6618 94.824L15.9114 112.959C9.68659 104.911 5.99902 94.9378 5.99902 84.0569ZM63.8711 96.0487C63.2841 95.387 63.4002 94.2838 64.1055 93.7325C67.3908 91.3061 69.2677 87.5566 69.1494 83.5862C69.1494 80.0573 67.6252 76.6382 64.9269 74.2126C64.2216 73.5504 64.2216 72.5578 64.9269 71.8963C65.6298 71.2349 66.6855 71.2349 67.3908 71.8963C70.7919 74.9842 72.6688 79.1748 72.6688 83.5862C72.6688 88.5492 70.4417 93.181 66.335 96.269C66.1009 96.4898 65.6298 96.6 65.2795 96.6C64.6925 96.6 64.2216 96.4898 63.8711 96.0487Z" fill="#2CB143"/>
<path fill-rule="evenodd" clip-rule="evenodd" d="M127.182 109.503V58.1863H135.926V80.9855H146.837C147.734 74.241 150.574 68.6695 155.282 64.1977C159.991 59.7991 165.446 57.5999 171.724 57.5999C178.226 57.5999 183.682 60.0191 187.942 64.7841C192.201 69.5492 194.369 75.5606 194.369 82.6715C194.369 90.369 191.903 96.8202 187.045 102.098C182.112 107.45 176.208 110.089 169.258 110.089C162.905 110.089 157.525 107.743 153.265 103.125C149.005 98.5064 146.763 92.7882 146.613 85.8239H135.926V109.503H127.182ZM155.582 81.9385C155.582 88.1696 157.077 93.4479 160.141 97.7732C163.205 102.098 166.942 104.298 171.426 104.298C175.536 104.298 178.899 102.538 181.515 99.0927C184.131 95.6473 185.401 91.1754 185.401 85.7504C185.401 79.5193 183.832 74.1677 180.768 69.8425C177.704 65.5172 173.892 63.3913 169.408 63.3913C165.298 63.3913 162.009 65.1507 159.468 68.5962C156.853 72.0417 155.582 76.5136 155.582 81.9385ZM234.727 74.3143H199.452V79.3726L212.904 79.0061V109.503H221.275V79.0061L234.727 79.3726V74.3143ZM247.655 93.3013C248.029 96.8202 249.374 99.4592 251.542 101.219C253.709 103.052 256.698 103.931 260.36 103.931C262.677 103.931 264.844 103.638 266.937 103.052C268.955 102.465 270.45 101.878 271.421 101.292L272.841 100.339V105.031C272.691 105.177 272.467 105.324 272.243 105.544C271.944 105.764 271.346 106.204 270.375 106.79C269.403 107.377 268.432 107.89 267.385 108.33C266.264 108.77 264.919 109.136 263.2 109.576C261.481 109.942 259.687 110.089 257.894 110.089C252.139 110.089 247.506 108.476 244.068 105.177C240.556 101.878 238.837 97.7732 238.837 92.7147C238.837 87.3632 240.78 82.8181 244.591 79.1526C248.403 75.5605 253.036 73.7278 258.641 73.7278C263.723 73.7278 267.609 75.3406 270.3 78.5662C272.916 81.7919 274.261 86.2635 274.261 92.055L272.019 93.3013H247.655ZM257.519 79.153C254.903 79.153 252.661 80.0327 250.942 81.7189C249.224 83.4049 248.103 85.7509 247.729 88.6832H266.562C265.591 82.3052 262.526 79.153 257.519 79.153ZM290.778 74.3143H283.23V109.503H291.6V94.1811L294.739 93.668L307.219 109.503H316.636L301.166 89.636L314.469 74.3143H307.668L295.112 88.976L291.6 89.4894V76.147L290.778 74.3143ZM351.386 85.2373V101.805C351.386 103.565 352.133 104.444 353.703 104.444C354.226 104.444 354.898 104.298 355.571 104.078C356.244 103.858 356.841 103.711 357.215 103.491L357.888 103.125V107.523C355.721 109.209 352.955 110.089 349.592 110.089C345.93 110.089 343.763 108.623 343.165 105.691C340.026 108.623 336.14 110.089 331.506 110.089C328.069 110.089 325.453 109.209 323.734 107.523C322.015 105.837 321.118 103.784 321.118 101.292C321.118 99.7525 321.492 98.3595 322.165 97.1135C322.837 95.8671 323.734 94.7675 324.855 93.8879C325.901 93.0815 327.172 92.2751 328.667 91.6153C330.161 90.9555 331.581 90.4422 332.926 90.0757C334.197 89.7092 335.617 89.4159 337.186 89.1227C338.756 88.9028 339.877 88.6827 340.699 88.6095C341.521 88.5363 342.268 88.5363 343.016 88.4629V86.7769C343.016 84.5043 342.268 82.7449 340.773 81.4252C339.204 80.179 336.962 79.5192 333.973 79.5192C332.03 79.5192 330.161 79.8124 328.442 80.3256C326.649 80.9121 325.378 81.4986 324.556 82.0851L323.36 82.8915V78.4196C323.51 78.273 323.734 78.1263 323.958 77.9064C324.182 77.6865 324.78 77.3199 325.752 76.8068C326.649 76.2936 327.62 75.7804 328.667 75.3406C329.713 74.974 331.058 74.6075 332.702 74.241C334.346 73.8744 336.065 73.7278 337.859 73.7278C342.418 73.7278 345.781 74.7541 348.023 76.7334C350.265 78.7128 351.386 81.5718 351.386 85.2373ZM329.563 99.8257C329.563 101.218 330.086 102.392 331.207 103.271C332.328 104.224 333.748 104.664 335.617 104.664C338.233 104.664 340.699 103.711 343.015 101.878V92.5681C341.969 92.6413 340.848 92.7147 339.727 92.9346C338.531 93.1544 337.111 93.4477 335.392 93.8876C333.674 94.4007 332.328 95.1339 331.207 96.1602C330.086 97.1864 329.563 98.4327 329.563 99.8257Z" fill="#212121"/>
</svg>
