<svg width="366" height="168" viewBox="0 0 366 168" fill="none" xmlns="http://www.w3.org/2000/svg">
<path d="M59.3587 71.6218H60.6337C64.9443 71.6218 68.4457 75.121 68.4457 79.4291V89.0164C68.4457 93.3247 64.9443 96.8237 60.6337 96.8237H50.3931C47.9646 96.8237 46.811 98.0575 46.811 100.404V110.638C46.811 114.946 43.3099 118.446 38.9991 118.446H29.4062C25.0954 118.446 21.5942 114.946 21.5942 110.638C21.5942 110.638 21.5942 102.973 21.5942 100.404C21.5942 97.8553 20.3394 96.8237 17.9918 96.8237H7.81195C3.5012 96.8035 0 93.3044 0 88.9961V79.4089C0 75.1008 3.5012 71.6017 7.81195 71.6017H18.0322C20.2989 71.6017 21.6347 70.3273 21.6347 67.961V57.8074C21.6347 53.4991 25.1359 50 29.4466 50H39.0395C43.3503 50 46.8515 53.4991 46.8515 57.8074V67.981C46.8515 70.469 47.7621 71.6218 50.3729 71.6218H52.174L46.9122 78.8022C42.8847 78.4785 39.6668 75.1008 39.6668 70.9949V60.8008C39.6668 58.313 38.7158 57.1803 36.0443 57.1803H32.4014C30.1346 57.1803 28.8191 58.394 28.8191 60.8008V70.9949C28.8191 75.3029 25.318 78.8022 21.0072 78.8022H10.8072C8.17623 78.8022 7.18457 80.5214 7.18457 82.443V86.0432C7.18457 88.2074 8.50004 89.6435 10.7667 89.6435H21.0072C25.318 89.6435 28.8191 93.1425 28.8191 97.4508V107.665C28.8191 109.971 29.9728 111.265 32.361 111.265H36.024C38.2906 111.265 39.6466 109.89 39.6466 107.624V97.4508C39.6466 93.1425 43.1478 89.6435 47.4585 89.6435H57.6992C60.1681 89.6435 61.2813 88.3895 61.2813 86.0027V82.4025C61.2813 79.9348 59.986 78.8022 57.6182 78.8022H54.0966L59.3587 71.6218Z" fill="url(#paint0_linear_1158_1159)"/>
<path d="M149.048 64.4096L165.351 104.036H157.822L154.03 94.6379H135.858L132.121 104.036H124.938L141.007 64.4096H149.048ZM138.405 88.1327H151.428L144.923 71.8836L138.405 88.1327Z" fill="#8168F0"/>
<path d="M178.028 70.9285V104.036H170.956V64.4096H206.221V104.036H199.148V70.9285H178.028Z" fill="#8168F0"/>
<path d="M245.709 70.9283H232.354V104.036H225.282V70.9283H212.147V64.4231H245.709V70.9283Z" fill="#8168F0"/>
<path d="M276.96 86.887H258.733V97.5307H279.672V104.036H251.661V64.4096H279.05V70.9148H258.733V80.3681H276.96V86.887Z" fill="#8168F0"/>
<path d="M118.962 86.887H100.734V97.5307H121.674V104.036H93.6623V64.4096H121.052V70.9148H100.734V80.3681H118.962V86.887Z" fill="#8168F0"/>
<path d="M295.169 104.036H288.097V64.4096H295.169V81.0463H301.109L313.84 64.4096H322.45L307.336 83.2607L324.884 104.036H315.833L301.453 86.887H295.169V104.036Z" fill="#8168F0"/>
<path d="M349.697 64.4096L366 104.036H358.471L354.679 94.6379H336.508L332.77 104.036H325.587L341.657 64.4096H349.697ZM339.053 88.1327H352.077L345.573 71.8836L339.053 88.1327Z" fill="#8168F0"/>
<defs>
<linearGradient id="paint0_linear_1158_1159" x1="102.815" y1="110.169" x2="110.429" y2="39.6104" gradientUnits="userSpaceOnUse">
<stop stop-color="#8168F0"/>
<stop offset="0.137" stop-color="#7F6DF0"/>
<stop offset="0.2924" stop-color="#787AF0"/>
<stop offset="0.4568" stop-color="#6C91F1"/>
<stop offset="0.6273" stop-color="#5DB1F1"/>
<stop offset="0.8012" stop-color="#48D9F2"/>
<stop offset="0.8195" stop-color="#46DEF2"/>
<stop offset="1" stop-color="#50E3C2"/>
</linearGradient>
</defs>
</svg>
