<svg width="72" height="72" viewBox="0 0 72 72" fill="none" xmlns="http://www.w3.org/2000/svg">
<path fill-rule="evenodd" clip-rule="evenodd" d="M21.5 3.75C22.7426 3.75 23.75 4.75736 23.75 6V8.75H49.25V6C49.25 4.75736 50.2574 3.75 51.5 3.75C52.7426 3.75 53.75 4.75736 53.75 6V8.75H61.5C64.1234 8.75 66.25 10.8766 66.25 13.5V63.5C66.25 66.1234 64.1234 68.25 61.5 68.25H11.5C8.87665 68.25 6.75 66.1234 6.75 63.5V13.5C6.75 10.8766 8.87665 8.75 11.5 8.75H19.25V6C19.25 4.75736 20.2574 3.75 21.5 3.75ZM19.25 13.25H11.5C11.3619 13.25 11.25 13.3619 11.25 13.5V23.75H61.75V13.5C61.75 13.3619 61.6381 13.25 61.5 13.25H53.75V16C53.75 17.2426 52.7426 18.25 51.5 18.25C50.2574 18.25 49.25 17.2426 49.25 16V13.25H23.75V16C23.75 17.2426 22.7426 18.25 21.5 18.25C20.2574 18.25 19.25 17.2426 19.25 16V13.25ZM61.75 28.25H11.25V63.5C11.25 63.6381 11.3619 63.75 11.5 63.75H61.5C61.6381 63.75 61.75 63.6381 61.75 63.5V28.25ZM49.3876 36.9571C50.2398 37.8615 50.1974 39.2855 49.2929 40.1376L34.6992 53.8876C33.8304 54.7061 32.4737 54.7038 31.6078 53.8824L23.7015 46.3824C22.8 45.5272 22.7624 44.103 23.6176 43.2015C24.4728 42.3 25.897 42.2624 26.7985 43.1176L33.1615 49.1537L46.2071 36.8624C47.1115 36.0102 48.5355 36.0526 49.3876 36.9571Z" fill="#565E71"/>
</svg>
