<svg width="72" height="72" viewBox="0 0 72 72" fill="none" xmlns="http://www.w3.org/2000/svg">
<path fill-rule="evenodd" clip-rule="evenodd" d="M36 8.25C20.6741 8.25 8.25 20.6741 8.25 36C8.25 43.1907 10.985 49.7425 15.4714 54.6722C17.4429 51.7448 20.0248 49.2627 23.0527 47.4041C24.3816 46.5884 25.7787 45.9041 27.2241 45.3563C23.5994 42.669 21.25 38.3588 21.25 33.5C21.25 25.3538 27.8538 18.75 36 18.75C44.1462 18.75 50.75 25.3538 50.75 33.5C50.75 38.3588 48.4006 42.669 44.7759 45.3564C46.2213 45.9041 47.6182 46.5885 48.9471 47.4041C51.9751 49.2627 54.557 51.7448 56.5285 54.6722C61.015 49.7426 63.75 43.1907 63.75 36C63.75 20.6741 51.3259 8.25 36 8.25ZM57.6877 59.8689C64.1764 53.9696 68.25 45.4605 68.25 36C68.25 18.1888 53.8112 3.75 36 3.75C18.1888 3.75 3.75 18.1888 3.75 36C3.75 45.46 7.82316 53.9687 14.3114 59.868C14.3875 59.9476 14.4701 60.0221 14.5589 60.0907C20.2574 65.1661 27.7686 68.25 36 68.25C44.2318 68.25 51.7433 65.1658 57.4419 60.09C57.53 60.0218 57.612 59.9478 57.6877 59.8689ZM53.1866 57.7887C51.5305 55.1308 49.2758 52.8859 46.5931 51.2393C43.4068 49.2835 39.7404 48.25 36 48.25C32.2595 48.25 28.5931 49.2835 25.4068 51.2393C22.7241 52.8859 20.4694 55.1307 18.8133 57.7886C23.5396 61.5218 29.5096 63.75 36 63.75C42.4904 63.75 48.4603 61.5218 53.1866 57.7887ZM36 23.25C30.3391 23.25 25.75 27.8391 25.75 33.5C25.75 39.1609 30.3391 43.75 36 43.75C41.6609 43.75 46.25 39.1609 46.25 33.5C46.25 27.8391 41.6609 23.25 36 23.25Z" fill="#565E71"/>
</svg>
