<svg width="72" height="72" viewBox="0 0 72 72" fill="none" xmlns="http://www.w3.org/2000/svg">
<path fill-rule="evenodd" clip-rule="evenodd" d="M35.9999 8.25C43.3596 8.25 50.4179 11.1736 55.622 16.3778C60.8261 21.5819 63.7498 28.6402 63.7498 35.9999V63.5187C63.7502 63.5492 63.7447 63.5795 63.7332 63.6077C63.7217 63.6359 63.7047 63.6616 63.6831 63.6831C63.6616 63.7047 63.6359 63.7217 63.6077 63.7332C63.5795 63.7447 63.5492 63.7504 63.5187 63.75L63.4889 63.7496L35.9999 63.7498C32.3557 63.7498 28.7472 63.032 25.3805 61.6374C22.0137 60.2429 18.9546 58.1988 16.3778 55.622C13.8009 53.0452 11.7569 49.9861 10.3623 46.6193C8.96777 43.2525 8.25 39.6441 8.25 35.9999C8.25 32.3557 8.96777 28.7472 10.3623 25.3805C11.7569 22.0137 13.8009 18.9546 16.3778 16.3778C18.9546 13.8009 22.0137 11.7569 25.3805 10.3623C28.7472 8.96777 32.3557 8.25 35.9999 8.25ZM58.804 13.1958C52.756 7.14775 44.5531 3.75 35.9999 3.75C31.7648 3.75 27.5711 4.58417 23.6584 6.20488C19.7457 7.82559 16.1905 10.2011 13.1958 13.1958C10.2011 16.1905 7.82558 19.7457 6.20488 23.6584C4.58417 27.5711 3.75 31.7648 3.75 35.9999C3.75 40.235 4.58417 44.4287 6.20488 48.3414C7.82558 52.2541 10.2011 55.8093 13.1958 58.804C16.1905 61.7987 19.7457 64.1742 23.6584 65.7949C27.5711 67.4156 31.7648 68.2498 35.9999 68.2498H63.4767C64.1022 68.2557 64.7227 68.1375 65.3022 67.902C65.8872 67.6642 66.4186 67.3116 66.8651 66.8651C67.3116 66.4186 67.6642 65.8872 67.902 65.3022C68.1376 64.7226 68.2558 64.102 68.2498 63.4764V35.9999C68.2498 27.4467 64.852 19.2438 58.804 13.1958ZM48.6845 32.0869C48.6845 30.8442 47.6772 29.8369 46.4345 29.8369H26.8694C25.6267 29.8369 24.6194 30.8442 24.6194 32.0869C24.6194 33.3295 25.6267 34.3369 26.8694 34.3369H46.4345C47.6772 34.3369 48.6845 33.3295 48.6845 32.0869ZM48.6845 42.5216C48.6845 41.279 47.6772 40.2716 46.4345 40.2716H26.8694C25.6267 40.2716 24.6194 41.279 24.6194 42.5216C24.6194 43.7642 25.6267 44.7716 26.8694 44.7716H46.4345C47.6772 44.7716 48.6845 43.7642 48.6845 42.5216Z" fill="#565E71"/>
</svg>
