<svg width="118" height="32" viewBox="0 0 118 32" fill="none" xmlns="http://www.w3.org/2000/svg">
<path fill-rule="evenodd" clip-rule="evenodd" d="M0.101318 16.019C0.101318 7.17832 7.36365 0 16.3546 0C25.3463 0 32.7238 7.14043 32.7238 15.981C32.7238 24.8217 25.4228 32 16.4319 32C12.1281 32 8.17075 30.3377 5.25004 27.6174L12.1281 21.5726C13.3194 22.4793 14.8177 23.0082 16.4319 23.0082C20.3507 23.0082 23.5404 19.8725 23.5404 16.019C23.5404 12.1652 20.3507 9.02952 16.4319 9.02952C12.5124 9.02952 9.32338 12.1652 9.32338 16.019C9.32338 17.3412 9.66899 18.5502 10.3223 19.608L3.40546 25.653C1.33051 22.9705 0.101318 19.6459 0.101318 16.019ZM19.392 20.0162C19.1964 19.7957 19.2351 19.4279 19.4701 19.2442C20.5652 18.4354 21.1909 17.1855 21.1514 15.8621C21.1514 14.6858 20.6434 13.5461 19.7439 12.7375C19.5088 12.5168 19.5088 12.1859 19.7439 11.9654C19.9782 11.745 20.3301 11.745 20.5652 11.9654C21.699 12.9947 22.3246 14.3916 22.3246 15.8621C22.3246 17.5164 21.5822 19.0603 20.2133 20.0897C20.1353 20.1633 19.9782 20.2 19.8615 20.2C19.6658 20.2 19.5088 20.1633 19.392 20.0162Z" fill="#2CB143"/>
<path fill-rule="evenodd" clip-rule="evenodd" d="M40.4956 24.5009V7.39544H43.4103V14.9952H47.0474C47.3463 12.747 48.2929 10.8898 49.8624 9.39922C51.4318 7.93304 53.2503 7.19995 55.3429 7.19995C57.5102 7.19995 59.3288 8.00635 60.7488 9.59471C62.1687 11.1831 62.8912 13.1869 62.8912 15.5572C62.8912 18.123 62.0691 20.2734 60.4498 22.0328C58.8057 23.8167 56.8377 24.6964 54.5209 24.6964C52.4033 24.6964 50.6097 23.9144 49.1898 22.3749C47.7698 20.8355 47.0225 18.9294 46.9726 16.608H43.4103V24.5009H40.4956ZM49.9623 15.3128C49.9623 17.3899 50.4605 19.1493 51.4819 20.5911C52.5033 22.0328 53.7489 22.7659 55.2435 22.7659C56.6136 22.7659 57.7347 22.1795 58.6066 21.0309C59.4785 19.8824 59.902 18.3918 59.902 16.5835C59.902 14.5064 59.3789 12.7226 58.3575 11.2808C57.3361 9.83907 56.0657 9.13042 54.5709 9.13042C53.2008 9.13042 52.1047 9.7169 51.2577 10.8654C50.3858 12.0139 49.9623 13.5045 49.9623 15.3128ZM76.3438 12.7714H64.5856V14.4575L69.0696 14.3354V24.5009H71.8597V14.3354L76.3438 14.4575V12.7714ZM80.6533 19.1004C80.7779 20.2734 81.2263 21.1531 81.9487 21.7396C82.6712 22.3505 83.6676 22.6437 84.8883 22.6437C85.6606 22.6437 86.383 22.546 87.0805 22.3505C87.7531 22.155 88.2514 21.9595 88.5752 21.764L89.0486 21.4464V23.0103C88.9987 23.0592 88.924 23.108 88.8493 23.1813C88.7496 23.2546 88.5503 23.4012 88.2264 23.5968C87.9026 23.7922 87.5788 23.9633 87.23 24.1099C86.8563 24.2565 86.4079 24.3787 85.8349 24.5253C85.262 24.6475 84.6641 24.6964 84.0662 24.6964C82.148 24.6964 80.6035 24.1588 79.4575 23.0592C78.2867 21.9595 77.7138 20.5911 77.7138 18.9049C77.7138 17.1211 78.3615 15.606 79.632 14.3842C80.9024 13.1868 82.447 12.5759 84.3154 12.5759C86.0094 12.5759 87.3047 13.1135 88.2016 14.1887C89.0734 15.264 89.5219 16.7545 89.5219 18.685L88.7745 19.1004H80.6533ZM83.9412 14.3843C83.0694 14.3843 82.322 14.6776 81.749 15.2396C81.1761 15.8016 80.8024 16.5836 80.6779 17.5611H86.9556C86.6318 15.4351 85.6103 14.3843 83.9412 14.3843ZM95.0274 12.7714H92.5114V24.5009H95.3015V19.3937L96.3478 19.2227L100.508 24.5009H103.647L98.4902 17.8787L102.924 12.7714H100.658L96.4723 17.6587L95.3015 17.8298V13.3823L95.0274 12.7714ZM115.23 16.4124V21.9351C115.23 22.5216 115.479 22.8148 116.002 22.8148C116.177 22.8148 116.401 22.7659 116.625 22.6926C116.849 22.6193 117.049 22.5704 117.173 22.4971L117.397 22.3749V23.8411C116.675 24.4032 115.753 24.6964 114.632 24.6964C113.412 24.6964 112.689 24.2076 112.49 23.2302C111.444 24.2076 110.148 24.6964 108.604 24.6964C107.458 24.6964 106.586 24.4032 106.013 23.8411C105.44 23.2791 105.141 22.5948 105.141 21.764C105.141 21.2508 105.266 20.7865 105.49 20.3712C105.714 19.9557 106.013 19.5892 106.387 19.296C106.735 19.0272 107.159 18.7584 107.657 18.5384C108.155 18.3185 108.629 18.1474 109.077 18.0252C109.501 17.9031 109.974 17.8053 110.497 17.7076C111.02 17.6343 111.394 17.5609 111.668 17.5365C111.942 17.5121 112.191 17.5121 112.44 17.4876V16.9256C112.44 16.1681 112.191 15.5816 111.693 15.1417C111.17 14.7263 110.422 14.5064 109.426 14.5064C108.778 14.5064 108.155 14.6041 107.582 14.7752C106.984 14.9707 106.561 15.1662 106.287 15.3617L105.888 15.6305V14.1399C105.938 14.091 106.013 14.0421 106.088 13.9688C106.162 13.8955 106.362 13.7733 106.686 13.6023C106.984 13.4312 107.308 13.2601 107.657 13.1135C108.006 12.9913 108.454 12.8692 109.002 12.747C109.55 12.6248 110.123 12.5759 110.721 12.5759C112.241 12.5759 113.362 12.918 114.109 13.5778C114.857 14.2376 115.23 15.1906 115.23 16.4124ZM107.956 21.2752C107.956 21.7395 108.13 22.1305 108.504 22.4237C108.878 22.7414 109.351 22.888 109.974 22.888C110.846 22.888 111.668 22.5704 112.44 21.9594V18.856C112.091 18.8804 111.718 18.9049 111.344 18.9782C110.945 19.0515 110.472 19.1492 109.899 19.2959C109.326 19.4669 108.878 19.7113 108.504 20.0534C108.13 20.3955 107.956 20.8109 107.956 21.2752Z" fill="#212121"/>
</svg>
