<svg width="374" height="238" viewBox="0 0 374 238" fill="none" xmlns="http://www.w3.org/2000/svg">
<g filter="url(#filter0_f_306_688)">
<path d="M99.0604 180.25H103.06V180.246L99.0604 180.25ZM266.848 204.556L270.173 206.78L266.848 204.556ZM274.228 180.25H278.228V180.25L274.228 180.25ZM116.573 175.875V171.875L116.562 171.875L116.573 175.875ZM99.0562 73.8281L100.378 77.6035C101.982 77.042 103.056 75.5279 103.056 73.8281H99.0562ZM142.848 14V10V14ZM256.711 175.875L256.722 171.875H256.711V175.875ZM274.228 73.8281H270.228C270.228 75.5279 271.302 77.042 272.907 77.6035L274.228 73.8281ZM142.852 79.625H138.852H142.852ZM15.4594 182.443L19.3215 181.401L15.4594 182.443ZM358.541 90.1268L354.678 91.168L358.541 90.1268ZM190.644 171.5V66.5H182.644V171.5H190.644ZM142.852 140.5C150.723 140.5 158.417 142.832 164.961 147.2L169.403 140.546C161.543 135.3 152.304 132.5 142.852 132.5V140.5ZM164.961 147.2C171.505 151.568 176.605 157.777 179.616 165.04L187.006 161.976C183.388 153.25 177.262 145.793 169.403 140.546L164.961 147.2ZM179.616 165.04C182.627 172.302 183.415 180.294 181.88 188.004L189.726 189.566C191.57 180.303 190.624 170.701 187.006 161.976L179.616 165.04ZM181.88 188.004C180.345 195.714 176.556 202.797 170.991 208.356L176.645 214.016C183.329 207.338 187.881 198.83 189.726 189.566L181.88 188.004ZM170.991 208.356C165.426 213.916 158.336 217.702 150.616 219.236L152.175 227.083C161.445 225.24 169.961 220.693 176.645 214.016L170.991 208.356ZM150.616 219.236C142.896 220.77 134.895 219.983 127.623 216.974L124.564 224.366C133.297 227.979 142.905 228.925 152.175 227.083L150.616 219.236ZM127.623 216.974C120.352 213.965 114.138 208.869 109.766 202.332L103.116 206.78C108.368 214.632 115.832 220.752 124.564 224.366L127.623 216.974ZM109.766 202.332C105.394 195.796 103.06 188.111 103.06 180.25H95.0604C95.0604 189.695 97.8639 198.927 103.116 206.78L109.766 202.332ZM103.06 180.246L103.056 175.871L95.0562 175.879L95.0604 180.254L103.06 180.246ZM230.436 132.5C220.985 132.5 211.745 135.3 203.886 140.546L208.328 147.2C214.871 142.832 222.565 140.5 230.436 140.5V132.5ZM203.886 140.546C196.027 145.793 189.9 153.25 186.283 161.976L193.673 165.04C196.684 157.777 201.784 151.568 208.328 147.2L203.886 140.546ZM186.283 161.976C182.665 170.701 181.718 180.303 183.563 189.566L191.409 188.004C189.874 180.294 190.661 172.302 193.673 165.04L186.283 161.976ZM183.563 189.566C185.407 198.83 189.959 207.338 196.644 214.016L202.298 208.356C196.733 202.797 192.944 195.714 191.409 188.004L183.563 189.566ZM196.644 214.016C203.328 220.693 211.843 225.24 221.113 227.083L222.672 219.236C214.953 217.702 207.862 213.916 202.298 208.356L196.644 214.016ZM221.113 227.083C230.383 228.925 239.992 227.979 248.724 224.366L245.665 216.974C238.394 219.983 230.392 220.77 222.672 219.236L221.113 227.083ZM248.724 224.366C257.457 220.752 264.921 214.632 270.173 206.78L263.523 202.332C259.151 208.869 252.937 213.965 245.665 216.974L248.724 224.366ZM270.173 206.78C275.425 198.927 278.228 189.695 278.228 180.25H270.228C270.228 188.111 267.895 195.796 263.523 202.332L270.173 206.78ZM278.228 180.25L278.228 175.875L270.228 175.875L270.228 180.25L278.228 180.25ZM125.331 171.875H116.573V179.875H125.331V171.875ZM116.562 171.875C105.085 171.906 93.9691 167.874 85.1856 160.496L80.04 166.621C90.271 175.216 103.218 179.911 116.584 179.875L116.562 171.875ZM85.1856 160.496C76.4021 153.118 70.5194 142.87 68.58 131.572L60.6954 132.926C62.955 146.089 69.8088 158.027 80.04 166.621L85.1856 160.496ZM68.58 131.572C66.6407 120.274 68.7698 108.655 74.5903 98.7753L67.6976 94.7145C60.9167 106.224 58.4357 119.762 60.6954 132.926L68.58 131.572ZM74.5903 98.7753C80.4108 88.8958 89.5466 81.3946 100.378 77.6035L97.7347 70.0527C85.1204 74.468 74.4784 83.2049 67.6976 94.7145L74.5903 98.7753ZM103.056 73.8281V57.75H95.0562V73.8281H103.056ZM103.056 57.75C103.056 47.2089 107.248 37.0987 114.71 29.6439L109.055 23.9843C100.092 32.9389 95.0562 45.0847 95.0562 57.75H103.056ZM114.71 29.6439C122.172 22.1889 132.293 18 142.848 18V10C130.174 10 118.018 15.0299 109.055 23.9843L114.71 29.6439ZM142.848 18C153.403 18 163.524 22.1889 170.987 29.6439L176.641 23.9843C167.678 15.0299 155.522 10 142.848 10V18ZM170.987 29.6439C178.449 37.0987 182.64 47.2089 182.64 57.75H190.64C190.64 45.0847 185.604 32.9389 176.641 23.9843L170.987 29.6439ZM182.64 57.75V180.25H190.64V57.75H182.64ZM247.953 179.875H256.711V171.875H247.953V179.875ZM256.701 179.875C270.066 179.911 283.013 175.216 293.244 166.621L288.099 160.496C279.315 167.874 268.199 171.906 256.722 171.875L256.701 179.875ZM293.244 166.621C303.475 158.027 310.329 146.089 312.589 132.926L304.704 131.572C302.765 142.87 296.882 153.118 288.099 160.496L293.244 166.621ZM312.589 132.926C314.849 119.762 312.368 106.224 305.587 94.7145L298.694 98.7753C304.514 108.655 306.644 120.274 304.704 131.572L312.589 132.926ZM305.587 94.7145C298.806 83.2049 288.164 74.468 275.55 70.0527L272.907 77.6035C283.738 81.3946 292.874 88.8958 298.694 98.7753L305.587 94.7145ZM278.228 73.8281V57.75H270.228V73.8281H278.228ZM278.228 57.75C278.228 45.0847 273.192 32.9389 264.229 23.9843L258.575 29.6439C266.037 37.0987 270.228 47.2089 270.228 57.75H278.228ZM264.229 23.9843C255.266 15.0299 243.11 10 230.436 10V18C240.991 18 251.113 22.1889 258.575 29.6439L264.229 23.9843ZM230.436 10C217.762 10 205.607 15.0299 196.644 23.9843L202.298 29.6439C209.76 22.1889 219.881 18 230.436 18V10ZM196.644 23.9843C187.681 32.9382 182.64 45.0837 182.64 57.75H190.64C190.64 47.2099 194.835 37.0994 202.298 29.6439L196.644 23.9843ZM138.852 70.875V79.625H146.852V70.875H138.852ZM138.852 79.625C138.852 86.6851 136.045 93.4569 131.047 98.4503L136.701 104.11C143.2 97.6168 146.852 88.8093 146.852 79.625H138.852ZM131.047 98.4503C126.048 103.444 119.268 106.25 112.198 106.25V114.25C121.388 114.25 130.202 110.603 136.701 104.11L131.047 98.4503ZM226.436 70.875V79.625H234.436V70.875H226.436ZM226.436 79.625C226.436 88.8093 230.088 97.6168 236.588 104.11L242.242 98.4503C237.243 93.4569 234.436 86.6851 234.436 79.625H226.436ZM236.588 104.11C243.087 110.603 251.901 114.25 261.091 114.25V106.25C254.02 106.25 247.24 103.444 242.242 98.4503L236.588 104.11ZM19.3215 181.401C18.0498 176.684 20.5061 170.023 28.9431 161.534C37.1535 153.274 50.061 144.302 66.7756 135.305L62.9839 128.261C45.9426 137.433 32.2665 146.842 23.2691 155.895C14.4982 164.719 9.12223 174.303 11.5973 183.484L19.3215 181.401ZM186.176 181.806C141.672 192.876 100.757 198.098 70.2899 197.564C55.0273 197.297 42.6232 195.588 33.763 192.588C24.7298 189.53 20.4318 185.52 19.3215 181.401L11.5973 183.484C13.7775 191.571 21.4022 196.85 31.1978 200.166C41.1664 203.54 54.4973 205.289 70.1498 205.563C101.513 206.113 143.149 200.752 188.107 189.57L186.176 181.806ZM275.276 75.9533C298.395 74.1779 317.81 74.8192 331.829 77.7381C338.845 79.1987 344.296 81.1873 348.147 83.5703C351.976 85.9389 353.965 88.5234 354.678 91.168L362.403 89.0856C361.001 83.8877 357.313 79.8334 352.357 76.7671C347.424 73.7151 340.984 71.4725 333.46 69.906C318.401 66.7706 298.146 66.1735 274.664 67.9768L275.276 75.9533ZM354.678 91.168C355.993 96.0422 353.316 102.98 344.278 111.807C335.498 120.383 321.756 129.68 304.055 138.947L307.765 146.034C325.793 136.596 340.298 126.877 349.867 117.53C359.179 108.436 364.953 98.5441 362.403 89.0856L354.678 91.168Z" fill="url(#paint0_linear_306_688)"/>
</g>
<g filter="url(#filter1_f_306_688)">
<path d="M99.0604 180.25H102.06V180.247L99.0604 180.25ZM266.848 204.556L269.342 206.224L266.848 204.556ZM274.228 180.25H277.228V180.25L274.228 180.25ZM116.573 175.875V172.875L116.565 172.875L116.573 175.875ZM99.0562 73.8281L100.047 76.6597C101.251 76.2385 102.056 75.1029 102.056 73.8281H99.0562ZM142.848 14V11V14ZM256.711 175.875L256.719 172.875H256.711V175.875ZM274.228 73.8281H271.228C271.228 75.1029 272.034 76.2385 273.237 76.6597L274.228 73.8281ZM142.852 79.625H139.852H142.852ZM15.4594 182.443L18.356 181.662L15.4594 182.443ZM358.541 90.1268L355.644 90.9077L358.541 90.1268ZM189.644 171.5V66.5H183.644V171.5H189.644ZM142.852 139.5C150.921 139.5 158.808 141.89 165.516 146.368L168.847 141.378C161.153 136.241 152.106 133.5 142.852 133.5V139.5ZM165.516 146.368C172.224 150.846 177.452 157.211 180.54 164.657L186.082 162.359C182.54 153.816 176.542 146.515 168.847 141.378L165.516 146.368ZM180.54 164.657C183.627 172.102 184.434 180.295 182.861 188.199L188.745 189.371C190.551 180.302 189.624 170.901 186.082 162.359L180.54 164.657ZM182.861 188.199C181.287 196.104 177.402 203.364 171.698 209.064L175.938 213.308C182.482 206.77 186.939 198.44 188.745 189.371L182.861 188.199ZM171.698 209.064C165.993 214.763 158.724 218.644 150.811 220.217L151.98 226.102C161.057 224.298 169.394 219.846 175.938 213.308L171.698 209.064ZM150.811 220.217C142.898 221.789 134.695 220.982 127.241 217.898L124.947 223.442C133.497 226.98 142.904 227.905 151.98 226.102L150.811 220.217ZM127.241 217.898C119.787 214.813 113.416 209.59 108.934 202.888L103.947 206.224C109.089 213.912 116.397 219.904 124.947 223.442L127.241 217.898ZM108.934 202.888C104.452 196.187 102.06 188.309 102.06 180.25H96.0604C96.0604 189.497 98.8051 198.536 103.947 206.224L108.934 202.888ZM102.06 180.247L102.056 175.872L96.0562 175.878L96.0604 180.253L102.06 180.247ZM230.436 133.5C221.182 133.5 212.136 136.241 204.441 141.378L207.772 146.368C214.481 141.89 222.368 139.5 230.436 139.5V133.5ZM204.441 141.378C196.746 146.515 190.748 153.816 187.206 162.359L192.749 164.657C195.836 157.211 201.064 150.846 207.772 146.368L204.441 141.378ZM187.206 162.359C183.665 170.901 182.738 180.302 184.543 189.371L190.428 188.199C188.854 180.295 189.662 172.102 192.749 164.657L187.206 162.359ZM184.543 189.371C186.349 198.44 190.806 206.77 197.35 213.308L201.591 209.064C195.886 203.364 192.002 196.104 190.428 188.199L184.543 189.371ZM197.35 213.308C203.895 219.846 212.232 224.298 221.308 226.102L222.478 220.217C214.564 218.644 207.296 214.763 201.591 209.064L197.35 213.308ZM221.308 226.102C230.384 227.905 239.792 226.98 248.342 223.442L246.048 217.898C238.593 220.982 230.391 221.789 222.478 220.217L221.308 226.102ZM248.342 223.442C256.892 219.904 264.2 213.912 269.342 206.224L264.354 202.888C259.872 209.59 253.502 214.813 246.048 217.898L248.342 223.442ZM269.342 206.224C274.483 198.536 277.228 189.497 277.228 180.25H271.228C271.228 188.309 268.836 196.187 264.354 202.888L269.342 206.224ZM277.228 180.25L277.228 175.875L271.228 175.875L271.228 180.25L277.228 180.25ZM125.331 172.875H116.573V178.875H125.331V172.875ZM116.565 172.875C104.852 172.906 93.5068 168.792 84.5424 161.261L80.6832 165.856C90.7333 174.298 103.451 178.91 116.581 178.875L116.565 172.875ZM84.5424 161.261C75.578 153.731 69.5738 143.273 67.5945 131.741L61.6809 132.756C63.9005 145.687 70.633 157.413 80.6832 165.856L84.5424 161.261ZM67.5945 131.741C65.6151 120.21 67.7882 108.351 73.7287 98.2677L68.5592 95.2221C61.8983 106.528 59.4614 119.826 61.6809 132.756L67.5945 131.741ZM73.7287 98.2677C79.6692 88.1844 88.9933 80.5288 100.047 76.6597L98.0651 70.9966C85.6736 75.3338 75.2199 83.9163 68.5592 95.2221L73.7287 98.2677ZM102.056 73.8281V57.75H96.0562V73.8281H102.056ZM102.056 57.75C102.056 46.9434 106.353 36.5787 114.003 28.9364L109.762 24.6917C100.987 33.4588 96.0562 45.3502 96.0562 57.75H102.056ZM114.003 28.9364C121.653 21.294 132.028 17 142.848 17V11C130.439 11 118.538 15.9247 109.762 24.6917L114.003 28.9364ZM142.848 17C153.668 17 164.044 21.294 171.693 28.9364L175.934 24.6917C167.159 15.9247 155.257 11 142.848 11V17ZM171.693 28.9364C179.343 36.5787 183.64 46.9434 183.64 57.75H189.64C189.64 45.3502 184.709 33.4588 175.934 24.6917L171.693 28.9364ZM183.64 57.75V180.25H189.64V57.75H183.64ZM247.953 178.875H256.711V172.875H247.953V178.875ZM256.703 178.875C269.833 178.91 282.551 174.298 292.601 165.856L288.742 161.261C279.777 168.792 268.432 172.906 256.719 172.875L256.703 178.875ZM292.601 165.856C302.651 157.413 309.384 145.687 311.603 132.756L305.69 131.741C303.71 143.273 297.706 153.731 288.742 161.261L292.601 165.856ZM311.603 132.756C313.823 119.826 311.386 106.528 304.725 95.2221L299.556 98.2677C305.496 108.351 307.669 120.21 305.69 131.741L311.603 132.756ZM304.725 95.2221C298.064 83.9163 287.611 75.3338 275.219 70.9966L273.237 76.6597C284.291 80.5288 293.615 88.1844 299.556 98.2677L304.725 95.2221ZM277.228 73.8281V57.75H271.228V73.8281H277.228ZM277.228 57.75C277.228 45.3502 272.298 33.4588 263.522 24.6917L259.281 28.9364C266.931 36.5787 271.228 46.9434 271.228 57.75H277.228ZM263.522 24.6917C254.747 15.9247 242.845 11 230.436 11V17C241.256 17 251.632 21.294 259.281 28.9364L263.522 24.6917ZM230.436 11C218.027 11 206.126 15.9247 197.35 24.6917L201.591 28.9364C209.241 21.294 219.617 17 230.436 17V11ZM197.35 24.6917C188.575 33.4583 183.64 45.3494 183.64 57.75H189.64C189.64 46.9441 193.941 36.5793 201.591 28.9364L197.35 24.6917ZM139.852 70.875V79.625H145.852V70.875H139.852ZM139.852 79.625C139.852 86.9507 136.939 93.9769 131.754 99.1578L135.994 103.402C142.306 97.0968 145.852 88.5438 145.852 79.625H139.852ZM131.754 99.1578C126.568 104.339 119.533 107.25 112.198 107.25V113.25C121.123 113.25 129.683 109.708 135.994 103.402L131.754 99.1578ZM227.436 70.875V79.625H233.436V70.875H227.436ZM227.436 79.625C227.436 88.5438 230.983 97.0968 237.294 103.402L241.535 99.1578C236.349 93.9769 233.436 86.9507 233.436 79.625H227.436ZM237.294 103.402C243.606 109.708 252.166 113.25 261.091 113.25V107.25C253.755 107.25 246.721 104.339 241.535 99.1578L237.294 103.402ZM18.356 181.662C16.9339 176.387 19.7551 169.36 28.2339 160.829C36.5426 152.47 49.5462 143.443 66.3017 134.425L63.4579 129.141C46.4574 138.292 32.8774 147.646 23.9783 156.6C15.2492 165.382 10.2382 174.601 12.5628 183.224L18.356 181.662ZM186.417 182.777C141.856 193.86 100.852 199.1 70.2724 198.564C54.961 198.296 42.4411 196.582 33.4423 193.535C24.3138 190.445 19.6 186.276 18.356 181.662L12.5628 183.224C14.6093 190.814 21.8181 195.935 31.5185 199.219C41.3485 202.546 54.5636 204.29 70.1673 204.563C101.418 205.111 142.964 199.768 187.866 188.599L186.417 182.777ZM275.2 74.9563C298.364 73.1774 317.884 73.8131 332.033 76.7591C339.112 78.2329 344.687 80.2533 348.674 82.7199C352.643 85.1757 354.845 87.944 355.644 90.9077L361.437 89.3459C360.122 84.4672 356.646 80.5966 351.83 77.6175C347.033 74.6491 340.716 72.4383 333.256 70.885C318.327 67.7767 298.177 67.1741 274.74 68.9739L275.2 74.9563ZM355.644 90.9077C357.113 96.355 354.049 103.662 344.976 112.523C336.098 121.195 322.26 130.544 304.518 139.833L307.301 145.148C325.288 135.732 339.698 126.065 349.169 116.815C358.446 107.754 363.833 98.2314 361.437 89.3459L355.644 90.9077Z" fill="url(#paint1_linear_306_688)"/>
</g>
<g filter="url(#filter2_f_306_688)">
<path d="M99.0604 180.25H102.06V180.247L99.0604 180.25ZM266.848 204.556L269.342 206.224L266.848 204.556ZM274.228 180.25H277.228V180.25L274.228 180.25ZM116.573 175.875V172.875L116.565 172.875L116.573 175.875ZM99.0562 73.8281L100.047 76.6597C101.251 76.2385 102.056 75.1029 102.056 73.8281H99.0562ZM142.848 14V11V14ZM256.711 175.875L256.719 172.875H256.711V175.875ZM274.228 73.8281H271.228C271.228 75.1029 272.034 76.2385 273.237 76.6597L274.228 73.8281ZM142.852 79.625H139.852H142.852ZM15.4594 182.443L18.356 181.662L15.4594 182.443ZM358.541 90.1268L355.644 90.9077L358.541 90.1268ZM189.644 171.5V66.5H183.644V171.5H189.644ZM142.852 139.5C150.921 139.5 158.808 141.89 165.516 146.368L168.847 141.378C161.153 136.241 152.106 133.5 142.852 133.5V139.5ZM165.516 146.368C172.224 150.846 177.452 157.211 180.54 164.657L186.082 162.359C182.54 153.816 176.542 146.515 168.847 141.378L165.516 146.368ZM180.54 164.657C183.627 172.102 184.434 180.295 182.861 188.199L188.745 189.371C190.551 180.302 189.624 170.901 186.082 162.359L180.54 164.657ZM182.861 188.199C181.287 196.104 177.402 203.364 171.698 209.064L175.938 213.308C182.482 206.77 186.939 198.44 188.745 189.371L182.861 188.199ZM171.698 209.064C165.993 214.763 158.724 218.644 150.811 220.217L151.98 226.102C161.057 224.298 169.394 219.846 175.938 213.308L171.698 209.064ZM150.811 220.217C142.898 221.789 134.695 220.982 127.241 217.898L124.947 223.442C133.497 226.98 142.904 227.905 151.98 226.102L150.811 220.217ZM127.241 217.898C119.787 214.813 113.416 209.59 108.934 202.888L103.947 206.224C109.089 213.912 116.397 219.904 124.947 223.442L127.241 217.898ZM108.934 202.888C104.452 196.187 102.06 188.309 102.06 180.25H96.0604C96.0604 189.497 98.8051 198.536 103.947 206.224L108.934 202.888ZM102.06 180.247L102.056 175.872L96.0562 175.878L96.0604 180.253L102.06 180.247ZM230.436 133.5C221.182 133.5 212.136 136.241 204.441 141.378L207.772 146.368C214.481 141.89 222.368 139.5 230.436 139.5V133.5ZM204.441 141.378C196.746 146.515 190.748 153.816 187.206 162.359L192.749 164.657C195.836 157.211 201.064 150.846 207.772 146.368L204.441 141.378ZM187.206 162.359C183.665 170.901 182.738 180.302 184.543 189.371L190.428 188.199C188.854 180.295 189.662 172.102 192.749 164.657L187.206 162.359ZM184.543 189.371C186.349 198.44 190.806 206.77 197.35 213.308L201.591 209.064C195.886 203.364 192.002 196.104 190.428 188.199L184.543 189.371ZM197.35 213.308C203.895 219.846 212.232 224.298 221.308 226.102L222.478 220.217C214.564 218.644 207.296 214.763 201.591 209.064L197.35 213.308ZM221.308 226.102C230.384 227.905 239.792 226.98 248.342 223.442L246.048 217.898C238.593 220.982 230.391 221.789 222.478 220.217L221.308 226.102ZM248.342 223.442C256.892 219.904 264.2 213.912 269.342 206.224L264.354 202.888C259.872 209.59 253.502 214.813 246.048 217.898L248.342 223.442ZM269.342 206.224C274.483 198.536 277.228 189.497 277.228 180.25H271.228C271.228 188.309 268.836 196.187 264.354 202.888L269.342 206.224ZM277.228 180.25L277.228 175.875L271.228 175.875L271.228 180.25L277.228 180.25ZM125.331 172.875H116.573V178.875H125.331V172.875ZM116.565 172.875C104.852 172.906 93.5068 168.792 84.5424 161.261L80.6832 165.856C90.7333 174.298 103.451 178.91 116.581 178.875L116.565 172.875ZM84.5424 161.261C75.578 153.731 69.5738 143.273 67.5945 131.741L61.6809 132.756C63.9005 145.687 70.633 157.413 80.6832 165.856L84.5424 161.261ZM67.5945 131.741C65.6151 120.21 67.7882 108.351 73.7287 98.2677L68.5592 95.2221C61.8983 106.528 59.4614 119.826 61.6809 132.756L67.5945 131.741ZM73.7287 98.2677C79.6692 88.1844 88.9933 80.5288 100.047 76.6597L98.0651 70.9966C85.6736 75.3338 75.2199 83.9163 68.5592 95.2221L73.7287 98.2677ZM102.056 73.8281V57.75H96.0562V73.8281H102.056ZM102.056 57.75C102.056 46.9434 106.353 36.5787 114.003 28.9364L109.762 24.6917C100.987 33.4588 96.0562 45.3502 96.0562 57.75H102.056ZM114.003 28.9364C121.653 21.294 132.028 17 142.848 17V11C130.439 11 118.538 15.9247 109.762 24.6917L114.003 28.9364ZM142.848 17C153.668 17 164.044 21.294 171.693 28.9364L175.934 24.6917C167.159 15.9247 155.257 11 142.848 11V17ZM171.693 28.9364C179.343 36.5787 183.64 46.9434 183.64 57.75H189.64C189.64 45.3502 184.709 33.4588 175.934 24.6917L171.693 28.9364ZM183.64 57.75V180.25H189.64V57.75H183.64ZM247.953 178.875H256.711V172.875H247.953V178.875ZM256.703 178.875C269.833 178.91 282.551 174.298 292.601 165.856L288.742 161.261C279.777 168.792 268.432 172.906 256.719 172.875L256.703 178.875ZM292.601 165.856C302.651 157.413 309.384 145.687 311.603 132.756L305.69 131.741C303.71 143.273 297.706 153.731 288.742 161.261L292.601 165.856ZM311.603 132.756C313.823 119.826 311.386 106.528 304.725 95.2221L299.556 98.2677C305.496 108.351 307.669 120.21 305.69 131.741L311.603 132.756ZM304.725 95.2221C298.064 83.9163 287.611 75.3338 275.219 70.9966L273.237 76.6597C284.291 80.5288 293.615 88.1844 299.556 98.2677L304.725 95.2221ZM277.228 73.8281V57.75H271.228V73.8281H277.228ZM277.228 57.75C277.228 45.3502 272.298 33.4588 263.522 24.6917L259.281 28.9364C266.931 36.5787 271.228 46.9434 271.228 57.75H277.228ZM263.522 24.6917C254.747 15.9247 242.845 11 230.436 11V17C241.256 17 251.632 21.294 259.281 28.9364L263.522 24.6917ZM230.436 11C218.027 11 206.126 15.9247 197.35 24.6917L201.591 28.9364C209.241 21.294 219.617 17 230.436 17V11ZM197.35 24.6917C188.575 33.4583 183.64 45.3494 183.64 57.75H189.64C189.64 46.9441 193.941 36.5793 201.591 28.9364L197.35 24.6917ZM139.852 70.875V79.625H145.852V70.875H139.852ZM139.852 79.625C139.852 86.9507 136.939 93.9769 131.754 99.1578L135.994 103.402C142.306 97.0968 145.852 88.5438 145.852 79.625H139.852ZM131.754 99.1578C126.568 104.339 119.533 107.25 112.198 107.25V113.25C121.123 113.25 129.683 109.708 135.994 103.402L131.754 99.1578ZM227.436 70.875V79.625H233.436V70.875H227.436ZM227.436 79.625C227.436 88.5438 230.983 97.0968 237.294 103.402L241.535 99.1578C236.349 93.9769 233.436 86.9507 233.436 79.625H227.436ZM237.294 103.402C243.606 109.708 252.166 113.25 261.091 113.25V107.25C253.755 107.25 246.721 104.339 241.535 99.1578L237.294 103.402ZM18.356 181.662C16.9339 176.387 19.7551 169.36 28.2339 160.829C36.5426 152.47 49.5462 143.443 66.3017 134.425L63.4579 129.141C46.4574 138.292 32.8774 147.646 23.9783 156.6C15.2492 165.382 10.2382 174.601 12.5628 183.224L18.356 181.662ZM186.417 182.777C141.856 193.86 100.852 199.1 70.2724 198.564C54.961 198.296 42.4411 196.582 33.4423 193.535C24.3138 190.445 19.6 186.276 18.356 181.662L12.5628 183.224C14.6093 190.814 21.8181 195.935 31.5185 199.219C41.3485 202.546 54.5636 204.29 70.1673 204.563C101.418 205.111 142.964 199.768 187.866 188.599L186.417 182.777ZM275.2 74.9563C298.364 73.1774 317.884 73.8131 332.033 76.7591C339.112 78.2329 344.687 80.2533 348.674 82.7199C352.643 85.1757 354.845 87.944 355.644 90.9077L361.437 89.3459C360.122 84.4672 356.646 80.5966 351.83 77.6175C347.033 74.6491 340.716 72.4383 333.256 70.885C318.327 67.7767 298.177 67.1741 274.74 68.9739L275.2 74.9563ZM355.644 90.9077C357.113 96.355 354.049 103.662 344.976 112.523C336.098 121.195 322.26 130.544 304.518 139.833L307.301 145.148C325.288 135.732 339.698 126.065 349.169 116.815C358.446 107.754 363.833 98.2314 361.437 89.3459L355.644 90.9077Z" fill="url(#paint2_linear_306_688)"/>
</g>
<path d="M99.0604 180.25H101.06V180.248L99.0604 180.25ZM266.848 204.556L268.51 205.668L266.848 204.556ZM274.228 180.25H276.228V180.25L274.228 180.25ZM116.573 175.875V173.875L116.568 173.875L116.573 175.875ZM99.0562 73.8281L99.7169 75.7158C100.519 75.435 101.056 74.678 101.056 73.8281H99.0562ZM142.848 14V12V14ZM256.711 175.875L256.717 173.875H256.711V175.875ZM274.228 73.8281H272.228C272.228 74.678 272.765 75.435 273.567 75.7158L274.228 73.8281ZM142.852 79.625H140.852H142.852ZM15.4594 182.443L17.3905 181.922L15.4594 182.443ZM358.541 90.1268L356.61 90.6474L358.541 90.1268ZM188.644 171.5V66.5H184.644V171.5H188.644ZM142.852 138.5C151.118 138.5 159.199 140.949 166.071 145.537L168.292 142.21C160.762 137.183 151.909 134.5 142.852 134.5V138.5ZM166.071 145.537C172.944 150.124 178.3 156.645 181.463 164.274L185.158 162.742C181.692 154.382 175.823 147.237 168.292 142.21L166.071 145.537ZM181.463 164.274C184.626 171.902 185.454 180.296 183.841 188.395L187.764 189.176C189.531 180.301 188.624 171.102 185.158 162.742L181.463 164.274ZM183.841 188.395C182.229 196.493 178.249 203.932 172.404 209.771L175.231 212.601C181.636 206.203 185.997 198.051 187.764 189.176L183.841 188.395ZM172.404 209.771C166.56 215.61 159.113 219.587 151.006 221.198L151.786 225.121C160.668 223.356 168.827 218.999 175.231 212.601L172.404 209.771ZM151.006 221.198C142.899 222.809 134.495 221.982 126.859 218.822L125.329 222.518C133.696 225.98 142.903 226.886 151.786 225.121L151.006 221.198ZM126.859 218.822C119.222 215.661 112.695 210.31 108.103 203.444L104.778 205.668C109.81 213.192 116.962 219.055 125.329 222.518L126.859 218.822ZM108.103 203.444C103.511 196.579 101.06 188.507 101.06 180.25H97.0604C97.0604 189.299 99.7463 198.144 104.778 205.668L108.103 203.444ZM101.06 180.248L101.056 175.873L97.0562 175.877L97.0604 180.252L101.06 180.248ZM230.436 134.5C221.38 134.5 212.527 137.183 204.996 142.21L207.217 145.537C214.09 140.949 222.17 138.5 230.436 138.5V134.5ZM204.996 142.21C197.466 147.237 191.596 154.382 188.13 162.742L191.825 164.274C194.988 156.645 200.344 150.124 207.217 145.537L204.996 142.21ZM188.13 162.742C184.664 171.102 183.757 180.301 185.524 189.176L189.447 188.395C187.835 180.296 188.662 171.902 191.825 164.274L188.13 162.742ZM185.524 189.176C187.291 198.051 191.653 206.203 198.057 212.601L200.884 209.771C195.04 203.932 191.06 196.493 189.447 188.395L185.524 189.176ZM198.057 212.601C204.461 218.999 212.621 223.356 221.503 225.121L222.283 221.198C214.175 219.587 206.729 215.61 200.884 209.771L198.057 212.601ZM221.503 225.121C230.385 226.886 239.592 225.98 247.959 222.518L246.43 218.822C238.793 221.982 230.39 222.809 222.283 221.198L221.503 225.121ZM247.959 222.518C256.327 219.055 263.478 213.192 268.51 205.668L265.185 203.444C260.593 210.31 254.067 215.661 246.43 218.822L247.959 222.518ZM268.51 205.668C273.542 198.144 276.228 189.299 276.228 180.25H272.228C272.228 188.507 269.777 196.579 265.185 203.444L268.51 205.668ZM276.228 180.25L276.228 175.875L272.228 175.875L272.228 180.25L276.228 180.25ZM125.331 173.875H116.573V177.875H125.331V173.875ZM116.568 173.875C104.618 173.907 93.0445 169.709 83.8992 162.027L81.3264 165.09C91.1955 173.38 103.685 177.91 116.578 177.875L116.568 173.875ZM83.8992 162.027C74.7538 154.345 68.6283 143.675 66.6089 131.91L62.6665 132.587C64.8461 145.285 71.4572 156.8 81.3264 165.09L83.8992 162.027ZM66.6089 131.91C64.5894 120.146 66.8066 108.047 72.8671 97.7601L69.4207 95.7297C62.88 106.832 60.487 119.89 62.6665 132.587L66.6089 131.91ZM72.8671 97.7601C78.9277 87.4731 88.44 79.663 99.7169 75.7158L98.3954 71.9404C86.2269 76.1996 75.9615 84.6277 69.4207 95.7297L72.8671 97.7601ZM101.056 73.8281V57.75H97.0562V73.8281H101.056ZM101.056 57.75C101.056 46.6778 105.459 36.0588 113.296 28.229L110.469 25.3992C101.881 33.9788 97.0562 45.6157 97.0562 57.75H101.056ZM113.296 28.229C121.133 20.3991 131.764 16 142.848 16V12C130.704 12 119.057 16.8196 110.469 25.3992L113.296 28.229ZM142.848 16C153.933 16 164.563 20.3991 172.4 28.229L175.227 25.3992C166.639 16.8196 154.992 12 142.848 12V16ZM172.4 28.229C180.237 36.0588 184.64 46.6778 184.64 57.75H188.64C188.64 45.6157 183.815 33.9788 175.227 25.3992L172.4 28.229ZM184.64 57.75V180.25H188.64V57.75H184.64ZM247.953 177.875H256.711V173.875H247.953V177.875ZM256.706 177.875C269.6 177.91 282.089 173.38 291.958 165.09L289.385 162.027C280.24 169.709 268.666 173.907 256.717 173.875L256.706 177.875ZM291.958 165.09C301.827 156.8 308.438 145.285 310.618 132.587L306.675 131.91C304.656 143.675 298.53 154.345 289.385 162.027L291.958 165.09ZM310.618 132.587C312.797 119.89 310.404 106.832 303.864 95.7297L300.417 97.7601C306.478 108.047 308.695 120.146 306.675 131.91L310.618 132.587ZM303.864 95.7297C297.323 84.6277 287.057 76.1996 274.889 71.9404L273.567 75.7158C284.844 79.663 294.357 87.4731 300.417 97.7601L303.864 95.7297ZM276.228 73.8281V57.75H272.228V73.8281H276.228ZM276.228 57.75C276.228 45.6157 271.403 33.9788 262.815 25.3992L259.988 28.229C267.826 36.0588 272.228 46.6778 272.228 57.75H276.228ZM262.815 25.3992C254.227 16.8196 242.58 12 230.436 12V16C241.521 16 252.151 20.3991 259.988 28.229L262.815 25.3992ZM230.436 12C218.292 12 206.645 16.8196 198.057 25.3992L200.884 28.229C208.722 20.3991 219.352 16 230.436 16V12ZM198.057 25.3992C189.47 33.9785 184.64 45.6152 184.64 57.75H188.64C188.64 46.6783 193.047 36.0591 200.884 28.229L198.057 25.3992ZM140.852 70.875V79.625H144.852V70.875H140.852ZM140.852 79.625C140.852 87.2162 137.834 94.4969 132.46 99.8652L135.287 102.695C141.412 96.5768 144.852 88.2783 144.852 79.625H140.852ZM132.46 99.8652C127.087 105.234 119.798 108.25 112.198 108.25V112.25C120.858 112.25 129.163 108.813 135.287 102.695L132.46 99.8652ZM228.436 70.875V79.625H232.436V70.875H228.436ZM228.436 79.625C228.436 88.2783 231.877 96.5768 238.001 102.695L240.828 99.8652C235.455 94.4969 232.436 87.2162 232.436 79.625H228.436ZM238.001 102.695C244.125 108.813 252.431 112.25 261.091 112.25V108.25C253.49 108.25 246.202 105.234 240.828 99.8652L238.001 102.695ZM17.3905 181.922C15.8179 176.089 19.0041 168.697 27.5246 160.125C35.9318 151.666 49.0314 142.585 65.8277 133.544L63.9318 130.022C46.9722 139.151 33.4883 148.45 24.6876 157.305C16.0002 166.045 11.3541 174.898 13.5284 182.963L17.3905 181.922ZM186.659 183.747C142.041 194.845 100.946 200.102 70.2549 199.564C54.8948 199.295 42.259 197.576 33.1217 194.483C23.8979 191.36 18.7682 187.033 17.3905 181.922L13.5284 182.963C15.4411 190.058 22.2341 195.02 31.8391 198.271C41.5306 201.552 54.6298 203.291 70.1848 203.563C101.324 204.109 142.779 198.783 187.624 187.629L186.659 183.747ZM275.123 73.9592C298.333 72.1768 317.958 72.807 332.237 75.7801C339.38 77.2672 345.078 79.3192 349.2 81.8695C353.31 84.4125 355.724 87.3645 356.61 90.6474L360.472 89.6062C359.242 85.0466 355.978 81.3598 351.304 78.4679C346.642 75.5831 340.449 73.4041 333.052 71.864C318.254 68.7828 298.208 68.1746 274.817 69.9709L275.123 73.9592ZM356.61 90.6474C358.233 96.6677 354.781 104.344 345.675 113.238C336.698 122.007 322.765 131.409 304.982 140.719L306.837 144.263C324.783 134.867 339.098 125.254 348.47 116.1C357.713 107.072 362.713 97.9187 360.472 89.6062L356.61 90.6474Z" fill="white"/>
<defs>
<filter id="filter0_f_306_688" x="0.993164" y="0" width="372.014" height="238" filterUnits="userSpaceOnUse" color-interpolation-filters="sRGB">
<feFlood flood-opacity="0" result="BackgroundImageFix"/>
<feBlend mode="normal" in="SourceGraphic" in2="BackgroundImageFix" result="shape"/>
<feGaussianBlur stdDeviation="5" result="effect1_foregroundBlur_306_688"/>
</filter>
<filter id="filter1_f_306_688" x="1.99512" y="1" width="370.01" height="236" filterUnits="userSpaceOnUse" color-interpolation-filters="sRGB">
<feFlood flood-opacity="0" result="BackgroundImageFix"/>
<feBlend mode="normal" in="SourceGraphic" in2="BackgroundImageFix" result="shape"/>
<feGaussianBlur stdDeviation="5" result="effect1_foregroundBlur_306_688"/>
</filter>
<filter id="filter2_f_306_688" x="1.99512" y="1" width="370.01" height="236" filterUnits="userSpaceOnUse" color-interpolation-filters="sRGB">
<feFlood flood-opacity="0" result="BackgroundImageFix"/>
<feBlend mode="normal" in="SourceGraphic" in2="BackgroundImageFix" result="shape"/>
<feGaussianBlur stdDeviation="5" result="effect1_foregroundBlur_306_688"/>
</filter>
<linearGradient id="paint0_linear_306_688" x1="178.158" y1="32.4463" x2="277.833" y2="178.61" gradientUnits="userSpaceOnUse">
<stop stop-color="#47FAFF"/>
<stop offset="1" stop-color="#47FAFF" stop-opacity="0"/>
</linearGradient>
<linearGradient id="paint1_linear_306_688" x1="62.3842" y1="133.153" x2="349.804" y2="77.712" gradientUnits="userSpaceOnUse">
<stop stop-color="white"/>
<stop offset="1" stop-color="white" stop-opacity="0"/>
</linearGradient>
<linearGradient id="paint2_linear_306_688" x1="116.778" y1="22.4753" x2="196.992" y2="206.496" gradientUnits="userSpaceOnUse">
<stop stop-color="white"/>
<stop offset="1" stop-color="white" stop-opacity="0"/>
</linearGradient>
</defs>
</svg>
