<svg width="404" height="384" viewBox="0 0 404 384" fill="none" xmlns="http://www.w3.org/2000/svg">
<g filter="url(#filter0_f_338_323)">
<path d="M201.523 192.5H197.523C197.523 193.926 198.282 195.245 199.516 195.96L201.523 192.5ZM326.08 155.678V159.678C328.29 159.678 330.08 157.887 330.08 155.678H326.08ZM87.5305 192.5H83.5305H87.5305ZM282.061 111.569L279.225 114.39L279.23 114.395L282.061 111.569ZM197.523 130.045V192.5H205.523V130.045H197.523ZM257.389 220.267L203.529 189.039L199.516 195.96L253.376 227.188L257.389 220.267ZM274.292 159.678H326.08V151.678H274.292V159.678ZM330.08 155.678V103.633H322.08V155.678H330.08ZM279.225 270.61C263.852 286.072 244.265 296.601 222.941 300.871L224.512 308.715C247.395 304.133 268.41 292.835 284.898 276.251L279.225 270.61ZM222.941 300.871C201.617 305.14 179.513 302.958 159.422 294.6L156.349 301.986C177.907 310.955 201.628 313.297 224.512 308.715L222.941 300.871ZM159.422 294.6C139.331 286.242 122.155 272.081 110.069 253.907L103.408 258.337C116.368 277.826 134.791 293.018 156.349 301.986L159.422 294.6ZM110.069 253.907C97.9828 235.733 91.5305 214.363 91.5305 192.5H83.5305C83.5305 215.937 90.4471 238.849 103.408 258.337L110.069 253.907ZM91.5305 192.5C91.5305 170.637 97.9828 149.267 110.069 131.093L103.408 126.663C90.4471 146.151 83.5305 169.063 83.5305 192.5H91.5305ZM110.069 131.093C122.155 112.919 139.331 98.7584 159.422 90.4L156.349 83.0138C134.791 91.9823 116.368 107.173 103.408 126.663L110.069 131.093ZM159.422 90.4C179.513 82.0417 201.617 79.8597 222.941 84.1291L224.512 76.2848C201.628 71.7031 177.907 74.0451 156.349 83.0138L159.422 90.4ZM222.941 84.1291C244.265 88.3986 263.852 98.9284 279.225 114.39L284.898 108.749C268.41 92.1654 247.395 80.8665 224.512 76.2848L222.941 84.1291ZM279.23 114.395L323.249 158.504L328.912 152.853L284.893 108.744L279.23 114.395ZM121.438 271.525C97.4686 280.319 78.5455 284.684 64.1492 285.631C49.6681 286.584 40.3366 284.046 34.9019 279.745C29.6863 275.618 27.335 269.271 28.1599 260.576C28.9964 251.76 33.1082 240.905 40.4464 228.781C69.8468 180.211 148.053 116.115 247.036 91.37L245.096 83.6089C144.294 108.809 64.2124 174.07 33.6026 224.639C25.9383 237.301 21.1899 249.341 20.1957 259.82C19.1899 270.421 22.0375 279.767 29.9375 286.019C37.6184 292.097 49.3192 294.624 64.6743 293.614C80.1142 292.598 99.8312 287.973 124.193 279.036L121.438 271.525ZM327.501 118.698C341.175 113.507 351.674 111.901 359.265 112.765C366.695 113.611 371.178 116.77 373.601 121.266C376.137 125.97 376.802 132.851 374.924 141.724C373.059 150.537 368.763 160.898 361.979 172.139C334.807 217.162 269.018 274.13 170.053 298.87L171.993 306.631C272.814 281.427 340.464 223.272 368.829 176.272C375.929 164.507 380.65 153.306 382.75 143.38C384.839 133.514 384.421 124.479 380.643 117.47C376.753 110.252 369.692 105.9 360.169 104.816C350.807 103.751 338.941 105.798 324.661 111.219L327.501 118.698Z" fill="url(#paint0_linear_338_323)"/>
</g>
<g filter="url(#filter1_f_338_323)">
<path d="M201.523 192.5H198.523C198.523 193.57 199.092 194.559 200.018 195.095L201.523 192.5ZM326.08 155.678V158.678C327.737 158.678 329.08 157.335 329.08 155.678H326.08ZM87.5305 192.5H84.5305H87.5305ZM282.061 111.569L279.934 113.685L279.938 113.689L282.061 111.569ZM198.523 130.045V192.5H204.523V130.045H198.523ZM256.887 221.132L203.027 189.905L200.018 195.095L253.878 226.323L256.887 221.132ZM274.292 158.678H326.08V152.678H274.292V158.678ZM329.08 155.678V103.633H323.08V155.678H329.08ZM279.934 271.315C264.422 286.917 244.656 297.543 223.137 301.851L224.315 307.735C247.004 303.192 267.84 291.989 284.189 275.546L279.934 271.315ZM223.137 301.851C201.619 306.16 179.312 303.958 159.038 295.523L156.733 301.063C178.107 309.955 201.627 312.277 224.315 307.735L223.137 301.851ZM159.038 295.523C138.764 287.089 121.432 272.799 109.236 254.461L104.24 257.784C117.092 277.108 135.359 292.171 156.733 301.063L159.038 295.523ZM109.236 254.461C97.0409 236.123 90.5305 214.56 90.5305 192.5H84.5305C84.5305 215.74 91.389 238.459 104.24 257.784L109.236 254.461ZM90.5305 192.5C90.5305 170.44 97.0409 148.877 109.236 130.539L104.24 127.216C91.389 146.541 84.5305 169.26 84.5305 192.5H90.5305ZM109.236 130.539C121.432 112.201 138.764 97.9114 159.038 89.4768L156.733 83.937C135.359 92.8293 117.092 107.892 104.24 127.216L109.236 130.539ZM159.038 89.4768C179.312 81.0422 201.619 78.8401 223.137 83.1486L224.315 77.2654C201.627 72.7227 178.107 75.0447 156.733 83.937L159.038 89.4768ZM223.137 83.1486C244.656 87.4571 264.422 98.083 279.934 113.685L284.189 109.454C267.84 93.0108 247.004 81.808 224.315 77.2654L223.137 83.1486ZM279.938 113.689L323.957 157.797L328.204 153.559L284.185 109.45L279.938 113.689ZM121.782 272.464C97.7639 281.276 78.7416 285.673 64.2148 286.629C49.6245 287.589 39.9968 285.052 34.2814 280.53C28.7302 276.137 26.3169 269.414 27.1644 260.482C28.0206 251.458 32.2119 240.454 39.591 228.264C69.1425 179.443 147.583 115.202 246.794 90.3999L245.339 84.579C144.764 109.722 64.9167 174.837 34.4581 225.157C26.8345 237.751 22.1657 249.644 21.1912 259.915C20.2081 270.277 22.9936 279.248 30.5581 285.235C37.9582 291.091 49.3628 293.619 64.6087 292.616C79.9181 291.609 99.5359 287.016 123.849 278.097L121.782 272.464ZM327.146 117.763C340.896 112.543 351.565 110.882 359.378 111.771C367.07 112.647 371.875 115.956 374.481 120.791C377.172 125.784 377.806 132.934 375.902 141.931C374.007 150.883 369.659 161.349 362.836 172.655C335.514 217.926 269.492 275.042 170.296 299.84L171.751 305.661C272.339 280.515 339.757 222.508 367.973 175.756C375.034 164.056 379.701 152.96 381.772 143.173C383.834 133.431 383.385 124.665 379.763 117.945C376.056 111.067 369.318 106.864 360.056 105.81C350.915 104.77 339.221 106.761 325.016 112.154L327.146 117.763Z" fill="url(#paint1_linear_338_323)"/>
</g>
<g filter="url(#filter2_f_338_323)">
<path d="M201.523 192.5H198.523C198.523 193.57 199.092 194.559 200.018 195.095L201.523 192.5ZM326.08 155.678V158.678C327.737 158.678 329.08 157.335 329.08 155.678H326.08ZM87.5305 192.5H84.5305H87.5305ZM282.061 111.569L279.934 113.685L279.938 113.689L282.061 111.569ZM198.523 130.045V192.5H204.523V130.045H198.523ZM256.887 221.132L203.027 189.905L200.018 195.095L253.878 226.323L256.887 221.132ZM274.292 158.678H326.08V152.678H274.292V158.678ZM329.08 155.678V103.633H323.08V155.678H329.08ZM279.934 271.315C264.422 286.917 244.656 297.543 223.137 301.851L224.315 307.735C247.004 303.192 267.84 291.989 284.189 275.546L279.934 271.315ZM223.137 301.851C201.619 306.16 179.312 303.958 159.038 295.523L156.733 301.063C178.107 309.955 201.627 312.277 224.315 307.735L223.137 301.851ZM159.038 295.523C138.764 287.089 121.432 272.799 109.236 254.461L104.24 257.784C117.092 277.108 135.359 292.171 156.733 301.063L159.038 295.523ZM109.236 254.461C97.0409 236.123 90.5305 214.56 90.5305 192.5H84.5305C84.5305 215.74 91.389 238.459 104.24 257.784L109.236 254.461ZM90.5305 192.5C90.5305 170.44 97.0409 148.877 109.236 130.539L104.24 127.216C91.389 146.541 84.5305 169.26 84.5305 192.5H90.5305ZM109.236 130.539C121.432 112.201 138.764 97.9114 159.038 89.4768L156.733 83.937C135.359 92.8293 117.092 107.892 104.24 127.216L109.236 130.539ZM159.038 89.4768C179.312 81.0422 201.619 78.8401 223.137 83.1486L224.315 77.2654C201.627 72.7227 178.107 75.0447 156.733 83.937L159.038 89.4768ZM223.137 83.1486C244.656 87.4571 264.422 98.083 279.934 113.685L284.189 109.454C267.84 93.0108 247.004 81.808 224.315 77.2654L223.137 83.1486ZM279.938 113.689L323.957 157.797L328.204 153.559L284.185 109.45L279.938 113.689ZM121.782 272.464C97.7639 281.276 78.7416 285.673 64.2148 286.629C49.6245 287.589 39.9968 285.052 34.2814 280.53C28.7302 276.137 26.3169 269.414 27.1644 260.482C28.0206 251.458 32.2119 240.454 39.591 228.264C69.1425 179.443 147.583 115.202 246.794 90.3999L245.339 84.579C144.764 109.722 64.9167 174.837 34.4581 225.157C26.8345 237.751 22.1657 249.644 21.1912 259.915C20.2081 270.277 22.9936 279.248 30.5581 285.235C37.9582 291.091 49.3628 293.619 64.6087 292.616C79.9181 291.609 99.5359 287.016 123.849 278.097L121.782 272.464ZM327.146 117.763C340.896 112.543 351.565 110.882 359.378 111.771C367.07 112.647 371.875 115.956 374.481 120.791C377.172 125.784 377.806 132.934 375.902 141.931C374.007 150.883 369.659 161.349 362.836 172.655C335.514 217.926 269.492 275.042 170.296 299.84L171.751 305.661C272.339 280.515 339.757 222.508 367.973 175.756C375.034 164.056 379.701 152.96 381.772 143.173C383.834 133.431 383.385 124.665 379.763 117.945C376.056 111.067 369.318 106.864 360.056 105.81C350.915 104.77 339.221 106.761 325.016 112.154L327.146 117.763Z" fill="url(#paint2_linear_338_323)"/>
</g>
<path d="M201.523 192.5H199.523C199.523 193.213 199.902 193.872 200.519 194.23L201.523 192.5ZM326.08 155.678V157.678C327.185 157.678 328.08 156.783 328.08 155.678H326.08ZM87.5305 192.5H85.5305H87.5305ZM282.061 111.569L280.643 112.979L280.646 112.982L282.061 111.569ZM199.523 130.045V192.5H203.523V130.045H199.523ZM256.386 221.997L202.526 190.77L200.519 194.23L254.379 225.457L256.386 221.997ZM274.292 157.678H326.08V153.678H274.292V157.678ZM328.08 155.678V103.633H324.08V155.678H328.08ZM280.643 272.02C264.992 287.762 245.048 298.484 223.334 302.832L224.119 306.754C246.613 302.25 267.27 291.144 283.48 274.841L280.643 272.02ZM223.334 302.832C201.62 307.179 179.111 304.957 158.654 296.447L157.117 300.14C178.308 308.956 201.626 311.258 224.119 306.754L223.334 302.832ZM158.654 296.447C138.196 287.936 120.708 273.518 108.404 255.015L105.073 257.23C117.815 276.39 135.926 291.324 157.117 300.14L158.654 296.447ZM108.404 255.015C96.0989 236.512 89.5305 214.756 89.5305 192.5H85.5305C85.5305 215.543 92.331 238.07 105.073 257.23L108.404 255.015ZM89.5305 192.5C89.5305 170.243 96.0989 148.488 108.404 129.985L105.073 127.77C92.331 146.93 85.5305 169.457 85.5305 192.5H89.5305ZM108.404 129.985C120.708 111.482 138.196 97.0644 158.654 88.5535L157.117 84.8603C135.926 93.6764 117.815 108.61 105.073 127.77L108.404 129.985ZM158.654 88.5535C179.111 80.0426 201.62 77.8206 223.334 82.1681L224.119 78.2459C201.626 73.7422 178.308 76.0443 157.117 84.8603L158.654 88.5535ZM223.334 82.1681C245.048 86.5156 264.992 97.2376 280.643 112.979L283.48 110.159C267.27 93.8562 246.613 82.7495 224.119 78.2459L223.334 82.1681ZM280.646 112.982L324.665 157.091L327.496 154.265L283.477 110.157L280.646 112.982ZM122.127 273.403C98.0592 282.232 78.9377 286.663 64.2805 287.627C49.5809 288.594 39.657 286.059 33.6608 281.314C27.7741 276.655 25.2988 269.558 26.1689 260.387C27.0448 251.156 31.3157 240.004 38.7355 227.746C68.4382 178.675 147.113 114.289 246.551 89.4297L245.581 85.5492C145.234 110.635 65.621 175.605 35.3135 225.674C27.7308 238.202 23.1415 249.946 22.1868 260.009C21.2262 270.133 23.9497 278.73 31.1786 284.45C38.298 290.084 49.4065 292.614 64.543 291.618C79.722 290.62 99.2406 286.06 123.504 277.158L122.127 273.403ZM326.791 116.828C340.617 111.579 351.457 109.864 359.491 110.778C367.445 111.683 372.572 115.141 375.361 120.317C378.208 125.597 378.811 133.017 376.881 142.138C374.956 151.229 370.555 161.801 363.692 173.172C336.221 218.69 269.967 275.954 170.538 300.811L171.508 304.691C271.865 279.603 339.05 221.745 367.116 175.239C374.138 163.605 378.752 152.614 380.794 142.966C382.829 133.348 382.35 124.852 378.883 118.419C375.359 111.881 368.943 107.828 359.943 106.804C351.024 105.788 339.5 107.725 325.371 113.089L326.791 116.828Z" fill="white"/>
<defs>
<filter id="filter0_f_338_323" x="0.000976562" y="54" width="403.999" height="277" filterUnits="userSpaceOnUse" color-interpolation-filters="sRGB">
<feFlood flood-opacity="0" result="BackgroundImageFix"/>
<feBlend mode="normal" in="SourceGraphic" in2="BackgroundImageFix" result="shape"/>
<feGaussianBlur stdDeviation="10" result="effect1_foregroundBlur_338_323"/>
</filter>
<filter id="filter1_f_338_323" x="11.001" y="65" width="381.999" height="255" filterUnits="userSpaceOnUse" color-interpolation-filters="sRGB">
<feFlood flood-opacity="0" result="BackgroundImageFix"/>
<feBlend mode="normal" in="SourceGraphic" in2="BackgroundImageFix" result="shape"/>
<feGaussianBlur stdDeviation="5" result="effect1_foregroundBlur_338_323"/>
</filter>
<filter id="filter2_f_338_323" x="11.001" y="65" width="381.999" height="255" filterUnits="userSpaceOnUse" color-interpolation-filters="sRGB">
<feFlood flood-opacity="0" result="BackgroundImageFix"/>
<feBlend mode="normal" in="SourceGraphic" in2="BackgroundImageFix" result="shape"/>
<feGaussianBlur stdDeviation="5" result="effect1_foregroundBlur_338_323"/>
</filter>
<linearGradient id="paint0_linear_338_323" x1="105.919" y1="132.44" x2="260.266" y2="290" gradientUnits="userSpaceOnUse">
<stop stop-color="#47FAFF"/>
<stop offset="1" stop-color="#47FAFF" stop-opacity="0"/>
</linearGradient>
<linearGradient id="paint1_linear_338_323" x1="88.0278" y1="170.897" x2="379.839" y2="120.441" gradientUnits="userSpaceOnUse">
<stop stop-color="white"/>
<stop offset="1" stop-color="white" stop-opacity="0"/>
</linearGradient>
<linearGradient id="paint2_linear_338_323" x1="166.054" y1="83.4939" x2="228.738" y2="281.096" gradientUnits="userSpaceOnUse">
<stop stop-color="white"/>
<stop offset="1" stop-color="white" stop-opacity="0"/>
</linearGradient>
</defs>
</svg>
