<svg width="384" height="384" viewBox="0 0 384 384" fill="none" xmlns="http://www.w3.org/2000/svg">
<g filter="url(#filter0_f_307_147)">
<path d="M102.567 88V92V88ZM196.69 296.49L195.436 292.692C195.392 292.706 195.348 292.722 195.304 292.738L196.69 296.49ZM190.985 296.49L192.371 292.738C192.328 292.722 192.284 292.706 192.24 292.692L190.985 296.49ZM246.794 154.628L249.692 151.871L244.177 146.076L241.279 148.833L246.794 154.628ZM177.067 215.461L174.307 218.357C175.851 219.829 178.279 219.83 179.824 218.359L177.067 215.461ZM354.787 256.557L358.452 258.157L354.787 256.557ZM55.2689 126.418L51.6031 124.818L55.2689 126.418ZM30.2134 264.895L33.8791 263.295L30.2134 264.895ZM329.731 134.757L333.397 133.157L329.731 134.757ZM97.44 163.908V97.1044H89.44V163.908H97.44ZM97.44 97.1044C97.44 95.7538 97.9778 94.4566 98.9382 93.4986L93.2884 87.8347C90.8255 90.2914 89.44 93.6257 89.44 97.1044H97.44ZM98.9382 93.4986C99.8989 92.5402 101.204 92 102.567 92V84C99.0888 84 95.7509 85.3782 93.2884 87.8347L98.9382 93.4986ZM102.567 92H285.108V84H102.567V92ZM285.108 92C286.471 92 287.776 92.5402 288.737 93.4986L294.387 87.8347C291.924 85.3782 288.587 84 285.108 84V92ZM288.737 93.4986C289.698 94.4566 290.235 95.7538 290.235 97.1044H298.235C298.235 93.6257 296.85 90.2915 294.387 87.8347L288.737 93.4986ZM290.235 97.1044V163.908H298.235V97.1044H290.235ZM290.235 163.908C290.235 256.642 211.428 287.412 195.436 292.692L197.944 300.289C214.352 294.871 298.235 262.366 298.235 163.908H290.235ZM195.304 292.738C194.358 293.087 193.317 293.087 192.371 292.738L189.6 300.242C192.334 301.253 195.341 301.253 198.076 300.242L195.304 292.738ZM192.24 292.692C176.247 287.412 97.44 256.642 97.44 163.908H89.44C89.44 262.366 173.323 294.871 189.731 300.289L192.24 292.692ZM241.279 148.833L174.309 212.564L179.824 218.359L246.794 154.628L241.279 148.833ZM179.827 212.566L146.399 180.701L140.879 186.491L174.307 218.357L179.827 212.566ZM351.121 254.956C343.525 272.352 321.18 282.688 288.842 283.764C256.838 284.828 216.516 276.687 175.583 258.902L172.395 266.239C214.17 284.39 255.676 292.871 289.108 291.759C322.206 290.659 348.906 280.019 358.452 258.157L351.121 254.956ZM175.583 258.902C134.649 241.116 101.212 217.21 80.1991 193.111C58.9667 168.761 51.3409 145.41 58.9347 128.019L51.6031 124.818C42.0544 146.685 52.4337 173.442 74.1694 198.369C96.1242 223.547 130.619 248.088 172.395 266.239L175.583 258.902ZM58.9347 128.019C64.2411 115.867 76.6769 107.153 94.972 102.618L93.0471 94.8528C73.4468 99.7115 58.2865 109.512 51.6031 124.818L58.9347 128.019ZM291.846 156.156C315.351 172.866 333.22 191.151 343.64 208.597C354.095 226.1 356.722 242.129 351.121 254.956L358.452 258.157C365.511 241.993 361.629 223.114 350.509 204.495C339.354 185.819 320.582 166.769 296.481 149.636L291.846 156.156ZM26.5476 266.496C36.0939 288.358 62.7938 298.997 95.8918 300.098C129.324 301.21 170.83 292.729 212.605 274.578L209.417 267.241C168.484 285.026 128.162 293.167 96.1577 292.103C63.8197 291.027 41.4754 280.691 33.8791 263.295L26.5476 266.496ZM212.605 274.578C254.381 256.427 288.876 231.886 310.831 206.708C332.566 181.78 342.946 155.024 333.397 133.157L326.065 136.358C333.659 153.748 326.033 177.1 304.801 201.45C283.788 225.549 250.351 249.455 209.417 267.241L212.605 274.578ZM63.3385 178.341C47.4593 193.069 35.5434 208.541 28.9209 223.542C22.2936 238.553 20.842 253.43 26.5476 266.496L33.8791 263.295C29.3448 252.911 30.1947 240.465 36.2394 226.773C42.2889 213.07 53.4157 198.456 68.7788 184.206L63.3385 178.341ZM333.397 133.157C327.154 118.861 313.504 109.361 295.777 104.219L293.549 111.902C309.936 116.656 321.107 125.003 326.065 136.358L333.397 133.157Z" fill="url(#paint0_linear_307_147)"/>
</g>
<g filter="url(#filter1_f_307_147)">
<path d="M102.567 88V91V88ZM196.69 296.49L195.749 293.641C195.716 293.652 195.683 293.664 195.65 293.676L196.69 296.49ZM190.985 296.49L192.025 293.676C191.992 293.664 191.959 293.652 191.926 293.641L190.985 296.49ZM246.105 153.904L248.278 151.836L244.142 147.489L241.968 149.557L246.105 153.904ZM177.067 215.461L174.997 217.633C176.155 218.737 177.976 218.738 179.135 217.634L177.067 215.461ZM354.787 256.557L357.536 257.757L354.787 256.557ZM55.2689 126.418L52.5196 125.218L55.2689 126.418ZM30.2134 264.895L32.9627 263.695L30.2134 264.895ZM329.731 134.757L332.48 133.557L329.731 134.757ZM96.44 163.908V97.1044H90.44V163.908H96.44ZM96.44 97.1044C96.44 95.4878 97.0837 93.9359 98.2319 92.7906L93.9946 88.5427C91.7195 90.8121 90.44 93.8917 90.44 97.1044H96.44ZM98.2319 92.7906C99.3804 91.6449 100.94 91 102.567 91V85C99.3532 85 96.2694 86.2735 93.9946 88.5427L98.2319 92.7906ZM102.567 91H285.108V85H102.567V91ZM285.108 91C286.736 91 288.295 91.645 289.443 92.7906L293.681 88.5427C291.406 86.2735 288.322 85 285.108 85V91ZM289.443 92.7906C290.592 93.9359 291.235 95.4878 291.235 97.1044H297.235C297.235 93.8917 295.956 90.8121 293.681 88.5427L289.443 92.7906ZM291.235 97.1044V163.908H297.235V97.1044H291.235ZM291.235 163.908C291.235 257.357 211.794 288.344 195.749 293.641L197.63 299.339C213.987 293.939 297.235 261.65 297.235 163.908H291.235ZM195.65 293.676C194.481 294.108 193.195 294.108 192.025 293.676L189.946 299.304C192.457 300.232 195.218 300.232 197.729 299.304L195.65 293.676ZM191.926 293.641C175.881 288.344 96.44 257.357 96.44 163.908H90.44C90.44 261.65 173.688 293.939 190.045 299.339L191.926 293.641ZM241.968 149.557L174.999 213.288L179.135 217.634L246.105 153.904L241.968 149.557ZM179.137 213.29L145.709 181.424L141.569 185.767L174.997 217.633L179.137 213.29ZM352.037 255.356C344.197 273.311 321.309 283.684 288.876 284.763C256.693 285.834 216.223 277.65 175.184 259.819L172.793 265.322C214.464 283.428 255.822 291.866 289.075 290.76C322.078 289.662 348.233 279.061 357.536 257.757L352.037 255.356ZM175.184 259.819C134.145 241.988 100.576 218.002 79.4454 193.768C58.1501 169.346 50.1801 145.569 58.0182 127.619L52.5196 125.218C43.2152 146.526 53.2504 172.856 74.9231 197.712C96.7602 222.755 131.123 247.217 172.793 265.322L175.184 259.819ZM58.0182 127.619C63.4968 115.072 76.2731 106.223 94.7314 101.647L93.2878 95.8235C73.8506 100.642 59.0308 110.306 52.5196 125.218L58.0182 127.619ZM292.425 155.341C316.005 172.104 333.987 190.485 344.499 208.084C355.036 225.726 357.82 242.112 352.037 255.356L357.536 257.757C364.412 242.01 360.688 223.487 349.65 205.007C338.587 186.485 319.928 167.532 295.901 150.451L292.425 155.341ZM27.4641 266.096C36.7666 287.4 62.922 298.001 95.925 299.099C129.178 300.205 170.536 291.766 212.207 273.661L209.816 268.158C168.777 285.989 128.307 294.173 96.1245 293.102C63.6915 292.023 40.8027 281.649 32.9627 263.695L27.4641 266.096ZM212.207 273.661C253.877 255.555 288.24 231.094 310.077 206.05C331.75 181.195 341.785 154.865 332.48 133.557L326.982 135.958C334.82 153.908 326.85 177.685 305.555 202.107C284.424 226.341 250.855 250.327 209.816 268.158L212.207 273.661ZM64.0186 179.074C48.2038 193.742 36.3866 209.107 29.8357 223.946C23.2812 238.792 21.9049 253.365 27.4641 266.096L32.9627 263.695C28.2819 252.976 29.207 240.226 35.3246 226.369C41.4457 212.504 52.6711 197.782 68.0988 183.473L64.0186 179.074ZM332.48 133.557C326.398 119.628 313.058 110.273 295.499 105.179L293.827 110.942C310.382 115.744 321.863 124.235 326.982 135.958L332.48 133.557Z" fill="url(#paint1_linear_307_147)"/>
</g>
<g filter="url(#filter2_f_307_147)">
<path d="M102.567 88V91V88ZM196.69 296.49L195.749 293.641C195.716 293.652 195.683 293.664 195.65 293.676L196.69 296.49ZM190.985 296.49L192.025 293.676C191.992 293.664 191.959 293.652 191.926 293.641L190.985 296.49ZM246.105 153.904L248.278 151.836L244.142 147.489L241.968 149.557L246.105 153.904ZM177.067 215.461L174.997 217.633C176.155 218.737 177.976 218.738 179.135 217.634L177.067 215.461ZM354.787 256.557L357.536 257.757L354.787 256.557ZM55.2689 126.418L52.5196 125.218L55.2689 126.418ZM30.2134 264.895L32.9627 263.695L30.2134 264.895ZM329.731 134.757L332.48 133.557L329.731 134.757ZM96.44 163.908V97.1044H90.44V163.908H96.44ZM96.44 97.1044C96.44 95.4878 97.0837 93.9359 98.2319 92.7906L93.9946 88.5427C91.7195 90.8121 90.44 93.8917 90.44 97.1044H96.44ZM98.2319 92.7906C99.3804 91.6449 100.94 91 102.567 91V85C99.3532 85 96.2694 86.2735 93.9946 88.5427L98.2319 92.7906ZM102.567 91H285.108V85H102.567V91ZM285.108 91C286.736 91 288.295 91.645 289.443 92.7906L293.681 88.5427C291.406 86.2735 288.322 85 285.108 85V91ZM289.443 92.7906C290.592 93.9359 291.235 95.4878 291.235 97.1044H297.235C297.235 93.8917 295.956 90.8121 293.681 88.5427L289.443 92.7906ZM291.235 97.1044V163.908H297.235V97.1044H291.235ZM291.235 163.908C291.235 257.357 211.794 288.344 195.749 293.641L197.63 299.339C213.987 293.939 297.235 261.65 297.235 163.908H291.235ZM195.65 293.676C194.481 294.108 193.195 294.108 192.025 293.676L189.946 299.304C192.457 300.232 195.218 300.232 197.729 299.304L195.65 293.676ZM191.926 293.641C175.881 288.344 96.44 257.357 96.44 163.908H90.44C90.44 261.65 173.688 293.939 190.045 299.339L191.926 293.641ZM241.968 149.557L174.999 213.288L179.135 217.634L246.105 153.904L241.968 149.557ZM179.137 213.29L145.709 181.424L141.569 185.767L174.997 217.633L179.137 213.29ZM352.037 255.356C344.197 273.311 321.309 283.684 288.876 284.763C256.693 285.834 216.223 277.65 175.184 259.819L172.793 265.322C214.464 283.428 255.822 291.866 289.075 290.76C322.078 289.662 348.233 279.061 357.536 257.757L352.037 255.356ZM175.184 259.819C134.145 241.988 100.576 218.002 79.4454 193.768C58.1501 169.346 50.1801 145.569 58.0182 127.619L52.5196 125.218C43.2152 146.526 53.2504 172.856 74.9231 197.712C96.7602 222.755 131.123 247.217 172.793 265.322L175.184 259.819ZM58.0182 127.619C63.4968 115.072 76.2731 106.223 94.7314 101.647L93.2878 95.8235C73.8506 100.642 59.0308 110.306 52.5196 125.218L58.0182 127.619ZM292.425 155.341C316.005 172.104 333.987 190.485 344.499 208.084C355.036 225.726 357.82 242.112 352.037 255.356L357.536 257.757C364.412 242.01 360.688 223.487 349.65 205.007C338.587 186.485 319.928 167.532 295.901 150.451L292.425 155.341ZM27.4641 266.096C36.7666 287.4 62.922 298.001 95.925 299.099C129.178 300.205 170.536 291.766 212.207 273.661L209.816 268.158C168.777 285.989 128.307 294.173 96.1245 293.102C63.6915 292.023 40.8027 281.649 32.9627 263.695L27.4641 266.096ZM212.207 273.661C253.877 255.555 288.24 231.094 310.077 206.05C331.75 181.195 341.785 154.865 332.48 133.557L326.982 135.958C334.82 153.908 326.85 177.685 305.555 202.107C284.424 226.341 250.855 250.327 209.816 268.158L212.207 273.661ZM64.0186 179.074C48.2038 193.742 36.3866 209.107 29.8357 223.946C23.2812 238.792 21.9049 253.365 27.4641 266.096L32.9627 263.695C28.2819 252.976 29.207 240.226 35.3246 226.369C41.4457 212.504 52.6711 197.782 68.0988 183.473L64.0186 179.074ZM332.48 133.557C326.398 119.628 313.058 110.273 295.499 105.179L293.827 110.942C310.382 115.744 321.863 124.235 326.982 135.958L332.48 133.557Z" fill="url(#paint2_linear_307_147)"/>
</g>
<path d="M102.567 88V90V88ZM196.69 296.49L196.063 294.591C196.041 294.598 196.019 294.606 195.997 294.614L196.69 296.49ZM190.985 296.49L191.678 294.614C191.657 294.606 191.635 294.598 191.613 294.591L190.985 296.49ZM245.415 153.179L246.864 151.801L244.107 148.903L242.658 150.282L245.415 153.179ZM177.067 215.461L175.687 216.909C176.459 217.645 177.673 217.645 178.445 216.91L177.067 215.461ZM354.787 256.557L356.62 257.357L354.787 256.557ZM55.2689 126.418L53.436 125.618L55.2689 126.418ZM30.2134 264.895L32.0463 264.095L30.2134 264.895ZM329.731 134.757L331.564 133.957L329.731 134.757ZM95.44 163.908V97.1044H91.44V163.908H95.44ZM95.44 97.1044C95.44 95.2218 96.1897 93.4153 97.5257 92.0826L94.7008 89.2506C92.6135 91.3327 91.44 94.1577 91.44 97.1044H95.44ZM97.5257 92.0826C98.8619 90.7497 100.675 90 102.567 90V86C99.6176 86 96.7879 87.1687 94.7008 89.2506L97.5257 92.0826ZM102.567 90H285.108V86H102.567V90ZM285.108 90C287 90 288.813 90.7497 290.15 92.0826L292.975 89.2506C290.887 87.1687 288.058 86 285.108 86V90ZM290.15 92.0826C291.486 93.4153 292.235 95.2218 292.235 97.1044H296.235C296.235 94.1577 295.062 91.3327 292.975 89.2506L290.15 92.0826ZM292.235 97.1044V163.908H296.235V97.1044H292.235ZM292.235 163.908C292.235 258.073 212.159 289.277 196.063 294.591L197.317 298.389C213.621 293.006 296.235 260.935 296.235 163.908H292.235ZM195.997 294.614C194.604 295.129 193.072 295.129 191.678 294.614L190.293 298.366C192.58 299.211 195.095 299.211 197.383 298.366L195.997 294.614ZM191.613 294.591C175.516 289.277 95.44 258.073 95.44 163.908H91.44C91.44 260.935 174.054 293.006 190.358 298.389L191.613 294.591ZM242.658 150.282L175.688 214.012L178.445 216.91L245.415 153.179L242.658 150.282ZM178.447 214.014L145.019 182.148L142.259 185.044L175.687 216.909L178.447 214.014ZM352.954 255.756C344.87 274.269 321.437 284.681 288.909 285.763C256.548 286.839 215.93 278.613 174.786 260.736L173.192 264.405C214.757 282.465 255.967 290.861 289.042 289.761C321.95 288.666 347.561 278.102 356.62 257.357L352.954 255.756ZM174.786 260.736C133.641 242.859 99.9404 218.794 78.6917 194.426C57.3334 169.931 49.0193 145.729 57.1018 127.219L53.436 125.618C44.376 146.366 54.067 172.271 75.6768 197.054C97.3962 221.963 131.626 246.345 173.192 264.405L174.786 260.736ZM57.1018 127.219C62.7525 114.278 75.8694 105.293 94.4908 100.677L93.5284 96.7941C74.2543 101.572 59.7752 111.101 53.436 125.618L57.1018 127.219ZM293.004 154.526C316.659 171.342 334.754 189.818 345.357 207.571C355.978 225.353 358.919 242.095 352.954 255.756L356.62 257.357C363.314 242.027 359.746 223.86 348.792 205.52C337.82 187.152 319.274 168.294 295.322 151.266L293.004 154.526ZM28.3805 265.696C37.4392 286.441 63.0502 297.005 95.9583 298.099C129.033 299.2 170.243 290.804 211.808 272.744L210.214 269.075C169.07 286.952 128.452 295.178 96.0912 294.102C63.5632 293.02 40.13 282.608 32.0463 264.095L28.3805 265.696ZM211.808 272.744C253.374 254.684 287.604 230.302 309.323 205.393C330.933 180.61 340.624 154.705 331.564 133.957L327.898 135.558C335.981 154.067 327.667 178.27 306.308 202.764C285.06 227.133 251.359 251.198 210.214 269.075L211.808 272.744ZM64.6986 179.807C48.9484 194.416 37.2298 209.673 30.7505 224.35C24.2689 239.031 22.9677 253.3 28.3805 265.696L32.0463 264.095C27.2191 253.04 28.2194 239.987 34.4098 225.965C40.6025 211.938 51.9266 197.109 67.4188 182.74L64.6986 179.807ZM331.564 133.957C325.643 120.396 312.612 111.185 295.22 106.14L294.106 109.981C310.828 114.832 322.619 123.467 327.898 135.558L331.564 133.957Z" fill="white"/>
<defs>
<filter id="filter0_f_307_147" x="12.999" y="74" width="359.005" height="237" filterUnits="userSpaceOnUse" color-interpolation-filters="sRGB">
<feFlood flood-opacity="0" result="BackgroundImageFix"/>
<feBlend mode="normal" in="SourceGraphic" in2="BackgroundImageFix" result="shape"/>
<feGaussianBlur stdDeviation="5" result="effect1_foregroundBlur_307_147"/>
</filter>
<filter id="filter1_f_307_147" x="13.9995" y="75" width="357.003" height="235" filterUnits="userSpaceOnUse" color-interpolation-filters="sRGB">
<feFlood flood-opacity="0" result="BackgroundImageFix"/>
<feBlend mode="normal" in="SourceGraphic" in2="BackgroundImageFix" result="shape"/>
<feGaussianBlur stdDeviation="5" result="effect1_foregroundBlur_307_147"/>
</filter>
<filter id="filter2_f_307_147" x="13.9995" y="75" width="357.003" height="235" filterUnits="userSpaceOnUse" color-interpolation-filters="sRGB">
<feFlood flood-opacity="0" result="BackgroundImageFix"/>
<feBlend mode="normal" in="SourceGraphic" in2="BackgroundImageFix" result="shape"/>
<feGaussianBlur stdDeviation="5" result="effect1_foregroundBlur_307_147"/>
</filter>
<linearGradient id="paint0_linear_307_147" x1="239.26" y1="84.5859" x2="197.532" y2="292.249" gradientUnits="userSpaceOnUse">
<stop stop-color="#47FAFF"/>
<stop offset="1" stop-color="#47FAFF" stop-opacity="0"/>
</linearGradient>
<linearGradient id="paint1_linear_307_147" x1="34.1146" y1="223.997" x2="346.538" y2="272.028" gradientUnits="userSpaceOnUse">
<stop stop-color="white"/>
<stop offset="1" stop-color="white" stop-opacity="0"/>
</linearGradient>
<linearGradient id="paint2_linear_307_147" x1="192.5" y1="88" x2="223.635" y2="283.27" gradientUnits="userSpaceOnUse">
<stop stop-color="white"/>
<stop offset="1" stop-color="white" stop-opacity="0"/>
</linearGradient>
</defs>
</svg>
