<svg width="34" height="32" viewBox="0 0 34 32" fill="none" xmlns="http://www.w3.org/2000/svg">
<path d="M25.5567 7.46884L19.7019 5.86439M13.9318 7.24362L7.68288 12.8451M7.90773 17.1096L19.3359 25.4978M23.1924 24.3155L27.6961 11.5362M19.8146 4.97775C19.8146 6.84325 18.3023 8.35553 16.4368 8.35553C14.5713 8.35553 13.0591 6.84325 13.0591 4.97775C13.0591 3.11226 14.5713 1.59998 16.4368 1.59998C18.3023 1.59998 19.8146 3.11226 19.8146 4.97775ZM8.55536 15.1111C8.55536 16.9766 7.04308 18.4889 5.17758 18.4889C3.31209 18.4889 1.7998 16.9766 1.7998 15.1111C1.7998 13.2456 3.31209 11.7333 5.17758 11.7333C7.04308 11.7333 8.55536 13.2456 8.55536 15.1111ZM25.4442 27.4963C25.4442 29.3618 23.932 30.8741 22.0665 30.8741C20.201 30.8741 18.6887 29.3618 18.6887 27.4963C18.6887 25.6308 20.201 24.1185 22.0665 24.1185C23.932 24.1185 25.4442 25.6308 25.4442 27.4963ZM32.1998 8.35553C32.1998 10.221 30.6875 11.7333 28.822 11.7333C26.9565 11.7333 25.4442 10.221 25.4442 8.35553C25.4442 6.49004 26.9565 4.97775 28.822 4.97775C30.6875 4.97775 32.1998 6.49004 32.1998 8.35553Z" stroke="white" stroke-width="2" stroke-linecap="round" stroke-linejoin="round"/>
</svg>
