<svg width="624" height="683" viewBox="0 0 624 683" fill="none" xmlns="http://www.w3.org/2000/svg">
<path d="M408.008 470.877C326.271 557.747 241.491 621.801 170.53 655.164C135.044 671.848 103.079 680.826 76.7137 681.193C50.3717 681.559 29.7103 673.338 16.5985 655.709C3.45511 638.038 -0.989079 612.417 2.41299 581.048C5.81319 549.697 17.0388 512.737 35.061 472.543C71.1033 392.158 134.257 298.99 215.99 212.123C297.727 125.253 382.507 61.1994 453.468 27.8364C488.954 11.1523 520.919 2.17453 547.284 1.80766C573.626 1.44111 594.288 9.66287 607.4 27.2916C620.543 44.9628 624.987 70.5832 621.585 101.952C618.185 133.304 606.959 170.263 588.937 210.458C552.895 290.843 489.741 384.011 408.008 470.877Z" stroke="url(#paint0_linear_591_2299)" stroke-width="2"/>
<defs>
<linearGradient id="paint0_linear_591_2299" x1="664.471" y1="43.27" x2="326.22" y2="802.993" gradientUnits="userSpaceOnUse">
<stop offset="0.0208333" stop-color="white" stop-opacity="0"/>
<stop offset="0.497222" stop-color="white"/>
<stop offset="1" stop-color="white" stop-opacity="0"/>
</linearGradient>
</defs>
</svg>
