<svg width="594" height="709" viewBox="0 0 594 709" fill="none" xmlns="http://www.w3.org/2000/svg">
<path d="M399.992 478.481C323.403 569.922 242.461 638.761 173.542 676.162C139.078 694.866 107.684 705.673 81.3842 707.56C55.1073 709.446 34.0059 702.43 19.8989 685.587C5.75779 668.704 -0.157185 643.382 1.4293 611.87C3.015 580.374 12.0895 542.829 27.7626 501.661C59.1069 419.331 116.78 322.674 193.365 231.237C269.954 139.795 350.897 70.9567 419.815 33.555C454.279 14.8514 485.673 4.04425 511.973 2.15683C538.25 0.271065 559.351 7.28704 573.458 24.1299C587.6 41.0133 593.514 66.3347 591.928 97.8475C590.342 129.343 581.268 166.889 565.595 208.056C534.25 290.387 476.577 387.043 399.992 478.481Z" stroke="url(#paint0_linear_266_609)" stroke-width="2"/>
<defs>
<linearGradient id="paint0_linear_266_609" x1="593.179" y1="0.858521" x2="593.179" y2="708.859" gradientUnits="userSpaceOnUse">
<stop offset="0.0208333" stop-color="white" stop-opacity="0"/>
<stop offset="0.497222" stop-color="white"/>
<stop offset="1" stop-color="white" stop-opacity="0"/>
</linearGradient>
</defs>
</svg>
