<svg width="1216" height="955" viewBox="0 0 1216 955" fill="none" xmlns="http://www.w3.org/2000/svg">
<g filter="url(#filter0_f_308_481)">
<path d="M58.7765 267.093L60.9595 273.684L66.9919 270.247L65.587 277.046L72.5298 277.085L67.9135 282.271L73.9064 285.777L67.3156 287.96L70.7528 293.992L63.9535 292.587L63.914 299.53L58.7281 294.914L55.2225 300.907L53.0396 294.316L47.0072 297.753L48.4121 290.954L41.4692 290.914L46.0856 285.729L40.0926 282.223L46.6835 280.04L43.2462 274.008L50.0455 275.412L50.085 268.47L55.2709 273.086L58.7765 267.093Z" fill="white"/>
</g>
<path d="M407.587 658.987C249.398 537.394 128.693 406.967 61.3928 294.426C27.7398 238.15 7.47807 186.409 2.51586 142.522C-2.4438 98.6579 7.88105 62.7292 35.2928 37.8548C62.7443 12.9444 104.889 1.33191 157.783 1.82929C210.659 2.32651 274.142 14.9267 344.1 38.2835C484.01 84.9953 649.653 174.675 807.838 296.265C966.026 417.858 1086.73 548.285 1154.03 660.826C1187.69 717.101 1207.95 768.842 1212.91 812.73C1217.87 856.594 1207.54 892.522 1180.13 917.397C1152.68 942.307 1110.54 953.92 1057.64 953.422C1004.77 952.925 941.283 940.325 871.325 916.968C731.415 870.256 565.772 780.577 407.587 658.987Z" stroke="url(#paint0_linear_308_481)" stroke-width="2"/>
<path d="M58.6721 268.088L60.7267 274.291L66.4042 271.056L65.082 277.455L71.6164 277.492L67.2716 282.373L72.912 285.672L66.7089 287.727L69.9439 293.405L63.5446 292.082L63.5074 298.617L58.6266 294.272L55.3272 299.912L53.2726 293.709L47.5951 296.944L48.9173 290.545L42.3829 290.508L46.7277 285.627L41.0873 282.328L47.2904 280.273L44.0554 274.595L50.4547 275.918L50.4919 269.383L55.3727 273.728L58.6721 268.088Z" fill="white"/>
<defs>
<filter id="filter0_f_308_481" x="35.0928" y="262.093" width="43.8135" height="43.8138" filterUnits="userSpaceOnUse" color-interpolation-filters="sRGB">
<feFlood flood-opacity="0" result="BackgroundImageFix"/>
<feBlend mode="normal" in="SourceGraphic" in2="BackgroundImageFix" result="shape"/>
<feGaussianBlur stdDeviation="2.5" result="effect1_foregroundBlur_308_481"/>
</filter>
<linearGradient id="paint0_linear_308_481" x1="673.375" y1="143.907" x2="133.994" y2="877.344" gradientUnits="userSpaceOnUse">
<stop offset="0.0208333" stop-color="white" stop-opacity="0"/>
<stop offset="0.497222" stop-color="white"/>
<stop offset="1" stop-color="white" stop-opacity="0"/>
</linearGradient>
</defs>
</svg>
