<svg width="682" height="925" viewBox="0 0 682 925" fill="none" xmlns="http://www.w3.org/2000/svg">
<g filter="url(#filter0_f_591_2300)">
<path d="M401.9 176.737C397.619 186.507 390.594 189.252 380.824 184.971C390.594 189.252 393.338 196.277 389.057 206.047C393.338 196.277 400.364 193.533 410.134 197.814C400.364 193.533 397.619 186.507 401.9 176.737Z" fill="white"/>
</g>
<path d="M401.9 176.737C397.619 186.507 390.594 189.252 380.824 184.971C390.594 189.252 393.338 196.277 389.057 206.047C393.338 196.277 400.364 193.533 410.134 197.814C400.364 193.533 397.619 186.507 401.9 176.737Z" fill="white"/>
<path d="M605.96 119.611C625.495 129.665 636.984 148.705 640.928 174.752C644.876 200.823 641.244 233.825 630.584 271.561C609.27 347.022 559.935 441.131 487.594 535.969C415.256 630.802 333.665 708.335 260.253 757.033C223.544 781.383 188.917 798.499 158.543 806.978C128.152 815.462 102.15 815.265 82.568 805.187C63.0331 795.133 51.5446 776.094 47.6004 750.046C43.6527 723.976 47.2847 690.973 57.9438 653.237C79.2587 577.777 128.593 483.667 200.934 388.83C273.272 293.997 354.863 216.463 428.276 167.766C464.984 143.416 499.611 126.3 529.985 117.821C560.376 109.337 586.378 109.533 605.96 119.611Z" stroke="url(#paint0_linear_591_2300)" stroke-width="2"/>
<defs>
<filter id="filter0_f_591_2300" x="364.402" y="160.316" width="62.1523" height="62.1527" filterUnits="userSpaceOnUse" color-interpolation-filters="sRGB">
<feFlood flood-opacity="0" result="BackgroundImageFix"/>
<feBlend mode="normal" in="SourceGraphic" in2="BackgroundImageFix" result="shape"/>
<feGaussianBlur stdDeviation="5" result="effect1_foregroundBlur_591_2300"/>
</filter>
<linearGradient id="paint0_linear_591_2300" x1="0.369141" y1="770.393" x2="337.598" y2="0.793577" gradientUnits="userSpaceOnUse">
<stop offset="0.0208333" stop-color="white" stop-opacity="0"/>
<stop offset="0.497222" stop-color="white"/>
<stop offset="1" stop-color="white" stop-opacity="0"/>
</linearGradient>
</defs>
</svg>
