<svg width="152" height="35" viewBox="0 0 152 32" fill="none" xmlns="http://www.w3.org/2000/svg">
<g clip-path="url(#clip0_501_119)">
<path d="M105.462 0.336307C102.741 0.33446 100.08 1.14223 97.8164 2.65741C95.5529 4.17258 93.7884 6.32708 92.7461 8.84829C91.7039 11.3695 91.4307 14.1441 91.9611 16.8211C92.4916 19.4981 93.8019 21.9571 95.7262 23.887C97.6505 25.8169 100.102 27.131 102.772 27.663C105.441 28.1951 108.207 27.9211 110.721 26.8757C113.235 25.8304 115.383 24.0608 116.894 21.7906C118.405 19.5205 119.21 16.852 119.208 14.1226C119.208 12.3122 118.853 10.5195 118.162 8.84684C117.471 7.17421 116.459 5.65441 115.182 4.37423C113.906 3.09405 112.39 2.07856 110.723 1.38573C109.055 0.692901 107.267 0.336307 105.462 0.336307ZM109.718 7.65913C109.962 7.06309 110.113 6.43305 110.165 5.79106C110.237 6.43802 110.413 7.06896 110.687 7.65913C111.28 7.90718 111.909 8.06157 112.549 8.11681C111.905 8.18727 111.276 8.3607 110.687 8.63053C110.442 9.22664 110.288 9.85643 110.23 10.4986C110.158 9.85299 109.985 9.22272 109.718 8.63053C109.123 8.38859 108.495 8.23747 107.856 8.18219C108.5 8.10768 109.129 7.93113 109.718 7.65913ZM110.65 24.0888C109.248 24.8069 107.712 25.2202 106.141 25.3016C104.569 25.383 102.998 25.1307 101.531 24.5612C100.063 23.9918 98.7324 23.1179 97.625 21.9969C96.5175 20.8759 95.6586 19.533 95.1043 18.056C94.5501 16.5791 94.3131 15.0014 94.4088 13.4263C94.5046 11.8511 94.9309 10.314 95.6598 8.91549C96.3888 7.51698 97.404 6.28862 98.639 5.31079C99.874 4.33295 101.301 3.62769 102.826 3.24115C100.92 4.88637 99.6223 7.12854 99.1437 9.60502C98.6651 12.0815 99.0335 14.6475 100.189 16.888C101.345 19.1285 103.221 20.9124 105.513 21.9514C107.805 22.9903 110.379 23.2234 112.82 22.613C112.142 23.1922 111.398 23.6877 110.603 24.0888H110.65Z" fill="white"/>
<path d="M13.532 19.9883C13.5948 18.9258 13.263 17.8777 12.6007 17.0461C12.1996 16.6508 11.7183 16.347 11.1896 16.1551C10.6608 15.9633 10.097 15.8881 9.53667 15.9346H4.88009L4.96391 23.5937H9.89057C10.2401 23.5887 10.5888 23.5575 10.9336 23.5003C11.3643 23.4383 11.7752 23.2786 12.135 23.0332C12.5514 22.7534 12.896 22.379 13.1409 21.9404C13.4469 21.3372 13.5913 20.6644 13.56 19.9883M13.0384 8.75187C13.0565 8.19209 12.9348 7.63665 12.6845 7.13599C12.4606 6.71856 12.1415 6.36011 11.7532 6.08988C11.3826 5.84057 10.9736 5.65436 10.5425 5.53879C10.1415 5.43063 9.72839 5.37413 9.31316 5.37067H4.93597C4.93597 6.61293 4.88009 7.7618 4.85215 8.82659C4.82421 9.89139 4.85215 11.0496 4.85215 12.2825H9.31316C9.7205 12.2784 10.1263 12.2315 10.5239 12.1424C10.9556 12.0419 11.3637 11.8579 11.7253 11.6007C12.1147 11.3162 12.4334 10.9454 12.6566 10.5172C12.9259 9.96894 13.057 9.36278 13.0384 8.75187ZM17.9371 20.1004C17.9627 21.245 17.7336 22.3809 17.2666 23.4255C16.849 24.3209 16.2345 25.1097 15.4692 25.7326C14.6732 26.3631 13.7574 26.8239 12.7776 27.087C11.6962 27.3937 10.5767 27.5447 9.45285 27.5353C8.39115 27.5353 7.39464 27.5353 6.47264 27.4606C5.55064 27.3858 4.49825 27.3858 3.33411 27.3858C2.91502 27.3858 2.40279 27.3858 1.83469 27.3858C1.26659 27.3858 0.689173 27.3858 0.14901 27.4606C0.0745052 27.4606 0.0372526 27.4139 0.0372526 27.3111C0.0325268 27.272 0.0409488 27.2323 0.0611877 27.1985C0.0814266 27.1647 0.112328 27.1386 0.14901 27.1243C0.335176 27.0811 0.505921 26.9874 0.642608 26.8534C0.753906 26.6806 0.815164 26.4801 0.819558 26.2743C0.819558 25.9474 0.819558 25.4711 0.819558 24.8453C0.819558 24.2195 0.819558 23.5003 0.819558 22.725C0.819558 21.9498 0.819558 21.1185 0.819558 20.2685C0.819558 19.4185 0.819558 18.5686 0.819558 17.756V13.8517C0.819558 12.7122 0.819558 11.7408 0.819558 10.9469C0.819558 10.1529 0.819558 9.42438 0.819558 8.75187L0.782305 6.7437C0.782305 6.07119 0.782305 5.30529 0.782305 4.43664V3.82017C0.782216 3.58555 0.763531 3.3513 0.726426 3.11965C0.689357 2.90023 0.623598 2.68668 0.53085 2.4845C0.457724 2.30994 0.321251 2.16973 0.14901 2.09221C0 2.07353 0 2.00815 0 1.86804C0 1.72794 0 1.7186 0.111758 1.7186H0.409779C0.828871 1.7186 1.34109 1.7186 1.85332 1.7186H3.33411C4.26542 1.7186 5.19674 1.7186 6.19325 1.7186C7.18976 1.7186 8.05588 1.7186 8.94063 1.62519C10.012 1.60143 11.0805 1.74641 12.1071 2.05485C13.0644 2.30842 13.9609 2.75319 14.7427 3.3625C15.4958 3.96641 16.1038 4.73257 16.5215 5.60418C16.9975 6.60016 17.2336 7.69434 17.2107 8.79857C17.2328 9.90607 16.9422 10.9973 16.3725 11.9463C15.8215 12.863 14.9733 13.562 13.9697 13.9264C14.5722 14.1072 15.124 14.4271 15.5809 14.8605C16.0658 15.2999 16.486 15.8062 16.8289 16.3642C17.178 16.9482 17.4474 17.5765 17.6298 18.2323C17.8116 18.8544 17.9057 19.4989 17.9092 20.1471" fill="white"/>
<path d="M39.4221 27.7969C39.4097 27.8325 39.3873 27.8639 39.3575 27.8871C39.3278 27.9103 39.292 27.9243 39.2545 27.9276C39.2199 27.9365 39.1833 27.9317 39.1521 27.9143C39.121 27.897 39.0976 27.8683 39.0868 27.8342L39.0309 27.6848L38.9099 27.6101L34.8773 27.498L31.301 27.4233C30.1648 27.4233 29.0659 27.4233 28.0228 27.4233C26.9797 27.4233 25.9087 27.4233 24.847 27.4233H23.6084L22.5094 27.4793H22.2859C22.2114 27.4793 22.1741 27.4326 22.1741 27.3298C22.1694 27.2907 22.1778 27.2511 22.1981 27.2172C22.2183 27.1834 22.2492 27.1573 22.2859 27.143C22.4756 27.1019 22.6498 27.008 22.7888 26.8722C22.892 26.6962 22.9496 26.4971 22.9564 26.2931C22.9564 25.9662 22.9564 25.4898 22.9564 24.864C22.9564 24.2382 22.9564 23.519 22.9564 22.7344V13.8517C22.9564 12.7122 22.9564 11.7408 22.9564 10.9469C22.9564 10.153 22.9564 9.42442 22.9564 8.75191C22.9564 8.07941 22.9564 7.41625 22.9564 6.74374C22.9564 6.07124 22.9564 5.30533 22.9564 4.43668V3.82022C22.9563 3.58559 22.9377 3.35134 22.9006 3.11969C22.8665 2.90071 22.8038 2.68717 22.7143 2.48455C22.6406 2.30716 22.5 2.16616 22.3231 2.09225C22.2486 2.09225 22.2114 2.00819 22.2114 1.90545C22.2114 1.8027 22.2114 1.756 22.3231 1.756H22.6212C23.0372 1.756 23.4656 1.77468 23.9064 1.81204C24.3348 1.81204 24.7818 1.81204 25.2568 1.81204L27.939 1.86808C28.8703 1.86808 29.8668 1.86808 30.8261 1.86808C31.7853 1.86808 32.8936 1.86808 34.0577 1.86808H37.2428C37.556 1.88995 37.8703 1.88995 38.1834 1.86808C38.4256 1.86808 38.5653 1.72798 38.5932 1.55051C38.6212 1.37305 38.6957 1.37305 38.8447 1.37305L38.9564 1.41975V1.47579V4.08174C38.9564 4.59546 38.9564 5.07182 38.9564 5.53884C38.9564 6.00586 39.1148 6.33277 39.1148 6.53825C39.1148 6.74374 39.1148 6.69704 38.9937 6.70638C38.9671 6.71773 38.9381 6.72201 38.9095 6.71882C38.8808 6.71562 38.8534 6.70506 38.83 6.68816C38.8066 6.67125 38.7879 6.64857 38.7758 6.62231C38.7637 6.59605 38.7586 6.5671 38.7609 6.53825C38.734 6.38528 38.677 6.23921 38.5932 6.1086C38.4383 6.01978 38.2674 5.96264 38.0903 5.94047C36.8517 5.77235 35.7807 5.65092 34.8773 5.56686C33.9739 5.4828 33.1264 5.45477 32.3162 5.44543C31.5059 5.43609 30.705 5.44543 29.8947 5.44543L27.1008 5.5762L27.0077 11.993C29.1312 12.1371 31.2614 12.1559 33.3872 12.0491C35.4361 11.937 37.2025 11.7813 38.6864 11.582C38.7661 11.5727 38.841 11.5391 38.901 11.4856C38.9609 11.4321 39.0031 11.3614 39.0216 11.2831C39.0216 11.1804 39.1055 11.143 39.1893 11.1524C39.2731 11.1617 39.3197 11.2084 39.3197 11.2831C39.3197 11.582 39.3197 11.9463 39.2638 12.376C39.2079 12.8056 39.2638 13.2633 39.2638 13.721C39.2638 14.1787 39.2638 14.655 39.2638 15.0753C39.2638 15.4956 39.2638 15.9346 39.3197 16.3082C39.3197 16.3736 39.2638 16.411 39.152 16.411C39.0403 16.411 38.9844 16.411 38.9844 16.3363C38.955 16.2425 38.8969 16.1605 38.8183 16.1018C38.7397 16.0431 38.6446 16.0107 38.5467 16.0094C36.833 15.8039 34.9704 15.6731 32.9588 15.5984C30.9471 15.5237 28.9541 15.533 27.0263 15.5984C27.0263 16.411 27.0263 17.1302 27.0263 17.7373C27.0263 18.3444 27.0263 18.9235 27.0263 19.484C27.0263 20.0444 27.0263 20.6328 27.0822 21.2493C27.138 21.8658 27.1287 22.5943 27.1567 23.4069C28.088 23.4816 29.0193 23.5377 29.8854 23.5564C30.7515 23.575 31.627 23.5564 32.4745 23.5564C33.322 23.5564 34.1881 23.5564 35.0542 23.5003C35.9203 23.4443 36.8237 23.3976 37.7644 23.2948C37.9951 23.2661 38.2227 23.216 38.4442 23.1454C38.5633 23.1193 38.673 23.0612 38.7616 22.9773C38.8503 22.8933 38.9144 22.7868 38.9471 22.669C38.962 22.6142 38.9931 22.5652 39.0363 22.5285C39.0795 22.4918 39.1329 22.4691 39.1893 22.4635C39.301 22.4635 39.3569 22.5196 39.3569 22.6317C39.3569 22.8278 39.3569 23.1547 39.3569 23.6124C39.3569 24.0701 39.3569 24.5464 39.3569 25.0788C39.3569 25.6112 39.3569 26.1156 39.3569 26.6106C39.3569 27.1057 39.3569 27.4793 39.4128 27.7221" fill="white"/>
<path d="M53.5503 5.70694C53.4851 6.77174 53.4293 7.98598 53.392 9.34967C53.3548 10.7134 53.2803 12.1518 53.1685 13.6649C53.0567 15.178 52.8705 16.7285 52.6283 18.3351C52.3859 19.8988 52.012 21.4393 51.5108 22.9399C51.0265 24.4177 50.3733 25.8344 49.5643 27.1617C48.7695 28.4802 47.7552 29.6523 46.5655 30.627C46.3059 30.8281 46.1009 31.0915 45.9694 31.3929C45.9287 31.5297 45.9037 31.6707 45.8949 31.8132C45.8883 31.8546 45.8711 31.8935 45.8449 31.9263C45.8188 31.959 45.7847 31.9844 45.7459 32H45.5597C45.243 31.533 44.8705 30.9445 44.4514 30.2347C44.0959 29.6147 43.6744 29.0353 43.1941 28.5067C43.1711 28.4603 43.1592 28.4091 43.1592 28.3573C43.1592 28.3054 43.1711 28.2543 43.1941 28.2078C43.1941 28.1051 43.3245 28.0864 43.4735 28.1331C43.5548 28.157 43.6403 28.1627 43.7239 28.1498C43.8076 28.1369 43.8875 28.1057 43.9578 28.0584C44.0769 27.9954 44.1893 27.9203 44.2931 27.8342C45.2835 27.0246 46.0632 25.9862 46.5655 24.8079C47.2263 23.4115 47.7293 21.9453 48.0649 20.4367C48.4497 18.7495 48.7296 17.0401 48.9031 15.3181C49.0893 13.5248 49.2104 11.7782 49.2663 10.0876C49.3222 8.39696 49.3594 6.84646 49.3501 5.41739C49.3408 3.98831 49.3594 2.80209 49.3594 1.86806C51.9112 2.0175 54.4227 2.05486 56.8938 1.98014C59.3617 1.90542 61.9136 1.84938 64.5306 1.79333C64.4095 4.42731 64.3257 6.9959 64.2791 9.5178C64.2325 12.0397 64.1953 14.4588 64.1953 16.7846C64.1953 18.1763 64.1953 19.3905 64.1953 20.418C64.1953 21.4454 64.2605 22.4168 64.2605 23.1827C64.2605 23.9486 64.335 24.6772 64.3536 25.2656C64.3722 25.854 64.4095 26.3958 64.4281 26.8628C64.4281 27.1897 64.6144 27.3672 64.9124 27.3859C64.9869 27.3859 65.0241 27.4419 65.0241 27.554C65.0241 27.6661 64.9869 27.7221 64.9124 27.7221L63.8227 27.6474C63.385 27.6474 62.8914 27.6474 62.463 27.6474H61.0567C60.5911 27.6474 60.1254 27.6474 59.7995 27.7034H59.6318H59.4642C59.3897 27.7034 59.3524 27.6474 59.3524 27.5353C59.3524 27.4232 59.3897 27.3672 59.4642 27.3672C59.7808 27.3672 59.9578 27.143 59.9857 26.7787C60.1254 25.2656 60.2372 23.5283 60.3117 21.5668C60.3862 19.6054 60.4328 17.6439 60.4421 15.6731C60.4514 13.7023 60.4421 11.8249 60.4421 10.0689C60.4421 8.31289 60.3676 6.84646 60.2931 5.70694C59.2407 5.60419 58.4304 5.60419 57.8716 5.60419C57.3129 5.60419 56.8472 5.60419 56.4654 5.60419C56.0835 5.60419 55.6924 5.60419 55.3012 5.66024L53.5503 5.791" fill="white"/>
<path d="M89.9741 26.237C90.03 26.2837 89.9741 26.3398 89.9182 26.3865H89.6854C89.4339 26.1623 89.0334 26.1997 88.4933 26.4986C87.5908 26.9642 86.6189 27.2796 85.6155 27.4326C84.641 27.5746 83.6573 27.6433 82.6726 27.6381C80.8318 27.6409 79.0045 27.3249 77.2709 26.704C75.6923 26.1423 74.2419 25.2689 73.0055 24.1354C71.8006 22.9887 70.8489 21.6014 70.2116 20.0631C69.5076 18.3455 69.159 16.5024 69.1871 14.6457C69.1626 12.8919 69.479 11.1502 70.1184 9.51781C70.7361 7.96533 71.6613 6.55454 72.8379 5.3707C74.0403 4.164 75.4717 3.21121 77.0474 2.5686C78.7707 1.87912 80.6124 1.53637 82.4677 1.55985C83.2593 1.55985 84.0788 1.55985 84.9357 1.65325C85.8501 1.7345 86.7511 1.92901 87.6178 2.23235C87.8972 2.30707 88.1487 2.37245 88.3815 2.41916C88.4714 2.44784 88.5666 2.45601 88.66 2.44309C88.7535 2.43016 88.8429 2.39645 88.9217 2.34443C88.9557 2.32476 88.9942 2.3144 89.0334 2.3144C89.0727 2.3144 89.1112 2.32476 89.1452 2.34443C89.2383 2.34443 89.2663 2.41916 89.2197 2.49388C89.0893 2.74607 88.9496 3.0543 88.7913 3.42791C88.633 3.80153 88.4747 4.23118 88.307 4.67018C88.1394 5.10917 87.9718 5.45477 87.8227 5.83772C87.6737 6.22067 87.5433 6.53825 87.4502 6.81846C87.4502 6.89318 87.3664 6.91186 87.2733 6.8745C87.1801 6.83714 87.1336 6.78109 87.1615 6.70637C87.1594 6.62241 87.1381 6.54005 87.0994 6.46558C87.0606 6.39111 87.0054 6.32651 86.938 6.27672C86.6799 6.10887 86.4052 5.96803 86.1184 5.8564C85.4983 5.56338 84.8345 5.37408 84.1534 5.29598C83.4885 5.22141 82.82 5.18399 82.151 5.1839C80.9091 5.16334 79.6811 5.44879 78.5748 6.01519C77.541 6.56009 76.626 7.30631 75.8833 8.21017C75.1377 9.12177 74.5662 10.1635 74.1976 11.2831C73.8208 12.3835 73.6258 13.5383 73.6202 14.7017C73.6027 15.9787 73.8304 17.2471 74.2907 18.4378C74.7106 19.5246 75.344 20.5156 76.1534 21.352C76.9683 22.181 77.9448 22.8327 79.0218 23.2668C80.2043 23.7437 81.4734 23.9665 82.7471 23.9206C83.3897 23.9206 83.9764 23.8459 84.5259 23.7712C85.163 23.68 85.7878 23.5171 86.3885 23.2855C86.729 23.1671 87.0448 22.9866 87.3198 22.7531C87.6272 22.4915 87.7669 22.258 87.7389 22.0619C87.711 21.8657 87.7389 21.8657 87.8507 21.8377C87.9624 21.8097 88.0183 21.8377 88.0369 21.9124C88.1394 22.2113 88.2698 22.5569 88.4467 22.9492C88.6237 23.3415 88.8006 23.7525 88.9869 24.1448C89.1731 24.5371 89.3594 24.9294 89.5643 25.3123C89.7692 25.6953 89.9368 26.0129 90.0765 26.2464" fill="white"/>
<path d="M142.911 2.69006C142.827 2.69876 142.745 2.72482 142.671 2.76661C142.598 2.8084 142.533 2.86502 142.482 2.93291C142.424 3.04508 142.38 3.16438 142.352 3.28784C142.352 3.70816 142.259 4.30594 142.222 5.07185C142.184 5.83776 142.166 6.70641 142.147 7.6778C142.129 8.6492 142.147 9.6673 142.091 10.7414C142.035 11.8156 142.091 12.871 142.091 13.8891C142.091 15.2715 142.091 16.4577 142.091 17.4385C142.091 18.4192 142.091 19.3065 142.147 20.0071C142.203 20.7076 142.203 21.3707 142.222 21.8751C142.24 22.3795 142.278 22.9119 142.296 23.3789C142.293 23.5061 142.337 23.6301 142.419 23.7267C142.502 23.8234 142.617 23.8858 142.743 23.902H142.892C142.967 23.902 143.004 23.9674 143.004 24.0888C143.004 24.2102 143.004 24.2569 142.892 24.2382C142.594 24.2382 142.212 24.1822 141.747 24.1635C141.281 24.1448 140.815 24.1635 140.257 24.1635C139.698 24.1635 139.232 24.1635 138.739 24.1635C138.245 24.1635 137.807 24.2102 137.435 24.2382H137.109C137.034 24.2382 136.997 24.1822 136.997 24.0701C136.997 23.958 137.034 23.902 137.109 23.902C137.271 23.8777 137.428 23.8272 137.574 23.7525C137.647 23.7023 137.707 23.6355 137.749 23.5576C137.791 23.4796 137.814 23.3928 137.817 23.3042C137.817 22.4169 137.863 21.6416 137.882 20.9971C137.9 20.3526 137.938 19.7455 137.956 19.1291C137.975 18.5126 137.956 17.9522 137.956 17.3077V15.0754C136.475 14.9539 134.818 14.8792 132.974 14.8512C131.195 14.825 129.417 14.8998 127.647 15.0754V18.223C127.647 19.1571 127.647 20.0911 127.647 20.9317C127.647 21.7724 127.712 22.7251 127.758 23.6498C127.805 24.5745 127.861 25.6206 127.907 26.7601C127.904 26.8863 127.948 27.0091 128.031 27.1042C128.114 27.1993 128.229 27.2598 128.354 27.2738H128.522C128.597 27.2738 128.634 27.3299 128.634 27.442C128.634 27.554 128.597 27.6101 128.522 27.6101L127.367 27.554H125.831H124.257L122.99 27.6101H122.664C122.59 27.6101 122.543 27.554 122.543 27.442C122.543 27.3299 122.543 27.2738 122.664 27.2738C122.825 27.2553 122.98 27.2045 123.12 27.1244C123.196 27.0795 123.258 27.0151 123.301 26.9379C123.344 26.8608 123.365 26.7736 123.363 26.6854C123.363 26.1623 123.363 25.4431 123.437 24.5278C123.512 23.6124 123.493 22.5663 123.512 21.3988C123.53 20.2312 123.512 18.989 123.567 17.6626C123.623 16.3363 123.567 15.0006 123.567 13.665V10.4239C123.567 9.31236 123.567 8.24756 123.567 7.22947C123.567 6.21137 123.567 5.29602 123.493 4.47407C123.418 3.65212 123.409 3.02631 123.363 2.606C123.345 2.51466 123.313 2.42651 123.269 2.34447C123.269 2.26975 123.13 2.21371 122.953 2.15766C122.776 2.10162 122.85 2.0736 122.85 1.97086C122.85 1.86811 122.85 1.82141 122.953 1.82141C123.353 1.82141 123.819 1.86811 124.368 1.87745C124.918 1.88679 125.458 1.87745 125.998 1.87745C126.538 1.87745 127.051 1.87745 127.516 1.87745C127.982 1.87745 128.336 1.87745 128.559 1.82141C128.634 1.82141 128.671 1.87745 128.671 1.97086C128.671 2.06426 128.671 2.13898 128.559 2.15766C128.336 2.21371 128.187 2.28843 128.131 2.40051C128.07 2.51152 128.026 2.63119 128 2.75545C127.954 3.05434 127.917 3.52135 127.889 4.14716C127.861 4.77296 127.889 5.49216 127.814 6.28609C127.74 7.08002 127.768 7.92065 127.74 8.79865C127.712 9.67664 127.74 10.5173 127.665 11.3112C129.664 11.4606 131.546 11.5229 133.309 11.498C135.06 11.498 136.606 11.4046 137.966 11.3112C137.966 10.62 137.966 9.8541 137.966 9.02281C137.966 8.19152 137.966 7.38825 137.919 6.62235C137.872 5.85644 137.835 5.12789 137.835 4.51143C137.835 3.89497 137.835 3.43729 137.77 3.1384C137.745 3.05267 137.726 2.96527 137.714 2.87687C137.714 2.80215 137.602 2.73676 137.425 2.69006C137.39 2.67426 137.362 2.6475 137.343 2.61381C137.325 2.58012 137.318 2.54132 137.323 2.50326C137.323 2.40051 137.323 2.35381 137.425 2.35381C138.496 2.35381 139.539 2.42853 140.564 2.42853C141.588 2.42853 142.427 2.42853 142.957 2.35381C143.032 2.35381 143.069 2.35381 143.069 2.50326C143.076 2.54263 143.068 2.58304 143.048 2.61727C143.027 2.65149 142.995 2.6773 142.957 2.69006" fill="white"/>
<path d="M148.498 2.8488H149.345C149.69 2.8488 149.811 2.69001 149.811 2.45651C149.811 2.223 149.69 2.07355 149.345 2.07355H148.498V2.8488ZM149.271 1.30764C150.333 1.30764 150.603 1.94279 150.603 2.45651C150.607 2.67502 150.535 2.88816 150.399 3.05882C150.263 3.22949 150.071 3.34687 149.858 3.39054L150.668 4.53006H149.83L149.094 3.54932H148.498V4.51138H147.697V1.30764H149.271ZM146.784 2.91418C146.755 3.23838 146.794 3.56508 146.898 3.87346C147.002 4.18184 147.169 4.46516 147.388 4.70536C147.607 4.94557 147.873 5.1374 148.17 5.26865C148.467 5.39989 148.788 5.46767 149.113 5.46767C149.437 5.46767 149.758 5.39989 150.055 5.26865C150.352 5.1374 150.619 4.94557 150.838 4.70536C151.057 4.46516 151.224 4.18184 151.327 3.87346C151.431 3.56508 151.47 3.23838 151.441 2.91418C151.47 2.58998 151.431 2.26329 151.327 1.9549C151.224 1.64652 151.057 1.36321 150.838 1.123C150.619 0.882794 150.352 0.690961 150.055 0.559717C149.758 0.428472 149.437 0.360692 149.113 0.360692C148.788 0.360692 148.467 0.428472 148.17 0.559717C147.873 0.690961 147.607 0.882794 147.388 1.123C147.169 1.36321 147.002 1.64652 146.898 1.9549C146.794 2.26329 146.755 2.58998 146.784 2.91418ZM152 2.91418C152 3.29443 151.925 3.67095 151.78 4.02224C151.635 4.37354 151.422 4.69274 151.154 4.96161C150.886 5.23049 150.568 5.44377 150.218 5.58928C149.867 5.73479 149.492 5.80969 149.113 5.80969C148.734 5.80969 148.358 5.73479 148.008 5.58928C147.658 5.44377 147.339 5.23049 147.071 4.96161C146.803 4.69274 146.59 4.37354 146.445 4.02224C146.3 3.67095 146.226 3.29443 146.226 2.91418C146.226 2.53394 146.3 2.15742 146.445 1.80612C146.59 1.45482 146.803 1.13562 147.071 0.866751C147.339 0.597878 147.658 0.384597 148.008 0.239084C148.358 0.0935712 148.734 0.0186768 149.113 0.0186768C149.492 0.0186768 149.867 0.0935712 150.218 0.239084C150.568 0.384597 150.886 0.597878 151.154 0.866751C151.422 1.13562 151.635 1.45482 151.78 1.80612C151.925 2.15742 152 2.53394 152 2.91418Z" fill="white"/>
</g>
<defs>
<clipPath id="clip0_501_119">
<rect width="152" height="32" fill="white"/>
</clipPath>
</defs>
</svg>
