<svg width="24" height="24" viewBox="0 0 24 24" fill="none" xmlns="http://www.w3.org/2000/svg">
  <path
    d="M22.5 12.6063C22.3248 14.5017 21.6134 16.3525 20.4492 17.8583C19.2849 19.3641 17.7159 20.5072 15.9257 21.1539C14.1354 21.8005 12.1981 21.9239 10.3403 21.5097C8.48247 21.0954 6.78107 20.1607 5.43514 18.8147C4.08922 17.4688 3.15445 15.7674 2.7402 13.9096C2.32595 12.0518 2.44937 10.1145 3.09601 8.32424C3.74265 6.53402 4.88577 4.96499 6.3916 3.80073C7.89743 2.63648 9.7037 1.92515 11.599 1.75C10.4894 3.25125 9.9554 5.10092 10.0942 6.9626C10.2331 8.82428 11.0355 10.5743 12.3555 11.8944C13.6756 13.2144 15.4256 14.0168 17.2873 14.1557C19.149 14.2945 20.9987 13.716 22.5 12.6063Z"
    stroke="#0068d7" stroke-width="1.5" stroke-linecap="round" stroke-linejoin="round" fill="white"/>
</svg>