<svg width="516" height="101" viewBox="0 0 516 101" fill="none" xmlns="http://www.w3.org/2000/svg">
<g clip-path="url(#clip0_1154_1142)">
<path d="M51.0244 27.4808C47.4715 28.9461 44.0741 30.4714 40.8083 32.0688C40.581 34.2308 40.3417 36.3807 40.0905 38.5427L39.7914 41.209C39.7435 41.6415 39.6837 42.0739 39.624 42.4942C37.2913 61.7236 34.1091 80.9649 30.4367 100.17H37.7578C42.2557 78.5147 46.359 57.3396 49.8162 35.8882C49.888 35.4559 49.9597 35.0115 50.0315 34.5792L50.4382 31.9488C50.6775 30.4353 50.9048 28.9221 51.1439 27.4086C51.0962 27.4327 51.0603 27.4447 51.0124 27.4687" fill="white"/>
<path d="M55.3471 72.7133L55.3112 72.7974L54.2585 75.4638L54.2344 75.5359L53.9594 76.2444C53.7321 76.8211 53.4928 77.4456 53.2417 78.1062C53.0981 78.4905 52.9426 78.8989 52.787 79.3072C49.605 87.6908 45.0353 100.194 45.0353 100.194H50.6816C52.9186 100.17 52.8708 98.5966 53.7321 96.6869C56.5194 89.5405 59.4861 82.4301 62.5606 75.3317C62.7399 74.9114 62.9074 74.4909 63.099 74.0826C63.3621 73.4821 63.6013 72.8934 63.8644 72.2929L64.2473 71.4401L64.2712 71.3802L66.6757 66.0353L66.6996 65.9872C62.5367 68.5455 58.6368 70.8276 55.359 72.7373" fill="white"/>
<path d="M62.3704 1.72955C48.4698 2.1139 43.0985 5.88529 42.0697 18.6648C41.8065 21.9677 41.4954 25.2708 41.1604 28.5857C43.9717 27.2405 46.8667 25.9433 49.8813 24.7062C50.5034 24.4541 51.1015 24.2017 51.6756 23.9616C51.927 22.3161 52.1663 20.6826 52.4054 19.0371C54.5587 3.92753 72.8856 7.56682 83.7238 7.56682C74.0221 27.6008 65.2414 47.815 57.1427 68.1733C60.6118 66.1315 64.7031 63.6692 68.9857 60.9548C75.5173 46.7702 82.5276 32.6695 89.9325 18.6167C90.0879 18.3165 90.2434 18.0042 90.4109 17.704C90.734 17.0915 91.057 16.4908 91.3799 15.8783C91.5354 15.59 91.691 15.3018 91.8465 15.0015C92.2292 14.2809 92.6121 13.5482 93.0069 12.8275C93.1983 12.4672 93.4017 12.1069 93.5931 11.7586C95.6985 7.83104 97.8159 3.91552 99.9691 0C89.717 5.36884 73.8426 1.41728 62.3704 1.72955Z" fill="white"/>
<path d="M51.0244 27.4808C125.887 -3.38709 -42.7968 67.8973 27.0057 82.9708C18.6079 84.4842 2.60174 86.0697 0.209203 73.4342C-1.10669 66.3119 3.78605 58.0483 14.8635 48.656C24.5414 40.4526 36.5877 33.4143 51.0149 27.4809" fill="white"/>
<path d="M65.3734 70.8999C-9.50115 101.768 159.185 30.4956 89.3826 15.41C97.7803 13.8966 113.787 12.2992 116.179 24.9467C117.495 32.069 112.602 40.3325 101.525 49.7249C91.8468 57.9283 79.8005 64.9666 65.3734 70.8999Z" fill="white"/>
<path d="M185.668 25.0066L174.902 83.4992H166.911L176.373 31.8407H150.498L141.035 83.4992H133.044L143.727 25.0066H185.668Z" fill="white"/>
<path d="M192.152 60.4625C195.334 60.3545 198.229 60.1382 200.849 59.826C203.469 59.5137 205.717 58.9852 207.607 58.2165C209.498 57.4599 210.934 56.4269 211.939 55.1417C212.943 53.8445 213.397 52.1631 213.29 50.0732C213.267 49.5687 213.146 49.0282 212.919 48.4638C212.692 47.8992 212.345 47.3827 211.854 46.9022C211.365 46.4218 210.693 46.0255 209.857 45.7253C209.02 45.413 207.99 45.2569 206.782 45.2569C204.857 45.2569 203.085 45.6772 201.447 46.518C199.821 47.3588 198.373 48.4758 197.129 49.857C195.885 51.2381 194.831 52.8476 193.994 54.6733C193.156 56.499 192.535 58.4327 192.152 60.4625ZM201.22 84.6043C198.421 84.6043 195.98 84.1958 193.911 83.3791C191.84 82.5623 190.07 81.4333 188.636 80.0041C187.188 78.5748 186.087 76.8934 185.333 74.9837C184.579 73.0738 184.149 71.044 184.03 68.906C183.826 64.9666 184.209 61.1712 185.177 57.5078C186.147 53.8445 187.63 50.6136 189.627 47.8031C191.626 44.9925 194.126 42.7465 197.117 41.0891C200.108 39.4316 203.553 38.5908 207.452 38.5908C209.701 38.5908 211.652 38.891 213.302 39.4797C214.953 40.0682 216.316 40.8729 217.381 41.8939C218.447 42.9027 219.26 44.0798 219.821 45.401C220.384 46.7222 220.694 48.0914 220.766 49.4966C220.898 52.139 220.551 54.3851 219.714 56.2106C218.876 58.0363 217.717 59.5738 216.244 60.8109C214.773 62.0479 213.026 63.0088 210.994 63.6814C208.972 64.3541 206.854 64.8944 204.653 65.2909C202.452 65.6871 200.215 65.9515 197.942 66.0956C195.669 66.2397 193.515 66.3598 191.494 66.48C191.458 66.9364 191.458 67.2966 191.469 67.573C191.483 67.8492 191.494 68.0774 191.506 68.2456C191.566 69.5426 191.782 70.7678 192.152 71.9209C192.511 73.0738 193.133 74.0827 193.994 74.9596C194.868 75.8363 196.04 76.521 197.523 77.0255C199.007 77.5299 200.933 77.7821 203.289 77.7821C204.329 77.7821 205.406 77.6861 206.532 77.4818C207.644 77.2896 208.708 77.0255 209.701 76.7252C210.693 76.4129 211.592 76.1127 212.368 75.8002C213.146 75.488 213.672 75.1637 214.008 74.9115C214.726 74.383 215.215 73.9747 215.215 73.9747L213.684 82.226C213.684 82.226 211.388 83.1029 209.797 83.5593C207.392 84.256 204.533 84.6163 201.243 84.6163" fill="white"/>
<path d="M291.513 77.3377C292.063 77.4459 292.661 77.5179 293.295 77.554C293.93 77.578 294.551 77.6021 295.149 77.6021C298.283 77.6021 301.047 76.9775 303.463 75.7403C305.868 74.5032 307.89 72.8337 309.505 70.7199C311.131 68.606 312.34 66.1918 313.129 63.4653C313.918 60.7389 314.242 57.8803 314.087 54.9016C314.027 53.6645 313.823 52.4513 313.488 51.2744C313.154 50.0973 312.591 49.0524 311.801 48.1515C311.011 47.2507 309.971 46.53 308.68 46.0017C307.387 45.4731 305.748 45.1969 303.774 45.1969C302.399 45.1969 301.142 45.329 300.006 45.5812C298.869 45.8335 297.912 46.0736 297.159 46.3019L291.5 77.3618L291.513 77.3377ZM305.342 38.5068C308.034 38.5068 310.378 38.9032 312.364 39.6839C314.349 40.4766 316.012 41.5575 317.352 42.9389C318.693 44.3201 319.721 45.9536 320.451 47.8392C321.181 49.7249 321.598 51.7909 321.718 54.0488C321.922 57.9283 321.526 61.6877 320.57 65.3149C319.601 68.9423 317.998 72.1612 315.749 74.9837C313.501 77.7943 310.594 80.0523 307.028 81.7337C303.463 83.4153 299.181 84.268 294.18 84.268C293.571 84.268 292.913 84.2439 292.195 84.184C291.477 84.1239 290.842 84.0399 290.293 83.9317L287.339 100.206H279.67L290.425 41.4735C292.686 40.5127 295.162 39.7799 297.852 39.2755C300.544 38.7711 303.044 38.5188 305.353 38.5188" fill="white"/>
<path d="M340.807 77.9264C343.284 77.9264 345.449 77.1936 347.326 75.7283C349.205 74.2631 350.76 72.3893 351.98 70.1192C353.213 67.8373 354.11 65.3269 354.684 62.5644C355.258 59.8141 355.474 57.1356 355.342 54.5412C355.198 51.6706 354.469 49.3887 353.176 47.7071C351.885 46.0137 349.756 45.1729 346.789 45.1729C344.312 45.1729 342.146 45.9055 340.269 47.3708C338.391 48.8361 336.848 50.7098 335.615 52.9919C334.383 55.274 333.486 57.7842 332.912 60.5467C332.337 63.3092 332.122 65.9755 332.254 68.5699C332.398 71.4405 333.116 73.7226 334.42 75.404C335.711 77.0856 337.841 77.9384 340.807 77.9384V77.9264ZM339.827 84.6043C335.317 84.6043 331.728 83.2352 329.024 80.5087C326.332 77.7822 324.861 74.0228 324.622 69.2425C324.454 65.9755 324.729 62.5405 325.459 58.9372C326.177 55.3339 327.456 52.019 329.275 48.9803C331.093 45.9415 333.521 43.4434 336.549 41.4615C339.575 39.4917 343.319 38.5068 347.769 38.5068C352.219 38.5068 355.868 39.8761 358.572 42.6026C361.263 45.329 362.735 49.0883 362.973 53.8687C363.142 57.1356 362.867 60.5707 362.137 64.1739C361.419 67.7772 360.14 71.0921 358.321 74.1308C356.503 77.1697 354.075 79.6679 351.047 81.6497C348.021 83.6194 344.277 84.6043 339.827 84.6043Z" fill="white"/>
<path d="M375.762 57.6761H382.102C383.861 57.6761 385.487 57.544 386.982 57.2917C388.478 57.0395 389.757 56.6191 390.834 56.0306C391.899 55.4421 392.724 54.6374 393.311 53.6284C393.885 52.6195 394.135 51.3223 394.052 49.7489C393.98 48.2836 393.406 47.0946 392.342 46.1578C391.277 45.2328 389.674 44.7644 387.533 44.7644C386.217 44.7644 384.924 44.9206 383.68 45.2328C382.436 45.5451 381.276 46.1337 380.224 47.0104C379.172 47.8873 378.261 49.1124 377.483 50.6857C376.718 52.2593 376.167 54.3131 375.857 56.8473L375.738 57.6881L375.762 57.6761ZM374.649 63.4172L372.161 77.6861C372.938 77.8063 374.003 77.9143 375.354 78.0224C376.707 78.1306 378.345 78.1905 380.259 78.1905C382.017 78.1905 383.692 78.0464 385.307 77.7702C386.91 77.482 388.323 77.0255 389.518 76.3769C390.727 75.7283 391.659 74.8395 392.342 73.7225C393.023 72.5935 393.322 71.1883 393.239 69.5067C393.132 67.3689 392.33 65.8194 390.857 64.8585C389.375 63.8977 387.125 63.4293 384.111 63.4293H374.636L374.649 63.4172ZM401.433 49.1484C401.542 52.2952 400.919 54.7454 399.579 56.499C398.238 58.2405 396.408 59.5978 394.1 60.5467C396.002 61.1712 397.545 62.2283 398.753 63.7175C399.962 65.2069 400.608 66.9364 400.703 68.9062C400.87 72.053 400.381 74.6353 399.244 76.6292C398.108 78.6229 396.565 80.2085 394.626 81.3495C392.676 82.5024 390.415 83.3071 387.832 83.7517C385.248 84.196 382.603 84.4241 379.913 84.4241C377.054 84.4241 374.158 84.256 371.239 83.9196C368.309 83.5835 365.809 83.0189 363.738 82.2262L368.608 55.0457C369.205 51.7789 370.116 49.0883 371.323 46.9385C372.532 44.8005 373.991 43.1191 375.713 41.8818C377.436 40.6448 379.338 39.7679 381.431 39.2636C383.525 38.7591 385.774 38.5068 388.191 38.5068C390.331 38.5068 392.21 38.7832 393.837 39.3476C395.451 39.912 396.816 40.6688 397.904 41.6297C398.993 42.5905 399.83 43.7075 400.428 45.0047C401.014 46.3019 401.349 47.6831 401.421 49.1364" fill="white"/>
<path d="M450.989 83.499H443.321L451.371 39.5994H459.04L455.762 57.5796C457.724 56.1744 459.686 54.6371 461.66 52.9795C463.634 51.322 465.499 49.6764 467.257 48.0431C469.016 46.4096 470.63 44.8601 472.09 43.3949C473.549 41.9296 474.758 40.6685 475.692 39.5994H484.915C483.717 41.0046 482.235 42.6141 480.464 44.4157C478.694 46.2174 476.792 48.0672 474.77 49.9408C472.748 51.8264 470.727 53.6401 468.705 55.3817C466.683 57.1232 464.841 58.6126 463.214 59.8497C464.818 61.1949 466.481 62.8284 468.202 64.7502C469.926 66.6719 471.576 68.6896 473.167 70.8276C474.758 72.9654 476.23 75.1395 477.581 77.3254C478.933 79.5235 480.07 81.5773 480.991 83.487H472.581C470.271 79.103 467.616 74.9953 464.614 71.1639C461.611 67.3444 458.405 64.2096 454.983 61.7954L450.989 83.487V83.499Z" fill="white"/>
<path d="M481.528 67.8012C481.338 63.9698 481.709 60.2825 482.654 56.7393C483.599 53.1961 485.093 50.0732 487.162 47.3708C489.221 44.6684 491.805 42.5184 494.902 40.909C498.013 39.3115 501.614 38.5068 505.742 38.5068C507.547 38.5068 509.294 38.627 510.945 38.8912C512.548 39.1313 514.08 39.5997 515.551 40.2964L514.212 47.551C513.936 47.3949 513.158 46.9625 513.158 46.9625C512.249 46.458 511.196 46.0616 510.012 45.7854C508.816 45.5092 507.285 45.3651 505.418 45.3651C502.726 45.3651 500.335 45.9656 498.264 47.1786C496.183 48.3918 494.437 49.9892 493.025 51.9949C491.613 53.9888 490.584 56.2948 489.914 58.9132C489.256 61.5316 488.994 64.246 489.136 67.0565C489.208 68.5218 489.437 69.9031 489.808 71.1883C490.178 72.4855 490.764 73.6265 491.589 74.6113C492.403 75.5962 493.48 76.365 494.796 76.9294C496.111 77.4939 497.763 77.7702 499.737 77.7702C500.729 77.7702 501.757 77.674 502.858 77.47C503.947 77.2778 504.952 77.0375 505.872 76.7492C506.71 76.4971 507.417 76.2808 508.337 75.8605C508.911 75.5962 509.868 75.1518 510.945 74.3471C510.945 74.3471 511.256 74.107 512.991 72.5695L511.399 81.2653C511.399 81.2653 511.029 81.5415 510.908 81.6257C509.917 82.3222 508.313 82.9588 506.148 83.6074C503.983 84.256 501.507 84.5803 498.695 84.5803C496.063 84.5803 493.707 84.172 491.626 83.3552C489.555 82.5385 487.785 81.3854 486.338 79.896C484.89 78.4068 483.754 76.6292 482.929 74.5754C482.114 72.5214 481.637 70.2515 481.517 67.7772" fill="white"/>
<path d="M430.361 66.7078C430.194 67.7769 430.073 68.8337 429.99 69.8788C429.906 70.9236 429.858 71.9206 429.858 72.8694C428.723 74.2147 427.347 75.4036 425.755 76.4126C424.164 77.4216 422.215 77.9379 419.905 77.9379C418.362 77.9379 417.107 77.6376 416.113 77.0492C415.121 76.4607 414.32 75.7039 413.685 74.7671C413.064 73.8423 412.608 72.7734 412.321 71.5602C412.034 70.3472 411.867 69.158 411.806 67.9691C411.651 64.9903 411.987 62.1318 412.812 59.4053C413.637 56.6789 414.881 54.2887 416.569 52.2349C418.256 50.1809 420.325 48.5356 422.789 47.2983C425.252 46.0613 428.053 45.4367 431.174 45.4367C431.665 45.4367 432.239 45.4608 432.874 45.5207C433.507 45.5808 433.963 45.6648 434.248 45.773L430.372 66.7078H430.361ZM432.239 83.499H439.382C438.759 81.9856 438.089 80.0518 437.813 78.7308C437.526 77.4095 437.348 76.1003 437.287 74.8031C437.216 73.506 437.252 72.2689 437.383 71.0918C437.515 69.9147 437.682 68.6776 437.897 67.3804L442.887 40.8725C441.415 40.0798 439.68 39.5274 437.695 39.1911C435.696 38.8548 433.963 38.6866 432.478 38.6866C427.478 38.6866 423.16 39.5633 419.511 41.3051C415.863 43.0466 412.883 45.3287 410.551 48.1391C408.218 50.9497 406.531 54.1566 405.479 57.7598C404.425 61.3631 403.995 65.0504 404.187 68.8217C404.307 71.1279 404.678 73.2418 405.299 75.1515C405.922 77.0612 406.818 78.7308 407.979 80.136C409.151 81.5412 410.622 82.6341 412.393 83.4269C414.164 84.2196 416.257 84.604 418.673 84.604C421.64 84.604 424.105 84.0394 426.091 82.9105C428.065 81.7815 429.631 80.6645 430.78 79.5355C430.995 80.3761 431.246 81.1808 431.57 81.9376C431.797 82.5021 432.036 83.0186 432.263 83.499" fill="white"/>
<path d="M267.256 38.6748C269.673 38.6748 271.742 39.0592 273.453 39.8158C275.163 40.5725 276.563 41.6055 277.651 42.9027C278.729 44.1998 279.542 45.7011 280.068 47.4187C280.594 49.1362 280.906 50.9499 281.001 52.8716C281.061 54.1087 281.036 55.442 280.918 56.8832C280.798 58.3125 280.605 59.7057 280.355 61.063L276.229 83.5232H268.56L272.365 62.7565C272.567 61.4593 272.819 60.006 273.083 58.4085C273.356 56.8111 273.453 55.2137 273.368 53.6403C273.31 52.5714 273.141 51.5264 272.842 50.5174C272.543 49.4966 272.089 48.6318 271.466 47.8992C270.857 47.1664 270.007 46.5779 268.943 46.1216C267.877 45.6652 266.573 45.4489 265.03 45.4489C263.272 45.4489 261.585 45.7973 259.982 46.5058C258.367 47.2145 257.028 47.9232 255.974 48.6558C256.118 49.4485 256.262 50.2172 256.382 50.974C256.502 51.7306 256.586 52.4872 256.621 53.208C256.692 54.5051 256.657 55.8142 256.537 57.1354C256.417 58.4566 256.25 59.7658 256.035 61.063L251.908 83.5232H244.24L248.044 62.7565C248.248 61.4593 248.475 59.9939 248.725 58.3725C248.978 56.7391 249.049 55.1056 248.964 53.4721C248.906 52.4032 248.75 51.3823 248.475 50.3853C248.199 49.4004 247.792 48.5478 247.231 47.815C246.668 47.0824 245.938 46.5058 245.042 46.0855C244.143 45.6652 242.996 45.4489 241.632 45.4489C240.267 45.4489 238.928 45.5329 237.649 45.7011C236.368 45.8692 235.291 46.0975 234.431 46.3737L227.599 83.5112H219.931L227.66 41.3052C230.088 40.5125 232.768 39.888 235.675 39.4075C238.581 38.9271 241.201 38.6868 243.51 38.6868C245.818 38.6868 247.792 39.0951 249.42 39.9119C251.058 40.7286 252.374 41.8097 253.379 43.1668C253.905 42.7706 254.647 42.326 255.58 41.8217C256.514 41.3172 257.589 40.8368 258.798 40.3803C260.007 39.9239 261.335 39.5396 262.769 39.2033C264.205 38.867 265.7 38.6988 267.231 38.6988" fill="white"/>
</g>
<defs>
<clipPath id="clip0_1154_1142">
<rect width="516" height="100.194" fill="white"/>
</clipPath>
</defs>
</svg>
