<svg width="28" height="28" viewBox="0 0 28 28" fill="none" xmlns="http://www.w3.org/2000/svg">
<path d="M4 3V3.75V3ZM14.3125 25.9L14.0768 25.188C14.0685 25.1907 14.0603 25.1936 14.0521 25.1967L14.3125 25.9ZM13.6875 25.9L13.9479 25.1967C13.9397 25.1936 13.9315 25.1907 13.9232 25.188L13.6875 25.9ZM20.0177 10.5427L20.5604 10.025L19.525 8.93963L18.9823 9.45734L20.0177 10.5427ZM12.1625 17L11.6443 17.5422C11.9341 17.8191 12.3902 17.8193 12.6802 17.5427L12.1625 17ZM9.01816 12.9578L8.47594 12.4396L7.43961 13.5241L7.98184 14.0422L9.01816 12.9578ZM3.75 11.3375V4H2.25V11.3375H3.75ZM3.75 4C3.75 3.9337 3.77634 3.87011 3.82322 3.82322L2.76256 2.76256C2.43438 3.09075 2.25 3.53587 2.25 4H3.75ZM3.82322 3.82322C3.87011 3.77634 3.9337 3.75 4 3.75V2.25C3.53587 2.25 3.09075 2.43438 2.76256 2.76256L3.82322 3.82322ZM4 3.75H24V2.25H4V3.75ZM24 3.75C24.0663 3.75 24.1299 3.77634 24.1768 3.82322L25.2374 2.76256C24.9092 2.43437 24.4641 2.25 24 2.25V3.75ZM24.1768 3.82322C24.2237 3.87011 24.25 3.93369 24.25 4H25.75C25.75 3.53587 25.5656 3.09075 25.2374 2.76256L24.1768 3.82322ZM24.25 4V11.3375H25.75V4H24.25ZM24.25 11.3375C24.25 21.3019 15.8117 24.6138 14.0768 25.188L14.5482 26.612C16.3633 26.0112 25.75 22.3731 25.75 11.3375H24.25ZM14.0521 25.1967C14.0185 25.2091 13.9815 25.2091 13.9479 25.1967L13.4271 26.6033C13.7968 26.7402 14.2032 26.7402 14.5729 26.6033L14.0521 25.1967ZM13.9232 25.188C12.1883 24.6138 3.75 21.3019 3.75 11.3375H2.25C2.25 22.3731 11.6367 26.0112 13.4518 26.612L13.9232 25.188ZM18.9823 9.45734L11.6448 16.4573L12.6802 17.5427L20.0177 10.5427L18.9823 9.45734ZM12.6807 16.4578L9.01816 12.9578L7.98184 14.0422L11.6443 17.5422L12.6807 16.4578Z" fill="white"/>
</svg>
