<svg width="24" height="24" viewBox="0 0 24 24" fill="none" xmlns="http://www.w3.org/2000/svg">
<path d="M12 23C18.0751 23 23 18.0751 23 12C23 5.92487 18.0751 1 12 1C5.92487 1 1 5.92487 1 12C1 18.0751 5.92487 23 12 23Z" stroke="white" stroke-width="1.5" stroke-linecap="round" stroke-linejoin="round"/>
<path d="M7.80971 11.4762C8.67759 11.4762 9.38114 10.7727 9.38114 9.9048C9.38114 9.03693 8.67759 8.33337 7.80971 8.33337C6.94183 8.33337 6.23828 9.03693 6.23828 9.9048C6.23828 10.7727 6.94183 11.4762 7.80971 11.4762Z" fill="white"/>
<path d="M16.1906 11.4762C17.0584 11.4762 17.762 10.7727 17.762 9.9048C17.762 9.03693 17.0584 8.33337 16.1906 8.33337C15.3227 8.33337 14.6191 9.03693 14.6191 9.9048C14.6191 10.7727 15.3227 11.4762 16.1906 11.4762Z" fill="white"/>
<path d="M16.7142 14.6191C16.235 15.575 15.5472 16.3685 14.7199 16.9201C13.8926 17.4716 12.9546 17.7619 11.9999 17.7619C11.0452 17.7619 10.1073 17.4716 9.27995 16.9201C8.45261 16.3685 7.7649 15.575 7.28564 14.6191" stroke="white" stroke-width="1.5" stroke-linecap="round" stroke-linejoin="round"/>
</svg>
