<svg width="841" height="384" viewBox="0 0 841 384" fill="none" xmlns="http://www.w3.org/2000/svg">
<g filter="url(#filter0_f_308_481)">
<path d="M154 112L156.86 118.326L162.5 114.278L161.814 121.186L168.723 120.5L164.674 126.14L171 129L164.674 131.86L168.723 137.5L161.814 136.813L162.5 143.722L156.86 139.673L154 146L151.141 139.673L145.5 143.722L146.187 136.813L139.278 137.5L143.327 131.86L137 129L143.327 126.14L139.278 120.5L146.187 121.186L145.5 114.278L151.141 118.326L154 112Z" fill="white"/>
</g>
<path d="M154 113L156.692 118.954L162 115.144L161.354 121.646L167.857 121L164.046 126.308L170 129L164.046 131.692L167.857 137L161.354 136.354L162 142.856L156.692 139.046L154 145L151.309 139.046L146 142.856L146.647 136.354L140.144 137L143.955 131.692L138 129L143.955 126.308L140.144 121L146.647 121.646L146 115.144L151.309 118.954L154 113Z" fill="white"/>
<path d="M430.538 352.666C314.64 380.862 208.643 388.278 130.972 377.515C92.1307 372.133 60.4451 362.214 38.1509 348.135C15.8763 334.068 3.04833 315.904 1.67996 293.976C0.308387 271.996 10.5644 248.101 30.5321 223.67C50.4892 199.253 80.0636 174.406 117.099 150.557C191.166 102.861 294.928 59.2473 410.82 31.0522C526.718 2.85577 632.716 -4.56013 710.387 6.20287C749.228 11.5852 780.914 21.504 803.208 35.583C825.482 49.6498 838.31 67.8139 839.679 89.7415C841.05 111.722 830.794 135.617 810.827 160.048C790.87 184.465 761.295 209.312 724.259 233.161C650.193 280.856 546.431 324.471 430.538 352.666Z" stroke="url(#paint0_linear_308_481)" stroke-width="2"/>
<defs>
<filter id="filter0_f_308_481" x="132" y="107" width="44" height="44" filterUnits="userSpaceOnUse" color-interpolation-filters="sRGB">
<feFlood flood-opacity="0" result="BackgroundImageFix"/>
<feBlend mode="normal" in="SourceGraphic" in2="BackgroundImageFix" result="shape"/>
<feGaussianBlur stdDeviation="2.5" result="effect1_foregroundBlur_308_481"/>
</filter>
<linearGradient id="paint0_linear_308_481" x1="869.358" y1="82.7014" x2="449.439" y2="652.729" gradientUnits="userSpaceOnUse">
<stop offset="0.0208333" stop-color="white" stop-opacity="0"/>
<stop offset="0.497222" stop-color="white"/>
<stop offset="1" stop-color="white" stop-opacity="0"/>
</linearGradient>
</defs>
</svg>
