<svg width="1286" height="858" viewBox="0 0 1286 858" fill="none" xmlns="http://www.w3.org/2000/svg">
<path d="M462.864 630.286C292.832 525.894 159.155 408.799 80.4595 303.91C41.1084 251.46 15.5493 202.12 6.02676 158.992C-3.49077 115.887 3.02196 79.0756 27.6835 51.4722C52.3807 23.8287 93.0809 7.87456 145.737 2.84033C198.376 -2.19228 262.828 3.70315 334.843 19.6194C478.87 51.4508 652.98 123.325 823.007 227.714C993.039 332.105 1126.72 449.201 1205.41 554.09C1244.76 606.54 1270.32 655.88 1279.84 699.008C1289.36 742.113 1282.85 778.924 1258.19 806.528C1233.49 834.171 1192.79 850.125 1140.14 855.16C1087.5 860.192 1023.04 854.297 951.028 838.38C807.002 806.549 632.892 734.675 462.864 630.286Z" stroke="url(#paint0_linear_266_608)" stroke-width="2"/>
<defs>
<linearGradient id="paint0_linear_266_608" x1="673.355" y1="90.2459" x2="213.594" y2="876.045" gradientUnits="userSpaceOnUse">
<stop offset="0.0208333" stop-color="white" stop-opacity="0"/>
<stop offset="0.497222" stop-color="white"/>
<stop offset="1" stop-color="white" stop-opacity="0"/>
</linearGradient>
</defs>
</svg>
