<svg width="1286" height="859" viewBox="0 0 1286 859" fill="none" xmlns="http://www.w3.org/2000/svg">
<path d="M1258.32 52.3187C1282.98 79.9222 1289.49 116.733 1279.97 159.839C1270.45 202.967 1244.89 252.307 1205.54 304.756C1126.85 409.646 993.168 526.741 823.136 631.133C653.108 735.522 478.998 807.396 334.972 839.227C262.956 855.143 198.504 861.039 145.865 856.006C93.2094 850.972 52.5092 835.018 27.812 807.374C3.15041 779.771 -3.36221 742.96 6.15529 699.854C15.6778 656.726 41.2369 607.386 80.5881 554.937C159.283 450.047 292.961 332.952 462.993 228.56C633.02 124.171 807.131 52.2973 951.157 20.466C1023.17 4.54968 1087.62 -1.34571 1140.26 3.68689C1192.92 8.72113 1233.62 24.6753 1258.32 52.3187Z" stroke="url(#paint0_linear_591_2296)" stroke-width="2"/>
<defs>
<linearGradient id="paint0_linear_591_2296" x1="607.719" y1="787.135" x2="461.408" y2="228.259" gradientUnits="userSpaceOnUse">
<stop offset="0.0208333" stop-color="white" stop-opacity="0"/>
<stop offset="0.497222" stop-color="white"/>
<stop offset="1" stop-color="white" stop-opacity="0"/>
</linearGradient>
</defs>
</svg>
