<svg width="28" height="28" viewBox="0 0 24 24" fill="none" xmlns="http://www.w3.org/2000/svg">
  <path
    d="M12 18.1364C13.6275 18.1364 15.1883 17.4899 16.3391 16.3391M12 18.1364C10.3725 18.1364 8.81173 17.4899 7.66094 16.3391M12 18.1364V23.25M16.3391 16.3391C17.4899 15.1883 18.1364 13.6275 18.1364 12M16.3391 16.3391L20.1818 20.1818M18.1364 12C18.1364 10.3725 17.4899 8.81173 16.3391 7.66094M18.1364 12H23.25M16.3391 7.66094C15.1883 6.51014 13.6275 5.86364 12 5.86364M16.3391 7.66094L20.1818 3.81818M12 5.86364C10.3725 5.86364 8.81173 6.51014 7.66094 7.66094M12 5.86364V0.75M7.66094 7.66094C6.51014 8.81173 5.86364 10.3725 5.86364 12M7.66094 7.66094L3.81818 3.81818M5.86364 12C5.86364 13.6275 6.51014 15.1883 7.66094 16.3391M5.86364 12H0.75M7.66094 16.3391L3.81818 20.1818"
    stroke="#0068d7" stroke-width="1.5" stroke-linecap="square" stroke-linejoin="round" fill="white"/>
</svg>