<svg width="24" height="24" viewBox="0 0 24 24" fill="none" xmlns="http://www.w3.org/2000/svg">
<path d="M13.6875 0.875999C19.0999 1.6905 23.25 6.36037 23.25 12C23.25 18.2134 18.2134 23.25 12 23.25C5.78663 23.25 0.75 18.2134 0.75 12C0.75 7.3875 3.5265 3.42188 7.5 1.686" stroke="white" stroke-width="1.5" stroke-linecap="square" stroke-linejoin="round"/>
<path d="M12 5.25V13.125L17.625 16.125" stroke="white" stroke-width="1.5"/>
<path d="M8.25 6.375V1.425C8.25 1.33636 8.23254 1.24858 8.19862 1.16669C8.1647 1.08479 8.11498 1.01038 8.0523 0.947702C7.98962 0.885023 7.91521 0.835302 7.83331 0.80138C7.75142 0.767458 7.66364 0.75 7.575 0.75H2.625" stroke="white" stroke-width="1.5" stroke-linecap="square" stroke-linejoin="round"/>
</svg>
