<svg width="169" height="164" viewBox="0 0 169 164" fill="none" xmlns="http://www.w3.org/2000/svg">
<g opacity="0.5" filter="url(#filter0_f_338_400)">
<g filter="url(#filter1_f_338_400)">
<path d="M67 78.8001C67 78.8001 83 64.0001 107 82.8001C132.25 102.5 147 94.8001 147 94.8001M106.55 82.4004C104.35 92.6004 89.8 131.5 55 128M94.3008 108.6C103.251 110.5 127.001 118 127.001 144M98.4286 20L64.1429 54.2857L50.4286 40.5714L23 68M98.4286 20L98.429 37.1429M98.4286 20H81.2861M127 56C127 62.6274 121.627 68 115 68C108.373 68 103 62.6274 103 56C103 49.3726 108.373 44 115 44C121.627 44 127 49.3726 127 56Z" stroke="url(#paint0_linear_338_400)" stroke-width="10" stroke-linecap="square" stroke-linejoin="round"/>
</g>
<g filter="url(#filter2_f_338_400)">
<path d="M67 78.8001C67 78.8001 83 64.0001 107 82.8001C132.25 102.5 147 94.8001 147 94.8001M106.55 82.4004C104.35 92.6004 89.8 131.5 55 128M94.3008 108.6C103.251 110.5 127.001 118 127.001 144M98.4286 20L64.1429 54.2857L50.4286 40.5714L23 68M98.4286 20L98.429 37.1429M98.4286 20H81.2861M127 56C127 62.6274 121.627 68 115 68C108.373 68 103 62.6274 103 56C103 49.3726 108.373 44 115 44C121.627 44 127 49.3726 127 56Z" stroke="url(#paint1_linear_338_400)" stroke-width="6" stroke-linecap="square" stroke-linejoin="round"/>
</g>
<g filter="url(#filter3_f_338_400)">
<path d="M67 78.8001C67 78.8001 83 64.0001 107 82.8001C132.25 102.5 147 94.8001 147 94.8001M106.55 82.4004C104.35 92.6004 89.8 131.5 55 128M94.3008 108.6C103.251 110.5 127.001 118 127.001 144M98.4286 20L64.1429 54.2857L50.4286 40.5714L23 68M98.4286 20L98.429 37.1429M98.4286 20H81.2861M127 56C127 62.6274 121.627 68 115 68C108.373 68 103 62.6274 103 56C103 49.3726 108.373 44 115 44C121.627 44 127 49.3726 127 56Z" stroke="url(#paint2_linear_338_400)" stroke-width="6" stroke-linecap="square" stroke-linejoin="round"/>
</g>
<path d="M67 78.8001C67 78.8001 83 64.0001 107 82.8001C132.25 102.5 147 94.8001 147 94.8001M106.55 82.4004C104.35 92.6004 89.8 131.5 55 128M94.3008 108.6C103.251 110.5 127.001 118 127.001 144M98.4286 20L64.1429 54.2857L50.4286 40.5714L23 68M98.4286 20L98.429 37.1429M98.4286 20H81.2861M127 56C127 62.6274 121.627 68 115 68C108.373 68 103 62.6274 103 56C103 49.3726 108.373 44 115 44C121.627 44 127 49.3726 127 56Z" stroke="white" stroke-width="4" stroke-linecap="square" stroke-linejoin="round"/>
</g>
<g filter="url(#filter4_f_338_400)">
<path d="M67 78.8001C67 78.8001 83 64.0001 107 82.8001C132.25 102.5 147 94.8001 147 94.8001M106.55 82.4004C104.35 92.6004 89.8 131.5 55 128M94.3008 108.6C103.251 110.5 127.001 118 127.001 144M98.4286 20L64.1429 54.2857L50.4286 40.5714L23 68M98.4286 20L98.429 37.1429M98.4286 20H81.2861M127 56C127 62.6274 121.627 68 115 68C108.373 68 103 62.6274 103 56C103 49.3726 108.373 44 115 44C121.627 44 127 49.3726 127 56Z" stroke="url(#paint3_linear_338_400)" stroke-width="10" stroke-linecap="square" stroke-linejoin="round"/>
</g>
<g filter="url(#filter5_f_338_400)">
<path d="M67 78.8001C67 78.8001 83 64.0001 107 82.8001C132.25 102.5 147 94.8001 147 94.8001M106.55 82.4004C104.35 92.6004 89.8 131.5 55 128M94.3008 108.6C103.251 110.5 127.001 118 127.001 144M98.4286 20L64.1429 54.2857L50.4286 40.5714L23 68M98.4286 20L98.429 37.1429M98.4286 20H81.2861M127 56C127 62.6274 121.627 68 115 68C108.373 68 103 62.6274 103 56C103 49.3726 108.373 44 115 44C121.627 44 127 49.3726 127 56Z" stroke="url(#paint4_linear_338_400)" stroke-width="6" stroke-linecap="square" stroke-linejoin="round"/>
</g>
<g filter="url(#filter6_f_338_400)">
<path d="M67 78.8001C67 78.8001 83 64.0001 107 82.8001C132.25 102.5 147 94.8001 147 94.8001M106.55 82.4004C104.35 92.6004 89.8 131.5 55 128M94.3008 108.6C103.251 110.5 127.001 118 127.001 144M98.4286 20L64.1429 54.2857L50.4286 40.5714L23 68M98.4286 20L98.429 37.1429M98.4286 20H81.2861M127 56C127 62.6274 121.627 68 115 68C108.373 68 103 62.6274 103 56C103 49.3726 108.373 44 115 44C121.627 44 127 49.3726 127 56Z" stroke="url(#paint5_linear_338_400)" stroke-width="6" stroke-linecap="square" stroke-linejoin="round"/>
</g>
<path d="M67 78.8001C67 78.8001 83 64.0001 107 82.8001C132.25 102.5 147 94.8001 147 94.8001M106.55 82.4004C104.35 92.6004 89.8 131.5 55 128M94.3008 108.6C103.251 110.5 127.001 118 127.001 144M98.4286 20L64.1429 54.2857L50.4286 40.5714L23 68M98.4286 20L98.429 37.1429M98.4286 20H81.2861M127 56C127 62.6274 121.627 68 115 68C108.373 68 103 62.6274 103 56C103 49.3726 108.373 44 115 44C121.627 44 127 49.3726 127 56Z" stroke="white" stroke-width="4" stroke-linecap="square" stroke-linejoin="round"/>
<defs>
<filter id="filter0_f_338_400" x="0.928711" y="0" width="167.817" height="164" filterUnits="userSpaceOnUse" color-interpolation-filters="sRGB">
<feFlood flood-opacity="0" result="BackgroundImageFix"/>
<feBlend mode="normal" in="SourceGraphic" in2="BackgroundImageFix" result="shape"/>
<feGaussianBlur stdDeviation="7.5" result="effect1_foregroundBlur_338_400"/>
</filter>
<filter id="filter1_f_338_400" x="5.92871" y="5" width="157.817" height="154" filterUnits="userSpaceOnUse" color-interpolation-filters="sRGB">
<feFlood flood-opacity="0" result="BackgroundImageFix"/>
<feBlend mode="normal" in="SourceGraphic" in2="BackgroundImageFix" result="shape"/>
<feGaussianBlur stdDeviation="5" result="effect1_foregroundBlur_338_400"/>
</filter>
<filter id="filter2_f_338_400" x="12.7578" y="11" width="144.29" height="142" filterUnits="userSpaceOnUse" color-interpolation-filters="sRGB">
<feFlood flood-opacity="0" result="BackgroundImageFix"/>
<feBlend mode="normal" in="SourceGraphic" in2="BackgroundImageFix" result="shape"/>
<feGaussianBlur stdDeviation="3" result="effect1_foregroundBlur_338_400"/>
</filter>
<filter id="filter3_f_338_400" x="12.7578" y="11" width="144.29" height="142" filterUnits="userSpaceOnUse" color-interpolation-filters="sRGB">
<feFlood flood-opacity="0" result="BackgroundImageFix"/>
<feBlend mode="normal" in="SourceGraphic" in2="BackgroundImageFix" result="shape"/>
<feGaussianBlur stdDeviation="3" result="effect1_foregroundBlur_338_400"/>
</filter>
<filter id="filter4_f_338_400" x="5.92871" y="5" width="157.817" height="154" filterUnits="userSpaceOnUse" color-interpolation-filters="sRGB">
<feFlood flood-opacity="0" result="BackgroundImageFix"/>
<feBlend mode="normal" in="SourceGraphic" in2="BackgroundImageFix" result="shape"/>
<feGaussianBlur stdDeviation="5" result="effect1_foregroundBlur_338_400"/>
</filter>
<filter id="filter5_f_338_400" x="12.7578" y="11" width="144.29" height="142" filterUnits="userSpaceOnUse" color-interpolation-filters="sRGB">
<feFlood flood-opacity="0" result="BackgroundImageFix"/>
<feBlend mode="normal" in="SourceGraphic" in2="BackgroundImageFix" result="shape"/>
<feGaussianBlur stdDeviation="3" result="effect1_foregroundBlur_338_400"/>
</filter>
<filter id="filter6_f_338_400" x="12.7578" y="11" width="144.29" height="142" filterUnits="userSpaceOnUse" color-interpolation-filters="sRGB">
<feFlood flood-opacity="0" result="BackgroundImageFix"/>
<feBlend mode="normal" in="SourceGraphic" in2="BackgroundImageFix" result="shape"/>
<feGaussianBlur stdDeviation="3" result="effect1_foregroundBlur_338_400"/>
</filter>
<linearGradient id="paint0_linear_338_400" x1="127" y1="144" x2="85" y2="20" gradientUnits="userSpaceOnUse">
<stop stop-color="#47FAFF"/>
<stop offset="0.520833" stop-color="#47FAFF" stop-opacity="0"/>
<stop offset="1" stop-color="#47FAFF"/>
</linearGradient>
<linearGradient id="paint1_linear_338_400" x1="127" y1="144" x2="104.5" y2="79" gradientUnits="userSpaceOnUse">
<stop stop-color="white"/>
<stop offset="1" stop-color="white" stop-opacity="0"/>
</linearGradient>
<linearGradient id="paint2_linear_338_400" x1="25.5" y1="20" x2="127.5" y2="144" gradientUnits="userSpaceOnUse">
<stop stop-color="white"/>
<stop offset="1" stop-color="white" stop-opacity="0"/>
</linearGradient>
<linearGradient id="paint3_linear_338_400" x1="127" y1="144" x2="85" y2="20" gradientUnits="userSpaceOnUse">
<stop stop-color="#47FAFF"/>
<stop offset="0.520833" stop-color="#47FAFF" stop-opacity="0"/>
<stop offset="1" stop-color="#47FAFF"/>
</linearGradient>
<linearGradient id="paint4_linear_338_400" x1="127" y1="144" x2="104.5" y2="79" gradientUnits="userSpaceOnUse">
<stop stop-color="white"/>
<stop offset="1" stop-color="white" stop-opacity="0"/>
</linearGradient>
<linearGradient id="paint5_linear_338_400" x1="25.5" y1="20" x2="127.5" y2="144" gradientUnits="userSpaceOnUse">
<stop stop-color="white"/>
<stop offset="1" stop-color="white" stop-opacity="0"/>
</linearGradient>
</defs>
</svg>
