<svg width="160" height="167" viewBox="0 0 160 167" fill="none" xmlns="http://www.w3.org/2000/svg">
<g opacity="0.5" filter="url(#filter0_f_338_344)">
<g filter="url(#filter1_f_338_344)">
<path d="M62.8437 126.985V84.9552M62.8437 84.9552H112.406C116.451 84.9552 120.33 86.5655 123.19 89.4317C126.05 92.2979 127.656 96.1854 127.656 100.239V126.985M62.8437 84.9552H20.9062M127.656 126.985H20.9062M127.656 126.985V146.09M20.9062 146.09V69.6716M84.8746 72.101C84.8746 66.7275 86.4646 61.4746 89.4434 57.0067C92.4222 52.5387 96.6561 49.0564 101.61 47C106.563 44.9437 112.014 44.4056 117.273 45.4539C122.532 46.5023 127.362 49.0899 131.153 52.8896C134.945 56.6892 137.527 61.5303 138.573 66.8006C139.619 72.0709 139.082 77.5337 137.03 82.4982C134.978 87.4627 131.503 91.7059 127.045 94.6913M62.8434 84.4776C62.8434 79.8151 64.3973 72.5561 67.687 69.2592C70.9766 65.9623 75.4384 64.1101 80.0906 64.1101C82.0317 64.1001 83.9601 64.4245 85.7916 65.069M68.5298 68.4649C64.8224 66.8885 61.5393 64.4561 58.9481 61.3663C56.357 58.2764 54.5312 54.6166 53.6197 50.6851C55.5052 51.1016 57.4297 51.3159 59.3605 51.3244C66.1242 51.3138 72.6078 48.6164 77.3905 43.8232C82.1731 39.03 84.8647 32.5321 84.8752 25.7535C84.8668 23.8184 84.6529 21.8897 84.2374 20C89.8612 21.3015 94.8786 24.4756 98.4701 29.0039C102.062 33.5322 104.015 39.1471 104.011 44.9317C104.011 45.3312 104.011 45.7308 103.971 46.1303" stroke="url(#paint0_linear_338_344)" stroke-width="10" stroke-linecap="square" stroke-linejoin="round"/>
</g>
<g filter="url(#filter2_f_338_344)">
<path d="M62.8437 126.985V84.9552M62.8437 84.9552H112.406C116.451 84.9552 120.33 86.5655 123.19 89.4317C126.05 92.2979 127.656 96.1854 127.656 100.239V126.985M62.8437 84.9552H20.9062M127.656 126.985H20.9062M127.656 126.985V146.09M20.9062 146.09V69.6716M84.8746 72.101C84.8746 66.7275 86.4646 61.4746 89.4434 57.0067C92.4222 52.5387 96.6561 49.0564 101.61 47C106.563 44.9437 112.014 44.4056 117.273 45.4539C122.532 46.5023 127.362 49.0899 131.153 52.8896C134.945 56.6892 137.527 61.5303 138.573 66.8006C139.619 72.0709 139.082 77.5337 137.03 82.4982C134.978 87.4627 131.503 91.7059 127.045 94.6913M62.8434 84.4776C62.8434 79.8151 64.3973 72.5561 67.687 69.2592C70.9766 65.9623 75.4384 64.1101 80.0906 64.1101C82.0317 64.1001 83.9601 64.4245 85.7916 65.069M68.5298 68.4649C64.8224 66.8885 61.5393 64.4561 58.9481 61.3663C56.357 58.2764 54.5312 54.6166 53.6197 50.6851C55.5052 51.1016 57.4297 51.3159 59.3605 51.3244C66.1242 51.3138 72.6078 48.6164 77.3905 43.8232C82.1731 39.03 84.8647 32.5321 84.8752 25.7535C84.8668 23.8184 84.6529 21.8897 84.2374 20C89.8612 21.3015 94.8786 24.4756 98.4701 29.0039C102.062 33.5322 104.015 39.1471 104.011 44.9317C104.011 45.3312 104.011 45.7308 103.971 46.1303" stroke="url(#paint1_linear_338_344)" stroke-width="6" stroke-linecap="square" stroke-linejoin="round"/>
</g>
<g filter="url(#filter3_f_338_344)">
<path d="M62.8437 126.985V84.9552M62.8437 84.9552H112.406C116.451 84.9552 120.33 86.5655 123.19 89.4317C126.05 92.2979 127.656 96.1854 127.656 100.239V126.985M62.8437 84.9552H20.9062M127.656 126.985H20.9062M127.656 126.985V146.09M20.9062 146.09V69.6716M84.8746 72.101C84.8746 66.7275 86.4646 61.4746 89.4434 57.0067C92.4222 52.5387 96.6561 49.0564 101.61 47C106.563 44.9437 112.014 44.4056 117.273 45.4539C122.532 46.5023 127.362 49.0899 131.153 52.8896C134.945 56.6892 137.527 61.5303 138.573 66.8006C139.619 72.0709 139.082 77.5337 137.03 82.4982C134.978 87.4627 131.503 91.7059 127.045 94.6913M62.8434 84.4776C62.8434 79.8151 64.3973 72.5561 67.687 69.2592C70.9766 65.9623 75.4384 64.1101 80.0906 64.1101C82.0317 64.1001 83.9601 64.4245 85.7916 65.069M68.5298 68.4649C64.8224 66.8885 61.5393 64.4561 58.9481 61.3663C56.357 58.2764 54.5312 54.6166 53.6197 50.6851C55.5052 51.1016 57.4297 51.3159 59.3605 51.3244C66.1242 51.3138 72.6078 48.6164 77.3905 43.8232C82.1731 39.03 84.8647 32.5321 84.8752 25.7535C84.8668 23.8184 84.6529 21.8897 84.2374 20C89.8612 21.3015 94.8786 24.4756 98.4701 29.0039C102.062 33.5322 104.015 39.1471 104.011 44.9317C104.011 45.3312 104.011 45.7308 103.971 46.1303" stroke="url(#paint2_linear_338_344)" stroke-width="6" stroke-linecap="square" stroke-linejoin="round"/>
</g>
<path d="M62.8437 126.985V84.9552M62.8437 84.9552H112.406C116.451 84.9552 120.33 86.5655 123.19 89.4317C126.05 92.2979 127.656 96.1854 127.656 100.239V126.985M62.8437 84.9552H20.9062M127.656 126.985H20.9062M127.656 126.985V146.09M20.9062 146.09V69.6716M84.8746 72.101C84.8746 66.7275 86.4646 61.4746 89.4434 57.0067C92.4222 52.5387 96.6561 49.0564 101.61 47C106.563 44.9437 112.014 44.4056 117.273 45.4539C122.532 46.5023 127.362 49.0899 131.153 52.8896C134.945 56.6892 137.527 61.5303 138.573 66.8006C139.619 72.0709 139.082 77.5337 137.03 82.4982C134.978 87.4627 131.503 91.7059 127.045 94.6913M62.8434 84.4776C62.8434 79.8151 64.3973 72.5561 67.687 69.2592C70.9766 65.9623 75.4384 64.1101 80.0906 64.1101C82.0317 64.1001 83.9601 64.4245 85.7916 65.069M68.5298 68.4649C64.8224 66.8885 61.5393 64.4561 58.9481 61.3663C56.357 58.2764 54.5312 54.6166 53.6197 50.6851C55.5052 51.1016 57.4297 51.3159 59.3605 51.3244C66.1242 51.3138 72.6078 48.6164 77.3905 43.8232C82.1731 39.03 84.8647 32.5321 84.8752 25.7535C84.8668 23.8184 84.6529 21.8897 84.2374 20C89.8612 21.3015 94.8786 24.4756 98.4701 29.0039C102.062 33.5322 104.015 39.1471 104.011 44.9317C104.011 45.3312 104.011 45.7308 103.971 46.1303" stroke="url(#paint3_linear_338_344)" stroke-width="4" stroke-linecap="square" stroke-linejoin="round"/>
</g>
<g filter="url(#filter4_f_338_344)">
<path d="M62.8437 126.985V84.9552M62.8437 84.9552H112.406C116.451 84.9552 120.33 86.5655 123.19 89.4317C126.05 92.2979 127.656 96.1854 127.656 100.239V126.985M62.8437 84.9552H20.9062M127.656 126.985H20.9062M127.656 126.985V146.09M20.9062 146.09V69.6716M84.8746 72.101C84.8746 66.7275 86.4646 61.4746 89.4434 57.0067C92.4222 52.5387 96.6561 49.0564 101.61 47C106.563 44.9437 112.014 44.4056 117.273 45.4539C122.532 46.5023 127.362 49.0899 131.153 52.8896C134.945 56.6892 137.527 61.5303 138.573 66.8006C139.619 72.0709 139.082 77.5337 137.03 82.4982C134.978 87.4627 131.503 91.7059 127.045 94.6913M62.8434 84.4776C62.8434 79.8151 64.3973 72.5561 67.687 69.2592C70.9766 65.9623 75.4384 64.1101 80.0906 64.1101C82.0317 64.1001 83.9601 64.4245 85.7916 65.069M68.5298 68.4649C64.8224 66.8885 61.5393 64.4561 58.9481 61.3663C56.357 58.2764 54.5312 54.6166 53.6197 50.6851C55.5052 51.1016 57.4297 51.3159 59.3605 51.3244C66.1242 51.3138 72.6078 48.6164 77.3905 43.8232C82.1731 39.03 84.8647 32.5321 84.8752 25.7535C84.8668 23.8184 84.6529 21.8897 84.2374 20C89.8612 21.3015 94.8786 24.4756 98.4701 29.0039C102.062 33.5322 104.015 39.1471 104.011 44.9317C104.011 45.3312 104.011 45.7308 103.971 46.1303" stroke="url(#paint4_linear_338_344)" stroke-width="10" stroke-linecap="square" stroke-linejoin="round"/>
</g>
<g filter="url(#filter5_f_338_344)">
<path d="M62.8437 126.985V84.9552M62.8437 84.9552H112.406C116.451 84.9552 120.33 86.5655 123.19 89.4317C126.05 92.2979 127.656 96.1854 127.656 100.239V126.985M62.8437 84.9552H20.9062M127.656 126.985H20.9062M127.656 126.985V146.09M20.9062 146.09V69.6716M84.8746 72.101C84.8746 66.7275 86.4646 61.4746 89.4434 57.0067C92.4222 52.5387 96.6561 49.0564 101.61 47C106.563 44.9437 112.014 44.4056 117.273 45.4539C122.532 46.5023 127.362 49.0899 131.153 52.8896C134.945 56.6892 137.527 61.5303 138.573 66.8006C139.619 72.0709 139.082 77.5337 137.03 82.4982C134.978 87.4627 131.503 91.7059 127.045 94.6913M62.8434 84.4776C62.8434 79.8151 64.3973 72.5561 67.687 69.2592C70.9766 65.9623 75.4384 64.1101 80.0906 64.1101C82.0317 64.1001 83.9601 64.4245 85.7916 65.069M68.5298 68.4649C64.8224 66.8885 61.5393 64.4561 58.9481 61.3663C56.357 58.2764 54.5312 54.6166 53.6197 50.6851C55.5052 51.1016 57.4297 51.3159 59.3605 51.3244C66.1242 51.3138 72.6078 48.6164 77.3905 43.8232C82.1731 39.03 84.8647 32.5321 84.8752 25.7535C84.8668 23.8184 84.6529 21.8897 84.2374 20C89.8612 21.3015 94.8786 24.4756 98.4701 29.0039C102.062 33.5322 104.015 39.1471 104.011 44.9317C104.011 45.3312 104.011 45.7308 103.971 46.1303" stroke="url(#paint5_linear_338_344)" stroke-width="6" stroke-linecap="square" stroke-linejoin="round"/>
</g>
<g filter="url(#filter6_f_338_344)">
<path d="M62.8437 126.985V84.9552M62.8437 84.9552H112.406C116.451 84.9552 120.33 86.5655 123.19 89.4317C126.05 92.2979 127.656 96.1854 127.656 100.239V126.985M62.8437 84.9552H20.9062M127.656 126.985H20.9062M127.656 126.985V146.09M20.9062 146.09V69.6716M84.8746 72.101C84.8746 66.7275 86.4646 61.4746 89.4434 57.0067C92.4222 52.5387 96.6561 49.0564 101.61 47C106.563 44.9437 112.014 44.4056 117.273 45.4539C122.532 46.5023 127.362 49.0899 131.153 52.8896C134.945 56.6892 137.527 61.5303 138.573 66.8006C139.619 72.0709 139.082 77.5337 137.03 82.4982C134.978 87.4627 131.503 91.7059 127.045 94.6913M62.8434 84.4776C62.8434 79.8151 64.3973 72.5561 67.687 69.2592C70.9766 65.9623 75.4384 64.1101 80.0906 64.1101C82.0317 64.1001 83.9601 64.4245 85.7916 65.069M68.5298 68.4649C64.8224 66.8885 61.5393 64.4561 58.9481 61.3663C56.357 58.2764 54.5312 54.6166 53.6197 50.6851C55.5052 51.1016 57.4297 51.3159 59.3605 51.3244C66.1242 51.3138 72.6078 48.6164 77.3905 43.8232C82.1731 39.03 84.8647 32.5321 84.8752 25.7535C84.8668 23.8184 84.6529 21.8897 84.2374 20C89.8612 21.3015 94.8786 24.4756 98.4701 29.0039C102.062 33.5322 104.015 39.1471 104.011 44.9317C104.011 45.3312 104.011 45.7308 103.971 46.1303" stroke="url(#paint6_linear_338_344)" stroke-width="6" stroke-linecap="square" stroke-linejoin="round"/>
</g>
<path d="M62.8437 126.985V84.9552M62.8437 84.9552H112.406C116.451 84.9552 120.33 86.5655 123.19 89.4317C126.05 92.2979 127.656 96.1854 127.656 100.239V126.985M62.8437 84.9552H20.9062M127.656 126.985H20.9062M127.656 126.985V146.09M20.9062 146.09V69.6716M84.8746 72.101C84.8746 66.7275 86.4646 61.4746 89.4434 57.0067C92.4222 52.5387 96.6561 49.0564 101.61 47C106.563 44.9437 112.014 44.4056 117.273 45.4539C122.532 46.5023 127.362 49.0899 131.153 52.8896C134.945 56.6892 137.527 61.5303 138.573 66.8006C139.619 72.0709 139.082 77.5337 137.03 82.4982C134.978 87.4627 131.503 91.7059 127.045 94.6913M62.8434 84.4776C62.8434 79.8151 64.3973 72.5561 67.687 69.2592C70.9766 65.9623 75.4384 64.1101 80.0906 64.1101C82.0317 64.1001 83.9601 64.4245 85.7916 65.069M68.5298 68.4649C64.8224 66.8885 61.5393 64.4561 58.9481 61.3663C56.357 58.2764 54.5312 54.6166 53.6197 50.6851C55.5052 51.1016 57.4297 51.3159 59.3605 51.3244C66.1242 51.3138 72.6078 48.6164 77.3905 43.8232C82.1731 39.03 84.8647 32.5321 84.8752 25.7535C84.8668 23.8184 84.6529 21.8897 84.2374 20C89.8612 21.3015 94.8786 24.4756 98.4701 29.0039C102.062 33.5322 104.015 39.1471 104.011 44.9317C104.011 45.3312 104.011 45.7308 103.971 46.1303" stroke="url(#paint7_linear_338_344)" stroke-width="4" stroke-linecap="square" stroke-linejoin="round"/>
<defs>
<filter id="filter0_f_338_344" x="0.90625" y="0" width="158.188" height="166.09" filterUnits="userSpaceOnUse" color-interpolation-filters="sRGB">
<feFlood flood-opacity="0" result="BackgroundImageFix"/>
<feBlend mode="normal" in="SourceGraphic" in2="BackgroundImageFix" result="shape"/>
<feGaussianBlur stdDeviation="7.5" result="effect1_foregroundBlur_338_344"/>
</filter>
<filter id="filter1_f_338_344" x="5.90625" y="5" width="148.188" height="156.09" filterUnits="userSpaceOnUse" color-interpolation-filters="sRGB">
<feFlood flood-opacity="0" result="BackgroundImageFix"/>
<feBlend mode="normal" in="SourceGraphic" in2="BackgroundImageFix" result="shape"/>
<feGaussianBlur stdDeviation="5" result="effect1_foregroundBlur_338_344"/>
</filter>
<filter id="filter2_f_338_344" x="13.9062" y="13" width="132.188" height="140.09" filterUnits="userSpaceOnUse" color-interpolation-filters="sRGB">
<feFlood flood-opacity="0" result="BackgroundImageFix"/>
<feBlend mode="normal" in="SourceGraphic" in2="BackgroundImageFix" result="shape"/>
<feGaussianBlur stdDeviation="2" result="effect1_foregroundBlur_338_344"/>
</filter>
<filter id="filter3_f_338_344" x="11.9062" y="11" width="136.188" height="144.09" filterUnits="userSpaceOnUse" color-interpolation-filters="sRGB">
<feFlood flood-opacity="0" result="BackgroundImageFix"/>
<feBlend mode="normal" in="SourceGraphic" in2="BackgroundImageFix" result="shape"/>
<feGaussianBlur stdDeviation="3" result="effect1_foregroundBlur_338_344"/>
</filter>
<filter id="filter4_f_338_344" x="5.90625" y="5" width="148.188" height="156.09" filterUnits="userSpaceOnUse" color-interpolation-filters="sRGB">
<feFlood flood-opacity="0" result="BackgroundImageFix"/>
<feBlend mode="normal" in="SourceGraphic" in2="BackgroundImageFix" result="shape"/>
<feGaussianBlur stdDeviation="5" result="effect1_foregroundBlur_338_344"/>
</filter>
<filter id="filter5_f_338_344" x="13.9062" y="13" width="132.188" height="140.09" filterUnits="userSpaceOnUse" color-interpolation-filters="sRGB">
<feFlood flood-opacity="0" result="BackgroundImageFix"/>
<feBlend mode="normal" in="SourceGraphic" in2="BackgroundImageFix" result="shape"/>
<feGaussianBlur stdDeviation="2" result="effect1_foregroundBlur_338_344"/>
</filter>
<filter id="filter6_f_338_344" x="11.9062" y="11" width="136.188" height="144.09" filterUnits="userSpaceOnUse" color-interpolation-filters="sRGB">
<feFlood flood-opacity="0" result="BackgroundImageFix"/>
<feBlend mode="normal" in="SourceGraphic" in2="BackgroundImageFix" result="shape"/>
<feGaussianBlur stdDeviation="3" result="effect1_foregroundBlur_338_344"/>
</filter>
<linearGradient id="paint0_linear_338_344" x1="16.6172" y1="64.8955" x2="129.731" y2="145.854" gradientUnits="userSpaceOnUse">
<stop stop-color="#47FAFF"/>
<stop offset="0.540973" stop-color="#47FAFF" stop-opacity="0"/>
<stop offset="1" stop-color="#47FAFF"/>
</linearGradient>
<linearGradient id="paint1_linear_338_344" x1="127.656" y1="146.09" x2="61.3321" y2="104.669" gradientUnits="userSpaceOnUse">
<stop stop-color="white"/>
<stop offset="1" stop-color="white" stop-opacity="0"/>
</linearGradient>
<linearGradient id="paint2_linear_338_344" x1="84.2891" y1="18.5672" x2="101.998" y2="127.928" gradientUnits="userSpaceOnUse">
<stop stop-color="white"/>
<stop offset="1" stop-color="white" stop-opacity="0"/>
</linearGradient>
<linearGradient id="paint3_linear_338_344" x1="46.1641" y1="-17.7313" x2="101.632" y2="82.9418" gradientUnits="userSpaceOnUse">
<stop stop-color="white"/>
<stop offset="1" stop-color="white"/>
</linearGradient>
<linearGradient id="paint4_linear_338_344" x1="16.6172" y1="64.8955" x2="129.731" y2="145.854" gradientUnits="userSpaceOnUse">
<stop stop-color="#47FAFF"/>
<stop offset="0.540973" stop-color="#47FAFF" stop-opacity="0"/>
<stop offset="1" stop-color="#47FAFF"/>
</linearGradient>
<linearGradient id="paint5_linear_338_344" x1="127.656" y1="146.09" x2="61.3321" y2="104.669" gradientUnits="userSpaceOnUse">
<stop stop-color="white"/>
<stop offset="1" stop-color="white" stop-opacity="0"/>
</linearGradient>
<linearGradient id="paint6_linear_338_344" x1="84.2891" y1="18.5672" x2="101.998" y2="127.928" gradientUnits="userSpaceOnUse">
<stop stop-color="white"/>
<stop offset="1" stop-color="white" stop-opacity="0"/>
</linearGradient>
<linearGradient id="paint7_linear_338_344" x1="46.1641" y1="-17.7313" x2="101.632" y2="82.9418" gradientUnits="userSpaceOnUse">
<stop stop-color="white"/>
<stop offset="1" stop-color="white"/>
</linearGradient>
</defs>
</svg>
