<svg width="165" height="162" viewBox="0 0 165 162" fill="none" xmlns="http://www.w3.org/2000/svg">
<g opacity="0.5" filter="url(#filter0_f_338_373)">
<g filter="url(#filter1_f_338_373)">
<path d="M20.8243 94.3867L19.0529 99.0624L28.4044 102.605L30.1757 97.9294L20.8243 94.3867ZM144.384 58.7292L145.455 53.8453L135.687 51.7027L134.616 56.5866L144.384 58.7292ZM17.2329 72.6492L15.7246 77.4163L25.2587 80.4331L26.7671 75.666L17.2329 72.6492ZM147.418 114.498L149.759 110.08L140.922 105.399L138.582 109.817L147.418 114.498ZM38 91.6009H33V101.601H38V91.6009ZM128 101.601H133V91.6009H128V101.601ZM30.1757 97.9294C37.0894 79.6798 42.9426 69.9648 47.6255 65.6589C49.8595 63.6048 51.4258 63.153 52.3994 63.1258C53.3676 63.0986 54.6492 63.4659 56.37 64.8876C60.0592 67.9355 63.9243 74.2787 67.978 83.0064C71.9505 91.5594 75.6947 101.444 79.5488 111.024C83.3216 120.402 87.2472 129.613 91.456 136.105C93.5505 139.335 95.9764 142.314 98.8415 144.248C101.898 146.312 105.642 147.274 109.63 145.877C113.269 144.602 116.291 141.629 118.912 137.834C121.586 133.961 124.222 128.676 126.889 121.884C132.229 108.287 137.991 87.8719 144.384 58.7292L134.616 56.5866C128.259 85.5689 122.63 105.373 117.581 118.229C115.054 124.664 112.746 129.164 110.683 132.152C108.565 135.218 107.055 136.183 106.323 136.439C105.94 136.573 105.474 136.661 104.437 135.96C103.209 135.131 101.658 133.457 99.8467 130.664C96.2449 125.109 92.6472 116.789 88.8262 107.292C85.0866 97.9967 81.1667 87.6628 77.0474 78.794C73.0093 70.0998 68.3549 61.8179 62.7393 57.1784C59.8078 54.7564 56.2408 53.0142 52.1194 53.1297C48.0034 53.245 44.2392 55.1878 40.8569 58.2977C34.3074 64.32 27.7856 76.0112 20.8243 94.3867L30.1757 97.9294ZM26.7671 75.666C33.3512 54.8578 39.3323 41.6529 44.6854 34.0148C50.1125 26.2711 53.7881 25.6559 55.9352 26.1275C57.3426 26.4366 59.086 27.3662 61.1666 29.3165C63.2344 31.2549 65.3989 33.9802 67.6498 37.4452C72.1608 44.3895 76.6073 53.6519 81.113 63.8638C85.5073 73.8232 90.1289 85.0983 94.5774 94.9424C99.0715 104.887 103.762 114.247 108.737 121.053C113.446 127.497 119.718 133.465 127.646 132.752C131.611 132.395 135.183 130.396 138.36 127.333C141.512 124.295 144.502 120.002 147.418 114.498L138.582 109.817C135.935 114.813 133.527 118.102 131.42 120.134C129.338 122.14 127.79 122.698 126.75 122.792C124.668 122.979 121.39 121.419 116.81 115.153C112.495 109.248 108.159 100.713 103.69 90.8244C99.1758 80.8346 94.8989 70.3363 90.262 59.827C85.7365 49.5702 81.0189 39.6687 76.0357 31.9977C73.5396 28.1551 70.8745 24.71 68.0056 22.0207C65.1494 19.3433 61.8488 17.1879 58.0804 16.3603C49.8759 14.5584 42.6727 19.4627 36.4963 28.2755C30.2458 37.194 23.8988 51.5827 17.2329 72.6492L26.7671 75.666ZM38 101.601H128V91.6009H38V101.601Z" fill="url(#paint0_linear_338_373)"/>
</g>
<g filter="url(#filter2_f_338_373)">
<path d="M22.6946 95.0952L21.6318 97.9006L27.2426 100.026L28.3054 97.2208L22.6946 95.0952ZM142.43 58.3007L143.073 55.3703L137.212 54.0848L136.57 57.0151L142.43 58.3007ZM19.1398 73.2526L18.2347 76.1128L23.9552 77.9229L24.8602 75.0627L19.1398 73.2526ZM145.651 113.562L147.055 110.911L141.753 108.102L140.349 110.753L145.651 113.562ZM38 93.6009H35V99.6009H38V93.6009ZM128 99.6009H131V93.6009H128V99.6009ZM28.3054 97.2208C35.2286 78.9461 41.2155 68.8358 46.2718 64.1867C48.7354 61.9214 50.7413 61.1714 52.3434 61.1265C53.9422 61.0817 55.6809 61.724 57.6439 63.3457C61.7183 66.712 65.7413 73.4429 69.7919 82.1639C73.7938 90.7801 77.573 100.755 81.4043 110.278C85.1867 119.679 89.0468 128.712 93.1341 135.017C95.1719 138.16 97.4228 140.877 99.9606 142.591C102.613 144.381 105.701 145.134 108.968 143.989C112.027 142.918 114.746 140.347 117.266 136.698C119.818 133.001 122.389 127.873 125.028 121.153C130.309 107.704 136.045 87.4113 142.43 58.3007L136.57 57.0151C130.205 86.0295 124.55 105.956 119.443 118.96C116.888 125.466 114.514 130.123 112.329 133.288C110.11 136.5 108.298 137.867 106.985 138.327C105.881 138.713 104.759 138.591 103.318 137.618C101.762 136.568 100.036 134.633 98.1686 131.752C94.4454 126.01 90.7821 117.512 86.9707 108.038C83.2082 98.6862 79.3234 88.4421 75.2335 79.6364C71.1923 70.9356 66.6957 63.0414 61.4655 58.7202C58.7761 56.4983 55.6662 55.0311 52.1754 55.1289C48.6879 55.2266 45.3632 56.8712 42.2106 59.77C36.0345 65.4489 29.6464 76.7449 22.6946 95.0952L28.3054 97.2208ZM24.8602 75.0627C31.4607 54.2028 37.515 40.7611 43.0475 32.8669C48.6245 24.9094 53.0057 23.4364 56.3643 24.1741C58.2439 24.5869 60.2987 25.7616 62.5344 27.8573C64.7624 29.9459 67.027 32.8152 69.327 36.3557C73.9324 43.4453 78.4331 52.8356 82.9428 63.0565C87.3856 73.1258 91.9383 84.2456 96.4 94.1188C100.889 104.053 105.509 113.247 110.351 119.873C115.035 126.282 120.708 131.368 127.467 130.76C130.847 130.456 134.014 128.745 136.972 125.893C139.915 123.056 142.789 118.964 145.651 113.562L140.349 110.753C137.649 115.851 135.124 119.341 132.808 121.573C130.507 123.791 128.554 124.638 126.929 124.784C123.678 125.076 119.801 122.635 115.196 116.333C110.749 110.248 106.341 101.548 101.868 91.648C97.3664 81.6874 93.0206 71.0337 88.4322 60.6344C83.9106 50.3866 79.2473 40.6128 74.3586 33.0872C71.9114 29.3201 69.3465 26.019 66.6378 23.4799C63.9367 20.9479 60.9475 19.0377 57.6514 18.3137C50.6584 16.7779 44.1606 20.8244 38.1341 29.4234C32.0631 38.0858 25.7893 52.2377 19.1398 73.2526L24.8602 75.0627ZM38 99.6009H128V93.6009H38V99.6009Z" fill="url(#paint1_linear_338_373)"/>
</g>
<g filter="url(#filter3_f_338_373)">
<path d="M22.6946 95.0952L21.6318 97.9006L27.2426 100.026L28.3054 97.2208L22.6946 95.0952ZM142.43 58.3007L143.073 55.3703L137.212 54.0848L136.57 57.0151L142.43 58.3007ZM19.1398 73.2526L18.2347 76.1128L23.9552 77.9229L24.8602 75.0627L19.1398 73.2526ZM145.651 113.562L147.055 110.911L141.753 108.102L140.349 110.753L145.651 113.562ZM38 93.6009H35V99.6009H38V93.6009ZM128 99.6009H131V93.6009H128V99.6009ZM28.3054 97.2208C35.2286 78.9461 41.2155 68.8358 46.2718 64.1867C48.7354 61.9214 50.7413 61.1714 52.3434 61.1265C53.9422 61.0817 55.6809 61.724 57.6439 63.3457C61.7183 66.712 65.7413 73.4429 69.7919 82.1639C73.7938 90.7801 77.573 100.755 81.4043 110.278C85.1867 119.679 89.0468 128.712 93.1341 135.017C95.1719 138.16 97.4228 140.877 99.9606 142.591C102.613 144.381 105.701 145.134 108.968 143.989C112.027 142.918 114.746 140.347 117.266 136.698C119.818 133.001 122.389 127.873 125.028 121.153C130.309 107.704 136.045 87.4113 142.43 58.3007L136.57 57.0151C130.205 86.0295 124.55 105.956 119.443 118.96C116.888 125.466 114.514 130.123 112.329 133.288C110.11 136.5 108.298 137.867 106.985 138.327C105.881 138.713 104.759 138.591 103.318 137.618C101.762 136.568 100.036 134.633 98.1686 131.752C94.4454 126.01 90.7821 117.512 86.9707 108.038C83.2082 98.6862 79.3234 88.4421 75.2335 79.6364C71.1923 70.9356 66.6957 63.0414 61.4655 58.7202C58.7761 56.4983 55.6662 55.0311 52.1754 55.1289C48.6879 55.2266 45.3632 56.8712 42.2106 59.77C36.0345 65.4489 29.6464 76.7449 22.6946 95.0952L28.3054 97.2208ZM24.8602 75.0627C31.4607 54.2028 37.515 40.7611 43.0475 32.8669C48.6245 24.9094 53.0057 23.4364 56.3643 24.1741C58.2439 24.5869 60.2987 25.7616 62.5344 27.8573C64.7624 29.9459 67.027 32.8152 69.327 36.3557C73.9324 43.4453 78.4331 52.8356 82.9428 63.0565C87.3856 73.1258 91.9383 84.2456 96.4 94.1188C100.889 104.053 105.509 113.247 110.351 119.873C115.035 126.282 120.708 131.368 127.467 130.76C130.847 130.456 134.014 128.745 136.972 125.893C139.915 123.056 142.789 118.964 145.651 113.562L140.349 110.753C137.649 115.851 135.124 119.341 132.808 121.573C130.507 123.791 128.554 124.638 126.929 124.784C123.678 125.076 119.801 122.635 115.196 116.333C110.749 110.248 106.341 101.548 101.868 91.648C97.3664 81.6874 93.0206 71.0337 88.4322 60.6344C83.9106 50.3866 79.2473 40.6128 74.3586 33.0872C71.9114 29.3201 69.3465 26.019 66.6378 23.4799C63.9367 20.9479 60.9475 19.0377 57.6514 18.3137C50.6584 16.7779 44.1606 20.8244 38.1341 29.4234C32.0631 38.0858 25.7893 52.2377 19.1398 73.2526L24.8602 75.0627ZM38 99.6009H128V93.6009H38V99.6009Z" fill="url(#paint2_linear_338_373)"/>
</g>
<path d="M25.5 96.1581C81 -50.342 88.5 290.158 139.5 57.658" stroke="white" stroke-width="4" stroke-linecap="square" stroke-linejoin="round"/>
<path d="M22 74.1576C75 -93.3416 98.5 196.158 143 112.157" stroke="white" stroke-width="4" stroke-linecap="square" stroke-linejoin="round"/>
<path d="M38 96.6008L128 96.6008" stroke="white" stroke-width="4" stroke-linecap="square"/>
</g>
<g filter="url(#filter4_f_338_373)">
<path d="M20.8243 94.3867L19.0529 99.0624L28.4044 102.605L30.1757 97.9294L20.8243 94.3867ZM144.384 58.7292L145.455 53.8453L135.687 51.7027L134.616 56.5866L144.384 58.7292ZM17.2329 72.6492L15.7246 77.4163L25.2587 80.4331L26.7671 75.666L17.2329 72.6492ZM147.418 114.498L149.759 110.08L140.922 105.399L138.582 109.817L147.418 114.498ZM38 91.6009H33V101.601H38V91.6009ZM128 101.601H133V91.6009H128V101.601ZM30.1757 97.9294C37.0894 79.6798 42.9426 69.9648 47.6255 65.6589C49.8595 63.6048 51.4258 63.153 52.3994 63.1258C53.3676 63.0986 54.6492 63.4659 56.37 64.8876C60.0592 67.9355 63.9243 74.2787 67.978 83.0064C71.9505 91.5594 75.6947 101.444 79.5488 111.024C83.3216 120.402 87.2472 129.613 91.456 136.105C93.5505 139.335 95.9764 142.314 98.8415 144.248C101.898 146.312 105.642 147.274 109.63 145.877C113.269 144.602 116.291 141.629 118.912 137.834C121.586 133.961 124.222 128.676 126.889 121.884C132.229 108.287 137.991 87.8719 144.384 58.7292L134.616 56.5866C128.259 85.5689 122.63 105.373 117.581 118.229C115.054 124.664 112.746 129.164 110.683 132.152C108.565 135.218 107.055 136.183 106.323 136.439C105.94 136.573 105.474 136.661 104.437 135.96C103.209 135.131 101.658 133.457 99.8467 130.664C96.2449 125.109 92.6472 116.789 88.8262 107.292C85.0866 97.9967 81.1667 87.6628 77.0474 78.794C73.0093 70.0998 68.3549 61.8179 62.7393 57.1784C59.8078 54.7564 56.2408 53.0142 52.1194 53.1297C48.0034 53.245 44.2392 55.1878 40.8569 58.2977C34.3074 64.32 27.7856 76.0112 20.8243 94.3867L30.1757 97.9294ZM26.7671 75.666C33.3512 54.8578 39.3323 41.6529 44.6854 34.0148C50.1125 26.2711 53.7881 25.6559 55.9352 26.1275C57.3426 26.4366 59.086 27.3662 61.1666 29.3165C63.2344 31.2549 65.3989 33.9802 67.6498 37.4452C72.1608 44.3895 76.6073 53.6519 81.113 63.8638C85.5073 73.8232 90.1289 85.0983 94.5774 94.9424C99.0715 104.887 103.762 114.247 108.737 121.053C113.446 127.497 119.718 133.465 127.646 132.752C131.611 132.395 135.183 130.396 138.36 127.333C141.512 124.295 144.502 120.002 147.418 114.498L138.582 109.817C135.935 114.813 133.527 118.102 131.42 120.134C129.338 122.14 127.79 122.698 126.75 122.792C124.668 122.979 121.39 121.419 116.81 115.153C112.495 109.248 108.159 100.713 103.69 90.8244C99.1758 80.8346 94.8989 70.3363 90.262 59.827C85.7365 49.5702 81.0189 39.6687 76.0357 31.9977C73.5396 28.1551 70.8745 24.71 68.0056 22.0207C65.1494 19.3433 61.8488 17.1879 58.0804 16.3603C49.8759 14.5584 42.6727 19.4627 36.4963 28.2755C30.2458 37.194 23.8988 51.5827 17.2329 72.6492L26.7671 75.666ZM38 101.601H128V91.6009H38V101.601Z" fill="url(#paint3_linear_338_373)"/>
</g>
<g filter="url(#filter5_f_338_373)">
<path d="M22.6946 95.0952L21.6318 97.9006L27.2426 100.026L28.3054 97.2208L22.6946 95.0952ZM142.43 58.3007L143.073 55.3703L137.212 54.0848L136.57 57.0151L142.43 58.3007ZM19.1398 73.2526L18.2347 76.1128L23.9552 77.9229L24.8602 75.0627L19.1398 73.2526ZM145.651 113.562L147.055 110.911L141.753 108.102L140.349 110.753L145.651 113.562ZM38 93.6009H35V99.6009H38V93.6009ZM128 99.6009H131V93.6009H128V99.6009ZM28.3054 97.2208C35.2286 78.9461 41.2155 68.8358 46.2718 64.1867C48.7354 61.9214 50.7413 61.1714 52.3434 61.1265C53.9422 61.0817 55.6809 61.724 57.6439 63.3457C61.7183 66.712 65.7413 73.4429 69.7919 82.1639C73.7938 90.7801 77.573 100.755 81.4043 110.278C85.1867 119.679 89.0468 128.712 93.1341 135.017C95.1719 138.16 97.4228 140.877 99.9606 142.591C102.613 144.381 105.701 145.134 108.968 143.989C112.027 142.918 114.746 140.347 117.266 136.698C119.818 133.001 122.389 127.873 125.028 121.153C130.309 107.704 136.045 87.4113 142.43 58.3007L136.57 57.0151C130.205 86.0295 124.55 105.956 119.443 118.96C116.888 125.466 114.514 130.123 112.329 133.288C110.11 136.5 108.298 137.867 106.985 138.327C105.881 138.713 104.759 138.591 103.318 137.618C101.762 136.568 100.036 134.633 98.1686 131.752C94.4454 126.01 90.7821 117.512 86.9707 108.038C83.2082 98.6862 79.3234 88.4421 75.2335 79.6364C71.1923 70.9356 66.6957 63.0414 61.4655 58.7202C58.7761 56.4983 55.6662 55.0311 52.1754 55.1289C48.6879 55.2266 45.3632 56.8712 42.2106 59.77C36.0345 65.4489 29.6464 76.7449 22.6946 95.0952L28.3054 97.2208ZM24.8602 75.0627C31.4607 54.2028 37.515 40.7611 43.0475 32.8669C48.6245 24.9094 53.0057 23.4364 56.3643 24.1741C58.2439 24.5869 60.2987 25.7616 62.5344 27.8573C64.7624 29.9459 67.027 32.8152 69.327 36.3557C73.9324 43.4453 78.4331 52.8356 82.9428 63.0565C87.3856 73.1258 91.9383 84.2456 96.4 94.1188C100.889 104.053 105.509 113.247 110.351 119.873C115.035 126.282 120.708 131.368 127.467 130.76C130.847 130.456 134.014 128.745 136.972 125.893C139.915 123.056 142.789 118.964 145.651 113.562L140.349 110.753C137.649 115.851 135.124 119.341 132.808 121.573C130.507 123.791 128.554 124.638 126.929 124.784C123.678 125.076 119.801 122.635 115.196 116.333C110.749 110.248 106.341 101.548 101.868 91.648C97.3664 81.6874 93.0206 71.0337 88.4322 60.6344C83.9106 50.3866 79.2473 40.6128 74.3586 33.0872C71.9114 29.3201 69.3465 26.019 66.6378 23.4799C63.9367 20.9479 60.9475 19.0377 57.6514 18.3137C50.6584 16.7779 44.1606 20.8244 38.1341 29.4234C32.0631 38.0858 25.7893 52.2377 19.1398 73.2526L24.8602 75.0627ZM38 99.6009H128V93.6009H38V99.6009Z" fill="url(#paint4_linear_338_373)"/>
</g>
<g filter="url(#filter6_f_338_373)">
<path d="M22.6946 95.0952L21.6318 97.9006L27.2426 100.026L28.3054 97.2208L22.6946 95.0952ZM142.43 58.3007L143.073 55.3703L137.212 54.0848L136.57 57.0151L142.43 58.3007ZM19.1398 73.2526L18.2347 76.1128L23.9552 77.9229L24.8602 75.0627L19.1398 73.2526ZM145.651 113.562L147.055 110.911L141.753 108.102L140.349 110.753L145.651 113.562ZM38 93.6009H35V99.6009H38V93.6009ZM128 99.6009H131V93.6009H128V99.6009ZM28.3054 97.2208C35.2286 78.9461 41.2155 68.8358 46.2718 64.1867C48.7354 61.9214 50.7413 61.1714 52.3434 61.1265C53.9422 61.0817 55.6809 61.724 57.6439 63.3457C61.7183 66.712 65.7413 73.4429 69.7919 82.1639C73.7938 90.7801 77.573 100.755 81.4043 110.278C85.1867 119.679 89.0468 128.712 93.1341 135.017C95.1719 138.16 97.4228 140.877 99.9606 142.591C102.613 144.381 105.701 145.134 108.968 143.989C112.027 142.918 114.746 140.347 117.266 136.698C119.818 133.001 122.389 127.873 125.028 121.153C130.309 107.704 136.045 87.4113 142.43 58.3007L136.57 57.0151C130.205 86.0295 124.55 105.956 119.443 118.96C116.888 125.466 114.514 130.123 112.329 133.288C110.11 136.5 108.298 137.867 106.985 138.327C105.881 138.713 104.759 138.591 103.318 137.618C101.762 136.568 100.036 134.633 98.1686 131.752C94.4454 126.01 90.7821 117.512 86.9707 108.038C83.2082 98.6862 79.3234 88.4421 75.2335 79.6364C71.1923 70.9356 66.6957 63.0414 61.4655 58.7202C58.7761 56.4983 55.6662 55.0311 52.1754 55.1289C48.6879 55.2266 45.3632 56.8712 42.2106 59.77C36.0345 65.4489 29.6464 76.7449 22.6946 95.0952L28.3054 97.2208ZM24.8602 75.0627C31.4607 54.2028 37.515 40.7611 43.0475 32.8669C48.6245 24.9094 53.0057 23.4364 56.3643 24.1741C58.2439 24.5869 60.2987 25.7616 62.5344 27.8573C64.7624 29.9459 67.027 32.8152 69.327 36.3557C73.9324 43.4453 78.4331 52.8356 82.9428 63.0565C87.3856 73.1258 91.9383 84.2456 96.4 94.1188C100.889 104.053 105.509 113.247 110.351 119.873C115.035 126.282 120.708 131.368 127.467 130.76C130.847 130.456 134.014 128.745 136.972 125.893C139.915 123.056 142.789 118.964 145.651 113.562L140.349 110.753C137.649 115.851 135.124 119.341 132.808 121.573C130.507 123.791 128.554 124.638 126.929 124.784C123.678 125.076 119.801 122.635 115.196 116.333C110.749 110.248 106.341 101.548 101.868 91.648C97.3664 81.6874 93.0206 71.0337 88.4322 60.6344C83.9106 50.3866 79.2473 40.6128 74.3586 33.0872C71.9114 29.3201 69.3465 26.019 66.6378 23.4799C63.9367 20.9479 60.9475 19.0377 57.6514 18.3137C50.6584 16.7779 44.1606 20.8244 38.1341 29.4234C32.0631 38.0858 25.7893 52.2377 19.1398 73.2526L24.8602 75.0627ZM38 99.6009H128V93.6009H38V99.6009Z" fill="url(#paint5_linear_338_373)"/>
</g>
<path d="M25.5 96.1581C81 -50.342 88.5 290.158 139.5 57.658" stroke="white" stroke-width="4" stroke-linecap="square" stroke-linejoin="round"/>
<path d="M22 74.1576C75 -93.3416 98.5 196.158 143 112.157" stroke="white" stroke-width="4" stroke-linecap="square" stroke-linejoin="round"/>
<path d="M38 96.6008L128 96.6008" stroke="white" stroke-width="4" stroke-linecap="square"/>
<defs>
<filter id="filter0_f_338_373" x="0.724609" y="0.98999" width="164.034" height="160.544" filterUnits="userSpaceOnUse" color-interpolation-filters="sRGB">
<feFlood flood-opacity="0" result="BackgroundImageFix"/>
<feBlend mode="normal" in="SourceGraphic" in2="BackgroundImageFix" result="shape"/>
<feGaussianBlur stdDeviation="7.5" result="effect1_foregroundBlur_338_373"/>
</filter>
<filter id="filter1_f_338_373" x="5.72461" y="5.98999" width="154.034" height="150.544" filterUnits="userSpaceOnUse" color-interpolation-filters="sRGB">
<feFlood flood-opacity="0" result="BackgroundImageFix"/>
<feBlend mode="normal" in="SourceGraphic" in2="BackgroundImageFix" result="shape"/>
<feGaussianBlur stdDeviation="5" result="effect1_foregroundBlur_338_373"/>
</filter>
<filter id="filter2_f_338_373" x="12.2344" y="11.9941" width="140.821" height="138.539" filterUnits="userSpaceOnUse" color-interpolation-filters="sRGB">
<feFlood flood-opacity="0" result="BackgroundImageFix"/>
<feBlend mode="normal" in="SourceGraphic" in2="BackgroundImageFix" result="shape"/>
<feGaussianBlur stdDeviation="3" result="effect1_foregroundBlur_338_373"/>
</filter>
<filter id="filter3_f_338_373" x="12.2344" y="11.9941" width="140.821" height="138.539" filterUnits="userSpaceOnUse" color-interpolation-filters="sRGB">
<feFlood flood-opacity="0" result="BackgroundImageFix"/>
<feBlend mode="normal" in="SourceGraphic" in2="BackgroundImageFix" result="shape"/>
<feGaussianBlur stdDeviation="3" result="effect1_foregroundBlur_338_373"/>
</filter>
<filter id="filter4_f_338_373" x="5.72461" y="5.98999" width="154.034" height="150.544" filterUnits="userSpaceOnUse" color-interpolation-filters="sRGB">
<feFlood flood-opacity="0" result="BackgroundImageFix"/>
<feBlend mode="normal" in="SourceGraphic" in2="BackgroundImageFix" result="shape"/>
<feGaussianBlur stdDeviation="5" result="effect1_foregroundBlur_338_373"/>
</filter>
<filter id="filter5_f_338_373" x="12.2344" y="11.9941" width="140.821" height="138.539" filterUnits="userSpaceOnUse" color-interpolation-filters="sRGB">
<feFlood flood-opacity="0" result="BackgroundImageFix"/>
<feBlend mode="normal" in="SourceGraphic" in2="BackgroundImageFix" result="shape"/>
<feGaussianBlur stdDeviation="3" result="effect1_foregroundBlur_338_373"/>
</filter>
<filter id="filter6_f_338_373" x="12.2344" y="11.9941" width="140.821" height="138.539" filterUnits="userSpaceOnUse" color-interpolation-filters="sRGB">
<feFlood flood-opacity="0" result="BackgroundImageFix"/>
<feBlend mode="normal" in="SourceGraphic" in2="BackgroundImageFix" result="shape"/>
<feGaussianBlur stdDeviation="3" result="effect1_foregroundBlur_338_373"/>
</filter>
<linearGradient id="paint0_linear_338_373" x1="87.5" y1="58" x2="103" y2="146" gradientUnits="userSpaceOnUse">
<stop stop-color="#47FAFF" stop-opacity="0"/>
<stop offset="1" stop-color="#47FAFF"/>
</linearGradient>
<linearGradient id="paint1_linear_338_373" x1="79" y1="95" x2="24.5" y2="95.5" gradientUnits="userSpaceOnUse">
<stop stop-color="white" stop-opacity="0"/>
<stop offset="1" stop-color="white"/>
</linearGradient>
<linearGradient id="paint2_linear_338_373" x1="143" y1="56.5" x2="107" y2="142" gradientUnits="userSpaceOnUse">
<stop stop-color="white" stop-opacity="0"/>
<stop offset="1" stop-color="white"/>
</linearGradient>
<linearGradient id="paint3_linear_338_373" x1="87.5" y1="58" x2="103" y2="146" gradientUnits="userSpaceOnUse">
<stop stop-color="#47FAFF" stop-opacity="0"/>
<stop offset="1" stop-color="#47FAFF"/>
</linearGradient>
<linearGradient id="paint4_linear_338_373" x1="79" y1="95" x2="24.5" y2="95.5" gradientUnits="userSpaceOnUse">
<stop stop-color="white" stop-opacity="0"/>
<stop offset="1" stop-color="white"/>
</linearGradient>
<linearGradient id="paint5_linear_338_373" x1="143" y1="56.5" x2="107" y2="142" gradientUnits="userSpaceOnUse">
<stop stop-color="white" stop-opacity="0"/>
<stop offset="1" stop-color="white"/>
</linearGradient>
</defs>
</svg>
