<svg width="32" height="31" viewBox="0 0 32 31" fill="none" xmlns="http://www.w3.org/2000/svg">
<path d="M16.6346 25.0505L23.9033 29.6656C24.8407 30.2569 25.9944 29.3771 25.7204 28.2955L23.6148 20.0172C23.5579 19.7878 23.5669 19.5469 23.6409 19.3224C23.7149 19.0978 23.8509 18.8988 24.0331 18.7481L30.5518 13.311C31.4027 12.6043 30.97 11.1766 29.8595 11.1044L21.3506 10.5564C21.1184 10.5429 20.8952 10.4621 20.7082 10.3238C20.5213 10.1854 20.3786 9.99568 20.2978 9.77763L17.1249 1.78784C17.0409 1.55695 16.8879 1.35749 16.6867 1.21655C16.4854 1.0756 16.2457 1 16 1C15.7543 1 15.5146 1.0756 15.3133 1.21655C15.1121 1.35749 14.9591 1.55695 14.8751 1.78784L11.7022 9.77763C11.6214 9.99568 11.4787 10.1854 11.2918 10.3238C11.1048 10.4621 10.8816 10.5429 10.6494 10.5564L2.14046 11.1044C1.02996 11.1766 0.597305 12.6043 1.4482 13.311L7.96695 18.7481C8.14915 18.8988 8.28508 19.0978 8.35907 19.3224C8.43307 19.5469 8.44212 19.7878 8.38518 20.0172L6.43821 27.6898C6.10651 28.9877 7.49102 30.0405 8.60151 29.3339L15.3654 25.0505C15.5551 24.9299 15.7752 24.8659 16 24.8659C16.2248 24.8659 16.4449 24.9299 16.6346 25.0505V25.0505Z" stroke="#565E71" stroke-width="2" stroke-linecap="round" stroke-linejoin="round"/>
</svg>
