<svg width="192" height="192" viewBox="0 0 192 192" fill="none" xmlns="http://www.w3.org/2000/svg">
<g filter="url(#filter0_f_1228_821)">
<path d="M116.625 118C116.625 115.239 114.386 113 111.625 113C108.864 113 106.625 115.239 106.625 118H116.625ZM106.625 149.25C106.625 152.011 108.864 154.25 111.625 154.25C114.386 154.25 116.625 152.011 116.625 149.25H106.625ZM85.375 118C85.375 115.239 83.1364 113 80.375 113C77.6136 113 75.375 115.239 75.375 118H85.375ZM75.375 149.25C75.375 152.011 77.6136 154.25 80.375 154.25C83.1364 154.25 85.375 152.011 85.375 149.25H75.375ZM91 49.25C91 52.0114 93.2386 54.25 96 54.25C98.7614 54.25 101 52.0114 101 49.25H91ZM101 18C101 15.2386 98.7614 13 96 13C93.2386 13 91 15.2386 91 18H101ZM39.75 54.25H152.25V44.25H39.75V54.25ZM152.25 54.25C159.844 54.25 166 60.4061 166 68H176C176 54.8832 165.367 44.25 152.25 44.25V54.25ZM166 68V155.5H176V68H166ZM166 155.5C166 163.094 159.844 169.25 152.25 169.25V179.25C165.367 179.25 176 168.617 176 155.5H166ZM152.25 169.25H39.75V179.25H152.25V169.25ZM39.75 169.25C32.1561 169.25 26 163.094 26 155.5H16C16 168.617 26.6332 179.25 39.75 179.25V169.25ZM26 155.5V68H16V155.5H26ZM26 68C26 60.4061 32.1561 54.25 39.75 54.25V44.25C26.6332 44.25 16 54.8832 16 68H26ZM67.875 123H124.125V113H67.875V123ZM124.125 123C129.993 123 134.75 127.757 134.75 133.625H144.75C144.75 122.234 135.516 113 124.125 113V123ZM134.75 133.625C134.75 139.493 129.993 144.25 124.125 144.25V154.25C135.516 154.25 144.75 145.016 144.75 133.625H134.75ZM124.125 144.25H67.875V154.25H124.125V144.25ZM67.875 144.25C62.007 144.25 57.25 139.493 57.25 133.625H47.25C47.25 145.016 56.4841 154.25 67.875 154.25V144.25ZM57.25 133.625C57.25 127.757 62.007 123 67.875 123V113C56.4841 113 47.25 122.234 47.25 133.625H57.25ZM106.625 118V149.25H116.625V118H106.625ZM75.375 118V149.25H85.375V118H75.375ZM66 89.875C66 92.2912 64.0412 94.25 61.625 94.25V104.25C69.5641 104.25 76 97.8141 76 89.875H66ZM61.625 94.25C59.2088 94.25 57.25 92.2912 57.25 89.875H47.25C47.25 97.8141 53.6859 104.25 61.625 104.25V94.25ZM57.25 89.875C57.25 87.4588 59.2088 85.5 61.625 85.5V75.5C53.6859 75.5 47.25 81.9359 47.25 89.875H57.25ZM61.625 85.5C64.0412 85.5 66 87.4588 66 89.875H76C76 81.9359 69.5641 75.5 61.625 75.5V85.5ZM134.75 89.875C134.75 92.2912 132.791 94.25 130.375 94.25V104.25C138.314 104.25 144.75 97.8141 144.75 89.875H134.75ZM130.375 94.25C127.959 94.25 126 92.2912 126 89.875H116C116 97.8141 122.436 104.25 130.375 104.25V94.25ZM126 89.875C126 87.4588 127.959 85.5 130.375 85.5V75.5C122.436 75.5 116 81.9359 116 89.875H126ZM130.375 85.5C132.791 85.5 134.75 87.4588 134.75 89.875H144.75C144.75 81.9359 138.314 75.5 130.375 75.5V85.5ZM101 49.25V18H91V49.25H101Z" fill="url(#paint0_linear_1228_821)"/>
</g>
<g filter="url(#filter1_f_1228_821)">
<path d="M114.625 118C114.625 116.343 113.282 115 111.625 115C109.968 115 108.625 116.343 108.625 118H114.625ZM108.625 149.25C108.625 150.907 109.968 152.25 111.625 152.25C113.282 152.25 114.625 150.907 114.625 149.25H108.625ZM83.375 118C83.375 116.343 82.0319 115 80.375 115C78.7181 115 77.375 116.343 77.375 118H83.375ZM77.375 149.25C77.375 150.907 78.7181 152.25 80.375 152.25C82.0319 152.25 83.375 150.907 83.375 149.25H77.375ZM93 49.25C93 50.9069 94.3431 52.25 96 52.25C97.6569 52.25 99 50.9069 99 49.25H93ZM99 18C99 16.3431 97.6569 15 96 15C94.3431 15 93 16.3431 93 18H99ZM39.75 52.25H152.25V46.25H39.75V52.25ZM152.25 52.25C160.948 52.25 168 59.3015 168 68H174C174 55.9878 164.262 46.25 152.25 46.25V52.25ZM168 68V155.5H174V68H168ZM168 155.5C168 164.198 160.948 171.25 152.25 171.25V177.25C164.262 177.25 174 167.512 174 155.5H168ZM152.25 171.25H39.75V177.25H152.25V171.25ZM39.75 171.25C31.0515 171.25 24 164.198 24 155.5H18C18 167.512 27.7378 177.25 39.75 177.25V171.25ZM24 155.5V68H18V155.5H24ZM24 68C24 59.3015 31.0515 52.25 39.75 52.25V46.25C27.7378 46.25 18 55.9878 18 68H24ZM67.875 121H124.125V115H67.875V121ZM124.125 121C131.098 121 136.75 126.652 136.75 133.625H142.75C142.75 123.339 134.411 115 124.125 115V121ZM136.75 133.625C136.75 140.598 131.098 146.25 124.125 146.25V152.25C134.411 152.25 142.75 143.911 142.75 133.625H136.75ZM124.125 146.25H67.875V152.25H124.125V146.25ZM67.875 146.25C60.9024 146.25 55.25 140.598 55.25 133.625H49.25C49.25 143.911 57.5887 152.25 67.875 152.25V146.25ZM55.25 133.625C55.25 126.652 60.9024 121 67.875 121V115C57.5887 115 49.25 123.339 49.25 133.625H55.25ZM108.625 118V149.25H114.625V118H108.625ZM77.375 118V149.25H83.375V118H77.375ZM68 89.875C68 93.3958 65.1458 96.25 61.625 96.25V102.25C68.4595 102.25 74 96.7095 74 89.875H68ZM61.625 96.25C58.1042 96.25 55.25 93.3958 55.25 89.875H49.25C49.25 96.7095 54.7905 102.25 61.625 102.25V96.25ZM55.25 89.875C55.25 86.3542 58.1042 83.5 61.625 83.5V77.5C54.7905 77.5 49.25 83.0405 49.25 89.875H55.25ZM61.625 83.5C65.1458 83.5 68 86.3542 68 89.875H74C74 83.0405 68.4595 77.5 61.625 77.5V83.5ZM136.75 89.875C136.75 93.3958 133.896 96.25 130.375 96.25V102.25C137.21 102.25 142.75 96.7095 142.75 89.875H136.75ZM130.375 96.25C126.854 96.25 124 93.3958 124 89.875H118C118 96.7095 123.54 102.25 130.375 102.25V96.25ZM124 89.875C124 86.3542 126.854 83.5 130.375 83.5V77.5C123.54 77.5 118 83.0405 118 89.875H124ZM130.375 83.5C133.896 83.5 136.75 86.3542 136.75 89.875H142.75C142.75 83.0405 137.21 77.5 130.375 77.5V83.5ZM99 49.25V18H93V49.25H99Z" fill="url(#paint1_linear_1228_821)"/>
</g>
<g filter="url(#filter2_f_1228_821)">
<path d="M114.625 118C114.625 116.343 113.282 115 111.625 115C109.968 115 108.625 116.343 108.625 118H114.625ZM108.625 149.25C108.625 150.907 109.968 152.25 111.625 152.25C113.282 152.25 114.625 150.907 114.625 149.25H108.625ZM83.375 118C83.375 116.343 82.0319 115 80.375 115C78.7181 115 77.375 116.343 77.375 118H83.375ZM77.375 149.25C77.375 150.907 78.7181 152.25 80.375 152.25C82.0319 152.25 83.375 150.907 83.375 149.25H77.375ZM93 49.25C93 50.9069 94.3431 52.25 96 52.25C97.6569 52.25 99 50.9069 99 49.25H93ZM99 18C99 16.3431 97.6569 15 96 15C94.3431 15 93 16.3431 93 18H99ZM39.75 52.25H152.25V46.25H39.75V52.25ZM152.25 52.25C160.948 52.25 168 59.3015 168 68H174C174 55.9878 164.262 46.25 152.25 46.25V52.25ZM168 68V155.5H174V68H168ZM168 155.5C168 164.198 160.948 171.25 152.25 171.25V177.25C164.262 177.25 174 167.512 174 155.5H168ZM152.25 171.25H39.75V177.25H152.25V171.25ZM39.75 171.25C31.0515 171.25 24 164.198 24 155.5H18C18 167.512 27.7378 177.25 39.75 177.25V171.25ZM24 155.5V68H18V155.5H24ZM24 68C24 59.3015 31.0515 52.25 39.75 52.25V46.25C27.7378 46.25 18 55.9878 18 68H24ZM67.875 121H124.125V115H67.875V121ZM124.125 121C131.098 121 136.75 126.652 136.75 133.625H142.75C142.75 123.339 134.411 115 124.125 115V121ZM136.75 133.625C136.75 140.598 131.098 146.25 124.125 146.25V152.25C134.411 152.25 142.75 143.911 142.75 133.625H136.75ZM124.125 146.25H67.875V152.25H124.125V146.25ZM67.875 146.25C60.9024 146.25 55.25 140.598 55.25 133.625H49.25C49.25 143.911 57.5887 152.25 67.875 152.25V146.25ZM55.25 133.625C55.25 126.652 60.9024 121 67.875 121V115C57.5887 115 49.25 123.339 49.25 133.625H55.25ZM108.625 118V149.25H114.625V118H108.625ZM77.375 118V149.25H83.375V118H77.375ZM68 89.875C68 93.3958 65.1458 96.25 61.625 96.25V102.25C68.4595 102.25 74 96.7095 74 89.875H68ZM61.625 96.25C58.1042 96.25 55.25 93.3958 55.25 89.875H49.25C49.25 96.7095 54.7905 102.25 61.625 102.25V96.25ZM55.25 89.875C55.25 86.3542 58.1042 83.5 61.625 83.5V77.5C54.7905 77.5 49.25 83.0405 49.25 89.875H55.25ZM61.625 83.5C65.1458 83.5 68 86.3542 68 89.875H74C74 83.0405 68.4595 77.5 61.625 77.5V83.5ZM136.75 89.875C136.75 93.3958 133.896 96.25 130.375 96.25V102.25C137.21 102.25 142.75 96.7095 142.75 89.875H136.75ZM130.375 96.25C126.854 96.25 124 93.3958 124 89.875H118C118 96.7095 123.54 102.25 130.375 102.25V96.25ZM124 89.875C124 86.3542 126.854 83.5 130.375 83.5V77.5C123.54 77.5 118 83.0405 118 89.875H124ZM130.375 83.5C133.896 83.5 136.75 86.3542 136.75 89.875H142.75C142.75 83.0405 137.21 77.5 130.375 77.5V83.5ZM99 49.25V18H93V49.25H99Z" fill="url(#paint2_linear_1228_821)"/>
</g>
<path d="M113.625 118C113.625 116.895 112.73 116 111.625 116C110.52 116 109.625 116.895 109.625 118H113.625ZM109.625 149.25C109.625 150.355 110.52 151.25 111.625 151.25C112.73 151.25 113.625 150.355 113.625 149.25H109.625ZM82.375 118C82.375 116.895 81.4796 116 80.375 116C79.2704 116 78.375 116.895 78.375 118H82.375ZM78.375 149.25C78.375 150.355 79.2704 151.25 80.375 151.25C81.4796 151.25 82.375 150.355 82.375 149.25H78.375ZM94 49.25C94 50.3546 94.8954 51.25 96 51.25C97.1046 51.25 98 50.3546 98 49.25H94ZM98 18C98 16.8954 97.1046 16 96 16C94.8954 16 94 16.8954 94 18H98ZM39.75 51.25H152.25V47.25H39.75V51.25ZM152.25 51.25C161.501 51.25 169 58.7492 169 68H173C173 56.5401 163.71 47.25 152.25 47.25V51.25ZM169 68V155.5H173V68H169ZM169 155.5C169 164.751 161.501 172.25 152.25 172.25V176.25C163.71 176.25 173 166.96 173 155.5H169ZM152.25 172.25H39.75V176.25H152.25V172.25ZM39.75 172.25C30.4992 172.25 23 164.751 23 155.5H19C19 166.96 28.2901 176.25 39.75 176.25V172.25ZM23 155.5V68H19V155.5H23ZM23 68C23 58.7492 30.4992 51.25 39.75 51.25V47.25C28.2901 47.25 19 56.5401 19 68H23ZM67.875 120H124.125V116H67.875V120ZM124.125 120C131.65 120 137.75 126.1 137.75 133.625H141.75C141.75 123.891 133.859 116 124.125 116V120ZM137.75 133.625C137.75 141.15 131.65 147.25 124.125 147.25V151.25C133.859 151.25 141.75 143.359 141.75 133.625H137.75ZM124.125 147.25H67.875V151.25H124.125V147.25ZM67.875 147.25C60.3501 147.25 54.25 141.15 54.25 133.625H50.25C50.25 143.359 58.141 151.25 67.875 151.25V147.25ZM54.25 133.625C54.25 126.1 60.3501 120 67.875 120V116C58.141 116 50.25 123.891 50.25 133.625H54.25ZM109.625 118V149.25H113.625V118H109.625ZM78.375 118V149.25H82.375V118H78.375ZM69 89.875C69 93.9481 65.6981 97.25 61.625 97.25V101.25C67.9072 101.25 73 96.1572 73 89.875H69ZM61.625 97.25C57.5519 97.25 54.25 93.9481 54.25 89.875H50.25C50.25 96.1572 55.3428 101.25 61.625 101.25V97.25ZM54.25 89.875C54.25 85.8019 57.5519 82.5 61.625 82.5V78.5C55.3428 78.5 50.25 83.5928 50.25 89.875H54.25ZM61.625 82.5C65.6981 82.5 69 85.8019 69 89.875H73C73 83.5928 67.9072 78.5 61.625 78.5V82.5ZM137.75 89.875C137.75 93.9481 134.448 97.25 130.375 97.25V101.25C136.657 101.25 141.75 96.1572 141.75 89.875H137.75ZM130.375 97.25C126.302 97.25 123 93.9481 123 89.875H119C119 96.1572 124.093 101.25 130.375 101.25V97.25ZM123 89.875C123 85.8019 126.302 82.5 130.375 82.5V78.5C124.093 78.5 119 83.5928 119 89.875H123ZM130.375 82.5C134.448 82.5 137.75 85.8019 137.75 89.875H141.75C141.75 83.5928 136.657 78.5 130.375 78.5V82.5ZM98 49.25V18H94V49.25H98Z" fill="white"/>
<defs>
<filter id="filter0_f_1228_821" x="6" y="3" width="180" height="186.25" filterUnits="userSpaceOnUse" color-interpolation-filters="sRGB">
<feFlood flood-opacity="0" result="BackgroundImageFix"/>
<feBlend mode="normal" in="SourceGraphic" in2="BackgroundImageFix" result="shape"/>
<feGaussianBlur stdDeviation="5" result="effect1_foregroundBlur_1228_821"/>
</filter>
<filter id="filter1_f_1228_821" x="8" y="5" width="176" height="182.25" filterUnits="userSpaceOnUse" color-interpolation-filters="sRGB">
<feFlood flood-opacity="0" result="BackgroundImageFix"/>
<feBlend mode="normal" in="SourceGraphic" in2="BackgroundImageFix" result="shape"/>
<feGaussianBlur stdDeviation="5" result="effect1_foregroundBlur_1228_821"/>
</filter>
<filter id="filter2_f_1228_821" x="8" y="5" width="176" height="182.25" filterUnits="userSpaceOnUse" color-interpolation-filters="sRGB">
<feFlood flood-opacity="0" result="BackgroundImageFix"/>
<feBlend mode="normal" in="SourceGraphic" in2="BackgroundImageFix" result="shape"/>
<feGaussianBlur stdDeviation="5" result="effect1_foregroundBlur_1228_821"/>
</filter>
<linearGradient id="paint0_linear_1228_821" x1="21" y1="111" x2="114.5" y2="174" gradientUnits="userSpaceOnUse">
<stop stop-color="#47FAFF"/>
<stop offset="1" stop-color="#47FAFF" stop-opacity="0"/>
</linearGradient>
<linearGradient id="paint1_linear_1228_821" x1="171" y1="77" x2="21" y2="141" gradientUnits="userSpaceOnUse">
<stop stop-color="white"/>
<stop offset="1" stop-color="white" stop-opacity="0"/>
</linearGradient>
<linearGradient id="paint2_linear_1228_821" x1="26.5" y1="54" x2="96" y2="174.25" gradientUnits="userSpaceOnUse">
<stop stop-color="white"/>
<stop offset="1" stop-color="white" stop-opacity="0"/>
</linearGradient>
</defs>
</svg>
