<svg width="32" height="32" viewBox="0 0 32 32" fill="none" xmlns="http://www.w3.org/2000/svg">
<path d="M30.3996 19.6648C27.8953 20.367 25.2492 20.39 22.7331 19.7315C20.217 19.0729 17.9215 17.7564 16.0824 15.9173C14.2433 14.0782 12.9268 11.7827 12.2682 9.2666C11.6097 6.75047 11.6327 4.10439 12.3349 1.6001C9.86592 2.28731 7.62006 3.60941 5.82103 5.43471C4.022 7.26001 2.73259 9.52481 2.08125 12.0035C1.4299 14.4822 1.43935 17.0883 2.10864 19.5622C2.77794 22.0362 4.08373 24.2916 5.89594 26.1038C7.70815 27.916 9.96354 29.2218 12.4375 29.8911C14.9114 30.5604 17.5175 30.5698 19.9962 29.9185C22.4749 29.2671 24.7397 27.9777 26.565 26.1787C28.3903 24.3796 29.7124 22.1338 30.3996 19.6648Z" stroke="white" stroke-width="2" stroke-linecap="round"/>
</svg>
